<?xml version="1.0" encoding="utf-8"?>
<!DOCTYPE svg PUBLIC "-//W3C//DTD SVG 1.1//EN" "http://www.w3.org/Graphics/SVG/1.1/DTD/svg11.dtd">
<svg version="1.1" id="Layer_1" xmlns="http://www.w3.org/2000/svg" xmlns:xlink="http://www.w3.org/1999/xlink" x="0px" y="0px"
	 viewBox="0 0 686 1024" enable-background="new 0 0 686 1024" xml:space="preserve">
<g id="_x23_ffffffff">
	<path fill="#FFFFFF" stroke="#FFFFFF" stroke-width="0.0938" d="M163.67,597.5c-0.01-4.87,6.4-9.38,10.59-5.87
		C170.74,593.58,168.11,598.01,163.67,597.5z"/>
</g>
<g id="_x23_000000ff">
	<path stroke="#000000" stroke-width="0.0938" d="M193.17,29.15c2.05-2.63,3.65-5.69,6.41-7.68c0.2,4.04,0.47,8.13-0.03,12.15
		c-1.75,6.83-4.73,13.34-5.92,20.33c-0.56,6.37-2.33,12.58-2.37,19.01c0.36,11.67-0.21,23.35-0.01,35.04
		c0.27,9.38-0.9,18.95,1.59,28.12c5.35,18.24,12.64,35.88,21.19,52.85c4.82,10.12,11.08,19.45,17.08,28.89
		c4.1,6.58,7.81,13.41,12.28,19.76c5.02,8.09,9.53,16.48,14.2,24.78c5.29,7.44,9.95,15.3,15.34,22.66c4.79,8.63,11.5,16,16.5,24.52
		c7.98,10.65,14.59,22.42,19.09,34.97c2.56,6.79,2.59,14.66-0.8,21.16c-3.94,6.84-11.17,10.45-17.77,14.2
		c-5.55,2.87-10.08,7.24-14.99,11.02c-5.53,4.09-10.78,8.99-13.69,15.34c-1.25,2.39-0.82,5.14-0.91,7.73
		c0.05,3.09-0.32,6.45,1.39,9.21c2.9,4.72,7.47,8.01,11.95,11.1c5.23,4.67,10.96,10.21,11.37,17.68c0.44,6.46-4.88,11.16-7.29,16.72
		c-2.9,6.41-7.31,11.91-11.73,17.32c-6.83,8.95-15.65,16.1-23.36,24.22c3,0.76,5.49-1.28,8.11-2.32c5.98-2.35,11.56-5.65,16.79-9.38
		c11.26-9.29,17.82-22.74,23.12-36.06c3.7-8.27,7.09-17.21,5.86-26.45c-1.87,4.34-2.53,9.07-4.01,13.55
		c-0.26,1.34-1.23,2.3-2.28,3.09c-0.3-2.46-0.09-4.97-0.57-7.39c-1.01-2.55-2.61-4.8-3.86-7.22c4.53-5.74,2.14-13.19,3.05-19.84
		c2.51,1.88,4.05,4.71,4.97,7.66c0.88,2.37,0.86,5.24,3.03,6.93c2.81-4.11,1.12-9.18,1.89-13.77c0.89-5.86-0.79-11.72,0.05-17.56
		c1.8,1.33,3.04,3.19,3.17,5.48c0.68,5.76,4.47,10.71,4.37,16.62c3.57,21.73-0.2,44.64-10.87,63.95
		c-5.27,8.42-11.48,16.49-19.51,22.45c-4.99,4.16-10.2,8.16-16.17,10.84c-5.67,3.23-11.19,6.75-16.72,10.24
		c-9.03,7.1-19.69,11.63-30.26,15.89c-5.78,3.25-11.1,7.5099-14.9,13.0099c-3.95,5.04-6.05,11.26-10.26,16.11
		c-0.65-1.11-1.9-2.21-1.14-3.59c2.66-7.7,7.11-14.64,11.47-21.47c5.48-6.21,10.36-12.93,15.98-19.02c2.16-2.42,5.56-3.99,6.31-7.4
		c-12.65,3-21.3,13.65-32.91,18.83c-5.24,3.72-10.41,7.58-15.69,11.25c-6.75,2.81-11.14,8.9-16.06,14
		c-2.96,2.9-2.19,7.49-4.16,10.92c-1.5,2.72-2.73,5.57-3.88,8.46c-1.25-0.62-3.24-0.98-2.54-2.84c0.96-4.35,1.85-8.73,2.16-13.18
		c0.09-5.3,2.67-10.11,5.29-14.55c3.89-6.69,11.12-10.17,16.57-15.37c2.51-2.72,6.78-3.54,8.3-7.13c-5.43-1.35-11.51-2.59-15.3-7.07
		c-5.69-6.65-4.05-16.18-2.22-23.99c1.45-9.05,5.65-17.28,9.45-25.53c1.77-3.85,4.43-7.32,7.84-9.86c1.22,4.73-2.42,8.58-3.41,12.97
		c-3.17,10.03-1.96,20.64-0.92,30.9c0.55,7.67,5.46,14,6.65,21.51c1.24-0.12,2.58-0.02,3.7-0.67c6.09-3.24,11.97-6.84,18.17-9.87
		c5.35-3.64,11.86-5.09,17.09-8.95c6.93-4.28,14.6-7.69,20.36-13.62c3.66-3.36,7.44-6.61,10.41-10.63
		c3.89-5.18,9.46-9.33,11.4-15.75c2.21-7.01,6.23-13.81,5.6-21.4c-1.21-4.1-3.7-7.69-6.1-11.17c-4.13-6.1-10.57-10.16-14.74-16.22
		c-4.42-5.76-7.52-13.08-6.32-20.46c1.21-7.05,0.64-14.61,4.09-21.12c4.75-8.96,13.17-15.02,21.51-20.38
		c3.07-2.55,6.29-5.06,8.71-8.27c3.31-5.62,3.34-12.35,4.45-18.6c-0.14-7.57,1.26-15.53-1.94-22.67
		c-1.53-5.84-4.58-11.05-6.19-16.84c-4.83-8.31-9.13-17.12-15.81-24.16c-5.4-4.44-11.51-7.89-17.45-11.55
		c-1.38-0.9-2.96-1.41-4.55-1.82c0.34,2.94,3.23,4.33,5.01,6.35c5.43,4.98,8.12,11.98,11.71,18.25c2.89,4.62,6.04,9.2,7.71,14.45
		c1.17,3.43,1.59,7.15,3.56,10.27c2.1,3.96,5.78,7.09,6.71,11.63c1.09,4.34,3.78,8.95,1.52,13.4c-3.86-6.79-7.73-13.59-11.87-20.21
		c-1.99-6.48-5.71-12.23-9.07-18.06c-5.06-5.62-8.68-12.6-15.02-16.99c-3.13-2.14-6-4.83-9.54-6.28
		c-6.02-1.13-12.12-1.88-18.11-3.19c-8.44-2.39-17.3-3.64-25.22-7.61c-5.82-3.01-11.31-6.62-16.63-10.43
		c-5.1-3.2-10.22-6.46-14.68-10.54c2.45-1.15,5.2-0.66,7.79-1.12c1.55-0.16,2.2-2.33,0.94-3.23c-3.89-2.69-8.58-3.96-12.45-6.72
		c-6.36-3.77-11.19-9.45-16.42-14.55c-6.27-6.15-11.82-13.01-16.47-20.46c-2.52-4.17-6.06-7.77-7.74-12.39
		c3.01-0.06,5.36,1.91,7.94,3.14c2.86,1.1,5.88,1.72,8.83,2.5c1.43-3.79-1.22-7.36-2.2-10.92c-4.14-12.35-7.72-25.03-8.55-38.09
		c1.11-12.58-1.73-25.31,0.77-37.81c0.85-11.5,3.47-22.98,8.46-33.41c3.03-5.85,5.51-12.13,9.9-17.15
		c0.43,6.2,0.06,12.41-1.31,18.47c-1.08,12.96-2.11,25.93-2.65,38.93c-0.33,14.82,2.29,29.59,6.64,43.72
		c4.75,12.44,8.52,25.29,14.71,37.12c1.86,5.45,5.72,9.83,7.9,15.13c4.82,9.24,9.84,18.47,16.18,26.78
		c4.18,5.64,10.32,9.37,16.46,12.54c7.92,4.95,17.38,6.15,26.11,9.02c3.94,0.86,7.38,3.21,11.41,3.71c-0.2-1.33-0.79-2.55-1.98-3.25
		c-13.63-11.4-31.61-16.9-43.51-30.47c-2.51-3.48-5.64-6.86-6.34-11.25c0.39-0.32,1.16-0.96,1.55-1.29
		c3.85,0.73,7.09,3.05,10.58,4.69c3.06,1.2,6.22,2.23,9.45,2.89c0.49-0.27,1.47-0.83,1.96-1.11c-3.6-4.74-7.08-9.62-11.57-13.58
		c-7.3-6.8-12.84-15.14-19.21-22.75c-6.47-6.47-13.08-13.4-16.33-22.12c1.12-0.27,2.43-1.1,3.43-0.06
		c4.41,3.88,9.85,6.17,14.68,9.41c2.01,1.33,4.08,2.66,6.51,3.02c-0.25-1.45-0.43-2.97-1.37-4.15
		c-6.27-9.51-11.84-19.84-13.64-31.22c-0.91-6.5-1.35-13.17-0.11-19.66c0.82-4.08,0.54-8.29,1.53-12.34
		c1.7-6.97,2.87-14.07,5.17-20.89c3.07-8.25,7.01-16.14,10.91-24.02C180.12,47.47,186.27,37.96,193.17,29.15z"/>
	<path stroke="#000000" stroke-width="0.0938" d="M482.79,26.6c3.85,1.28,6.6,4.45,9.67,6.95c5.25,5.41,11.2,10.19,15.64,16.33
		c5.33,8.03,10.27,16.32,15.7,24.28c3.39,3.99,4.87,9.08,7.37,13.59c3.7,7.93,7.05,16.21,7.89,25c0.44,4.57,2.15,8.84,3.22,13.24
		c-0.13,6.91,0.96,14.08-1.42,20.73c-0.92,3.43-2.93,6.59-2.83,10.24c3.27-0.31,5.37-3.2,8.41-4.17c-0.41,3.83-2.58,7.11-3.82,10.68
		c-4.85,12.82-14.54,22.81-22.12,33.98c-1.84,4.03-6.33,6.56-6.79,11.19c2.59-0.5,5.12-1.3,7.7599-1.63
		c-7.91,13.76-20.64,23.83-32.9,33.57c-5.71,3.73-11.23,7.75-16.87,11.6c0.18,0.68,0.54,2.05,0.73,2.74
		c4.92-0.78,9.1-4.11,14.22-4.19c-2.9,4.92-7.99,7.96-11.66,12.26c-9.07,8.05-19.92,13.8-30.71,19.21
		c-8.34,4.71-16.92,8.98-25.12,13.95c-1.23,0.61-1.95,1.8-2.69,2.9c2.95,0.83,6,1.1,9.04,1.5c-4.03,5.18-10.62,7.17-14.91,12.04
		c-4.63,2.67-9.47,5.04-13.78,8.27c-4.97,2.58-8.2,7.34-10.83,12.12c-6.19,8.95-9.35,19.56-11.78,30.06
		c-1.71,6.54-2.61,13.34-5.68,19.44c-2.58,8.96-8.12,16.58-12.25,24.83c-1.99,3.25-4.19,7.18-8.23,8.04
		c1.52-3.18,4.69-5.48,5.27-9.1c2.79-10.94,8.3-21.27,8.81-32.73c0.38-9.88,2.32-19.69,1.61-29.59c1.67-8.4,8.65-14.27,12.45-21.67
		c5.42-9.03,11.43-17.77,18.55-25.54c2.96-3.22,4.36-7.49,7.2-10.8c2.76-3.55,6.51-6.13,9.46-9.5c7.41-9.2,16.18-17.21,25.05-24.98
		c5.2-4.82,9.67-10.33,14.65-15.36c5.17-6.45,10.14-13.1,15.93-19.04c6.91-7.34,12.07-16.04,17.47-24.49
		c3.52-7.78,9.9-13.8,13.34-21.62c2.56-4.57,4.04-9.62,5.43-14.64c5.39-16.18,5.94-33.4,5.86-50.3c0.05-6.57-1.58-13-1.94-19.54
		c-0.96-7.5-1.94-15.09-4.56-22.23c-2.43-8.13-4.72-16.78-10.79-23.07C488.53,36.52,484.65,32.07,482.79,26.6z"/>
	<path stroke="#000000" stroke-width="0.0938" d="M564.72,50.85c1.38,1.08,2.6801,2.31,3.57,3.85c2.82,4.79,6.66,8.9,9.02,13.96
		c5.52,11.61,11.05,23.48,12.88,36.32c0.68,8.04,2.79,15.92,2.87,24.01c-0.06,4.97,0.57,9.98-0.44,14.9
		c-1.14,6.01-2.07,12.25-5.14,17.63c-3.55,5.18-7.11,10.39-9.84,16.05c-1.17,2.27-3.06,4.24-3.25,6.9
		c5.27-0.41,10.32-2.14,14.93-4.67c-0.59,5.24-4.62,8.97-7.17,13.3c-4.22,7.25-10.14,13.25-15.28,19.81
		c-4.07,5.23-9.3,9.34-13.82,14.14c-5.85,5.26-12.51,9.51-18.96,13.96c0.11,0.59,0.35,1.77,0.46,2.36c3.26,0.99,6.56-0.02,9.84-0.25
		c-0.75,3.05-3.61,4.58-5.84,6.46c-3.31,2.67-6.3,5.68-9.19,8.78c-11.79,10.21-23.17,20.89-35.49,30.45
		c-4.81,3.22-10.27,5.53-14.46,9.61c-4.36,3.81-10.22,4.94-15.11,7.84c-3.51,2.05-7.42,3.23-11.02,5.09
		c-12.72,6.81-25.07,14.47-36.13,23.78c-8.55,7.01-18.58,12.86-24.46,22.52c-5.53,6.38-10.27,14.29-18.32,17.75
		c0.79-3.48,3.44-5.96,5.02-9.02c2.96-9.14,9.02-16.77,14.46-24.54c10.81-15.12,25.95-26.18,40.2-37.77
		c7.69-5.26,14.88-11.17,22.42-16.62c10.71-11.1,24.18-19.02,35.17-29.83c2.59-2.52,3.71-6.15,6.37-8.61
		c4.25-4.11,7.61-9.03,11.86-13.15c3.81-3.71,5.71-8.81,9.25-12.74c5.97-8.67,12.99-16.61,18.37-25.68
		c3.02-5.84,7.06-11.07,10.01-16.95c2.31-4.64,5.84-8.67,7.16-13.77c2.44-9.81,7.77-18.66,9.4901-28.68
		c1.28-8.42,4.53-16.42,5.38-24.92c2.81-11.82,3.28-24.06,2.7599-36.15c-0.64-6.41-3.35-12.31-4.7599-18.53
		C566.62,55.89,565.15,53.55,564.72,50.85z"/>
	<path stroke="#000000" stroke-width="0.0938" d="M633.44,105.21c-0.14-2.51-0.8-5.08,0.19-7.51c3.09,2.88,3.99,7.1,5.52,10.86
		c1.59,7.05,1.44,14.37,2.95,21.43c0.73,2.68-0.06,5.38-0.42,8.05c-0.38,8.28-0.51,16.62-1.89,24.82
		c-1.48,11.67-3.52,23.49-8.81,34.12c-3.47,6.74-5.98,14.14-11.12,19.87c-2.46,3.22-5.17,6.24-7.56,9.5
		c-0.08,0.68-0.23,2.05-0.31,2.74c5.36-0.78,10.69-1.78,16.06-2.5c-4.41,7.47-9.19,14.9-15.82,20.63
		c-9.02,6.21-17.25,13.5-26.23,19.77c-6.21,3.21-12.17,6.98-17.58,11.39c-0.15,0.68-0.45,2.06-0.6,2.75
		c4.96,0.11,9.91,0.36,14.86,0.73c0.18,0.3,0.54,0.9,0.72,1.21c-5.79,4.35-11.07,9.54-17.72,12.62c-6.5,3.83-13.7,6.2-20.6,9.17
		c-6.75,2.64-14.07,2.57-21.15,3.5c-2.15,4.77,3.04,7.38,6.59,8.98c3.52,1.84,7.35-0.04,10.92-0.65c-0.1,0.77-0.3,2.31-0.4,3.08
		c-10.14,6.83-22.19,9.92-33.98,12.57c-9.05-0.33-18.1,0.52-27.14,0.97c-5.24,0.05-9.95,2.85-15.17,3.1
		c-5.06,0.8-10.81-0.11-15.12,3.21c-4.52,3.21-9.9,5.17-13.92,9.07c-3.41,3.61-7.18,6.87-10.16,10.87c-1.45,1.89-3.1,3.76-5.5,4.39
		c0.72-4.5,3.61-8.18,6.01-11.9c3.76-4.94,6.79-10.41,10.84-15.13c4.01-4.65,8.02-9.3,12.5-13.51c8.24-9.26,18.89-16.33,30.64-20.29
		c6.17-2.83,13.04-3.74,19.05-6.93c3.98-2.14,8.74-2.81,12.13-6c2.76-2.59,6.69-3.1,9.78-5.13c9.44-7.56,19.81-14.03,28.26-22.78
		c8.65-9.07,16.18-19.12,24.56-28.43c9.64-10.8,18.03-22.61,27.28-33.72c5.59-6.6,8.76-14.72,12.85-22.23
		c3.64-7.83,6.88-15.84,9.98-23.9C628.25,138,633.08,121.89,633.44,105.21z"/>
	<path stroke="#000000" stroke-width="0.0938" d="M81.94,124c1.03-2.11-0.17-5.97,2.98-6.24c0.01,4.61-2.05,9.46,0.39,13.8
		c1.62,11.95,3.09,23.98,5.21,35.89c2.49,9.61,3.76,19.7,8.39,28.62c4.02,7.61,7.75,15.4,12.24,22.74
		c4.19,5.3,6.95,11.56,11.34,16.71c3.72,4.59,8,8.66,12.16,12.84c9.61,8.97,19.62,17.94,31.9,23.09c5.71,2.25,11.19,5.03,16.95,7.13
		c6.08,1.83,12.34,2.93,18.5,4.43c10.01,2.68,20.67,3.77,29.69,9.29c10.75,7.19,20.01,18.62,20.2,32.1
		c-2.37,0.51-2.79-2.12-3.67-3.68c-1.7-4.24-4.7-7.83-8.12-10.79c-4.99-3.12-9.96-6.55-15.74-8.03c-5.34-1.6-10.95-0.45-16.41-1.07
		c-10.87-1.18-21.3,2.86-31.97,4.13c-5.6,0.67-11.05,2.4-16.71,2.46c2.03-1.97,3.53-4.34,2.35-7.21c-3.19,0.01-6.33,1.13-9.52,0.45
		c-3.83-0.21-6.93-2.67-9.7-5.08c-4.11-3.63-9.5-5.18-14.21-7.82c-4.54-2.67-7.57-7.07-11.09-10.85
		c-4.49-4.68-9.24-9.14-13.27-14.22c5.1,2.12,10.33,4.05,15.82,4.93c0.08-2.54-1.94-4.12-3.54-5.76
		c-4.78-4.91-10.47-8.81-15.16-13.8c-6.79-7.51-12.68-15.88-16.98-25.05c-4.59-11.8-8.42-24.16-8.63-36.93
		c-0.73-12.7-0.93-25.49,0.93-38.12C76.7,139.67,79.4,131.82,81.94,124z"/>
	<path stroke="#000000" stroke-width="0.0938" d="M653.1,194c1.83-3.75,2.02-8.24,4.55-11.62c3.12,6.41,2.7,13.69,2.79,20.62
		c0.24,4.39-1.5,8.52-1.79,12.86c-0.71,7.12-3.83,13.8-3.8,21.01c-1.24,5.16-4.89,9.28-6.79,14.19c-2.79,4.83-3.83,10.46-6.8,15.18
		c-7.09,9.28-12.1,20.19-20.9,28.1c-4.69,4.31-9.1,8.92-13.45,13.56c-1.9,1.98-4.85,3.53-4.73,6.68c2.6,0.97,5.37,0.77,8.1,0.86
		c-2.59,4.65-7.75,6.78-11.32,10.52c-4.81,5.24-11.41,8.16-17.56,11.49c-11.76,5.52-23.72,11.02-36.55,13.57
		c0.11,0.67,0.32,2.03,0.4301,2.7c3.53,1.1,7.31,0.94,10.81,2.11c-3.2,3.04-7.51,4.21-11.45,5.89c-8.73,3.65-18.07,5.73-27.53,5.93
		c-8.02,1.2-16.06-0.06-24.09,0.79c-8.97,0.75-18,1.87-26.48,5.08c-6.75,2.54-14.92,3.28-19.74,9.25c-0.92,1.46-2.68,1.52-4.22,1.51
		c-0.34-3.99,2.21-7.24,4.42-10.27c6.05-8.8,15.53-14.28,24.62-19.42c6.31-3.49,13.42-5.11,19.91-8.21
		c8.37-3.97,17.61-5.51,26.38-8.36c6.11-2.56,12.66-3.82,18.78-6.37c9.91-4.43,18.61-11.11,26.64-18.34
		c5.56-4.43,11.1-8.88,16.71-13.26c3.05-2.32,4.78-5.85,7.4901-8.51c4.58-5.41,10.31-9.7,14.79-15.21
		c5.46-6.83,12.27-12.51,17.2-19.8c3.73-5.54,8.62-10.2,12.1-15.91c6.74-8.4,10.36-18.71,14.59-28.49
		C648.91,206.24,650.22,199.82,653.1,194z"/>
	<path stroke="#000000" stroke-width="0.0938" d="M52.53,242.48c4.89,9.66,9.58,19.49,15.18,28.79c4.33,6.23,9.6,11.71,15,17.01
		c2.82,3.28,6.68,5.35,10.12,7.89c7.37,5.5,15.76,9.41,24.27,12.8c9.83,5.14,20.86,7.29,31.78,8.61c6.36,0.64,12.76,0.4,19.12,0.96
		c9.32-0.59,18.67-1.29,28.01-0.71c7.34,0.63,13.51,4.86,19.73,8.39c1.3,0.58,2.02,1.83,2.83,2.93c-3.22-0.83-6.15-2.69-9.53-2.87
		c-6.35-0.09-12.7-0.99-19.05-0.36c-3.53,0.52-6.89,1.79-10.22,3c-13.7,5.87-28.16,9.79-42.79,12.48c-2.38,0.24-4.81,0.56-7.17,0
		c-3.72-0.79-7.63,0.17-11.26-1.14c0.67-1.54,1.39-3.05,2.11-4.57c-8.29-2.21-17.07-3.37-24.6-7.75c-3.97-2.51-8.6-3.77-12.37-6.63
		c-11.36-7.52-23.09-16.32-28.14-29.48c3.5,1.17,6.79,3.06,10.52,3.44c-0.99-6.79-5.38-12.46-7.4-18.93
		c-2.18-7.89-4.16-15.83-6.41-23.69C51.2,249.33,52.16,245.83,52.53,242.48z"/>
	<path stroke="#000000" stroke-width="0.0938" d="M654.77,250.93c0.12-1.38,1.35-2.14,2.21-3.06c2.59,4.08,2.96,9.17,1.87,13.79
		c-1.58,6.57,0.25,13.42-1.37,19.97c-3.39,12.31-7.29,24.5-12.71,36.1c-1.57,5.07-4.58,9.47-6.83,14.24
		c-2.89,5.9-7.7,10.61-10.51,16.55c-2.48,4.04-6.23,7.09-8.98,10.93c-3.14,4.46-7.42,7.91-10.89,12.09
		c-6.11,7.23-15.35,10.37-23.53,14.5c-7.39,5.07-16.77,5-24.61,9.06c0.39,0.49,1.18,1.48,1.57,1.97c5.74,1.28,11.62,1.63,17.49,1.51
		c-0.83,0.79-1.57,1.74-2.62,2.25c-11.7,5-23.9,10.71-36.95,9.78c-8.0099-1.27-15.96-3.14-23.61-5.84
		c-5.32-1.18-10.61-2.49-15.78-4.24c-6.3-1.98-12.98-2.55-19.56-2.43c-5.9,0.37-10.69,4.25-14.93,8.01
		c-1.54,1.5-3.21-0.32-4.41-1.26c2.69-3.71,6.58-6.44,10.42-8.86c9.67-7.81,20.22-15,32.23-18.64c5.21-0.86,10.37-2.44,15.71-2.18
		c10.67-0.2,21.42,1.55,32.01-0.4c8.13-0.49,15.23-4.74,22.19-8.53c2.51-1.42,4.45-3.59,6.34-5.73
		c6.86-7.55,15.85-12.73,22.92-20.05c5.51-6.86,11.2-13.62,16.02-21.01c3.06-4.54,7.15-8.32,9.83-13.12
		c4-7.4,8.4901-14.56,11.56-22.42c3.1801-5.31,5.2401-11.21,8.66-16.39C651.16,262.23,653.59,256.77,654.77,250.93z"/>
	<path stroke="#000000" stroke-width="0.0938" d="M43.8,302.34c2.76,1.26,3.69,4.29,5.23,6.65c1.72,3.15,4.82,5.16,6.89,8.05
		c5.11,7.27,12.78,12.04,19.91,17.08c8.75,5.3,17.51,10.84,27.38,13.84c8.48,3.46,17.64,5.27,26.82,4.75
		c7.66-0.69,15.46-0.18,23.01-1.91c8.85-1.86,17.9-2.67,26.92-2.97c3.14,0.5,6.39,0.7,9.41,1.78c2.89,1.65,5.82,3.77,7.21,6.91
		c-7.48,0.43-15.41,0.98-21.91,5.09c-4.1,2.59-8.38,4.89-12.36,7.67c-7.34,3.87-13.42,9.89-21.3,12.76
		c-4.87,1.59-9.38,4.05-14.13,5.91c-7.72,3.19-13.24,10.21-21.32,12.67c-4.26,1.2-8,3.72-10.89,7.05c-3.17,2.76-5.48,6.75-9.51,8.36
		c0.17-3.29,1.55-6.32,2.27-9.5c1.23-5.41,5.46-9.33,7.92-14.16c4.86-6.44,11.18-11.67,17.44-16.7c-0.04-0.56-0.13-1.68-0.18-2.24
		c-12.57-3.8-25.22-8.31-36.05-15.91c-6.84-3.02-13.33-6.8-19.56-10.92c1.92-0.97,3.97-1.64,5.95-2.46
		c-1.58-4.99-6.09-8.15-8.4-12.73C49.58,322.35,44.2,312.92,43.8,302.34z"/>
	<path stroke="#000000" stroke-width="0.0938" d="M231,324.02c1.9-1.67,4.14-3.83,6.9-3.25c5.06,1.35,9.82,4.06,13.44,7.88
		c3.57,3.66,7.91,6.99,9.4,12.13c-5.34-2.71-10.56-6.42-16.82-6.3c-6.15,0.12-11.58-3.48-17.75-3.18
		C226.23,328.12,229.02,326.14,231,324.02z"/>
	<path stroke="#000000" stroke-width="0.0938" d="M203.52,351.02c5.91-4.41,12.45-7.93,18.56-12.07c6.76,3.57,13.78,6.67,20.2,10.85
		c3.49,2.28,8.35,2.5,10.67,6.36c-2.52,0.51-5.15,1.49-7.71,0.64c-4.71-1.3-9.61-1.46-14.38-2.44
		C221.78,353.72,211.9,355.62,203.52,351.02z"/>
	<path stroke="#000000" stroke-width="0.0938" d="M203.39,358.25c9.9-0.21,18.34,5.77,25.95,11.4c0.74,0.73,1.43,1.51,2.06,2.35
		c-3.33,1.27-6.91,0.2-10.34,0.83c-7.48-0.07-14.95,0.97-22.15,2.94c-4.56,0.53-9.15,1.01-13.74,0.7c-0.23-0.35-0.68-1.07-0.9-1.42
		c2.03-3.76,5.52-6.35,8.21-9.59C195.36,362.1,199.26,359.76,203.39,358.25z"/>
	<path stroke="#000000" stroke-width="0.0938" d="M423.93,371.88c4.6-1.23,9.1-2.85,13.23-5.24c0.64,1.63,0.71,3.48-0.83,4.64
		c-3.88,3.54-7.33,7.73-12.07,10.18c0.04,0.52,0.11,1.55,0.15,2.07c3.32-0.12,6.8-0.2,9.93,1.12c2.78,1.48,5.41,3.24,7.97,5.08
		c3.1,2.27,4.59,6.03,7.49,8.5c2.48,1.83,5.76,1.04,8.63,1.45c0.08,0.54,0.24,1.64,0.32,2.18c-2.56,2.43-6.25,2.44-9.53,2.85
		c-4.83-0.88-9.09-4.54-14.17-3.8c-6.42,0.89-13.07-0.58-19.28,1.74c-8.85,1.89-15.57,8.23-22.19,13.96
		c-2.52,2.14-4.62,4.88-7.74,6.22c-4.12,1.79-5.76,6.66-9.95,8.37c1.91-5.78,4.8-11.26,7.75-16.59c7.05-9.42,15.51-17.97,25.4-24.41
		c0.25-0.51,0.76-1.52,1.02-2.02c-4.42-0.27-8.45,1.81-12.35,3.58c-8.23,4.05-16.8,7.96-23.32,14.6c-5,2.86-8.13,8.13-9.54,13.61
		c-0.26,1.24-0.99,2.29-1.68,3.34c0.98-8.78,4.62-16.9,8.26-24.85c2.88-5.3,6.83-9.91,10.03-15c2.46-3.83,6.04-6.72,9.69-9.35
		c5.38-4.32,13.11-3.57,19.23-1.39C414.83,374.48,419.46,372.43,423.93,371.88z"/>
	<path stroke="#000000" stroke-width="0.0938" d="M209.94,385.82c5.87-0.67,11.7-3.8,17.66-1.96c-0.62,1.22-0.83,2.88-2.24,3.5
		c-4.14,2.48-8.75,4.35-12.2,7.83c-4.78,3.93-9.9,7.43-14.93,11.04c-3.76,2.88-6.8,6.55-10.47,9.53c-3.67,2.97-6.04,7.36-10.2,9.75
		c-2.05,1.24-3.93,2.74-5.95,4.02c0.21-5.19,1.33-10.28,1.93-15.42c0.86-5.06,1.75-10.42,5.01-14.56c2.25-2.51,5.3-4.1,8.16-5.81
		C194.01,390.01,201.74,386.86,209.94,385.82z"/>
	<path stroke="#000000" stroke-width="0.0938" d="M157.37,388.41c4.56-0.87,8.86-3.25,13.6-2.92c4.14,0.1,8.25,0.47,12.39,0.3
		c-1.82,2.82-5.05,4.12-7.78,5.87c-2.67,1.75-6.24,1.12-8.81,3.03c-9.94,8.03-20.58,15.35-29.28,24.79
		c-2.86,3.55-6.51,6.53-10.81,8.14c-4.96,1.78-10.16,2.88-14.95,5.11c-7.08,3.98-12.54,10.13-18.61,15.41
		c-2.27,1.74-4.94,2.9-7.67,3.7c0.6-1.51,1.24-3,2.12-4.36c5.52-8.14,10.34-16.75,16.33-24.56c7.97-8.82,17.27-16.37,27.21-22.87
		C139.29,395.03,147.94,390.53,157.37,388.41z"/>
	<path stroke="#000000" stroke-width="0.0938" d="M584.29,411.27c6.03-2.77,10.08-8.53,16.19-11.06
		c-2.97,7.32-7.46,13.92-11.76,20.51c-6.1899,7.46-12.81,14.71-20.87,20.2c-4.3,2.58-10.31,1.31-13.97,4.94
		c4.41,4.98,10.74,7.39,15.88,11.39c0.48,1.8-1.64,2.16-2.94,2.34c-6.17,0.4-12.33-0.43-18.42-1.36c-7.19-1.2-13.76-4.48-20.59-6.86
		c-8.66-3.47-16.06-9.88-25.4-11.63c-6.51-1.14-12.99-2.5-19.52-3.54c-7.33-1.18-14.94,0.73-22.16-1.14
		c3.68-2.43,7.46-4.7,11.09-7.22c4.49-3.1,9.57-5.14,14.3-7.82c9.79-4.23,20.37-6.17,30.88-7.57c7.88,1.5,15.28,4.79,23.11,6.5
		c7.32,2.63,15.29,3.91,22.94,1.89C571.07,420.21,577.97,415.89,584.29,411.27z"/>
	<path stroke="#000000" stroke-width="0.0938" d="M170.13,402.87c2.96,2.06,0.52,5.29-0.1,7.92c-1.31,3.13-0.03,7.1-2.54,9.75
		c-3.67,4.3-7.85,8.18-11.08,12.84c-4.39,6.91-9.28,13.74-11.39,21.77c-0.89,5.98-2.38,11.86-4.12,17.65
		c-2.95,6.79-7.56,12.69-10.68,19.41c-4.05,7.18-5.89,15.32-7.5,23.33c-0.43,0.44-1.28,1.32-1.71,1.76
		c-3.83-11.32-3.68-23.41-3.24-35.2c0.98-3.3,2.04-6.63,1.66-10.12c-0.39-4.37,0.85-8.63,0.9-12.97c-0.15-3.95,2.32-7.28,4.06-10.62
		c6.62-10.52,16.73-18.07,26.38-25.6c5.11-3.1,9.85-6.77,14.06-11C167.36,409.31,168.09,405.68,170.13,402.87z"/>
	<path stroke="#000000" stroke-width="0.0938" d="M410.67,414.68c7.31-3.75,14.7-8.69,23.24-8.42c4.12,0.89,8.47,1.49,12.17,3.64
		c3.57,1.95,5.03,6.55,9.16,7.62c5.23,1.1,10.57,0,15.66-1.35c-3.01,3.22-6.06,6.44-9.6,9.11c-3.54,3.05-7.22,7.01-12.27,6.95
		c-2.7,0-5.34,0.74-8.03,0.7c-8.41-0.78-16.58-3.65-25.09-2.92c-8.57,0.84-17.63,2.76-24.24,8.68c-2.55,1.86-4.53,4.67-7.73,5.45
		c0.43-1.77,1.05-3.51,2.29-4.88c3.45-4.01,5.58-8.97,9.26-12.8C399.94,421.81,405.39,418.3,410.67,414.68z"/>
	<path stroke="#000000" stroke-width="0.0938" d="M207.98,414.12c2.78-0.9,5.29-2.82,8.33-2.66c-1.05,2.97-2.96,5.45-5.01,7.79
		c-1.74,1.91-0.81,4.81-2.1,6.96c-3.59,6.54-8.92,11.96-12.43,18.57c-2.28,4.5-6.44,7.73-8.63,12.25
		c-1.03,4.87-0.77,9.93-1.11,14.89c-3.82-3.74-4.29-9.47-5.93-14.31c-1.45-6-4.94-12.8-1.21-18.66c3.7-5.78,8.16-11.2,13.32-15.74
		C198.04,420.04,202.39,415.92,207.98,414.12z"/>
	<path stroke="#000000" stroke-width="0.0938" d="M311.67,413.57c1.53,0.07,2.93,0.78,3.38,2.35c4.06,9.09,7.28,18.61,8.73,28.49
		c2.07,6.32,2.41,12.98,3.49,19.49c0.42,0.06,1.25,0.2,1.67,0.27c6.18-7.7,12.58-16.8,11.83-27.17c-0.02-1.91,0-3.82,0.07-5.72
		c0.6,0.11,1.8,0.33,2.4,0.43c0.99,4.33,1.62,8.74,2.93,12.99c0.77,3.05,1.9,6.11,1.79,9.31c-0.9,10.25-4.67,20.07-10.21,28.7
		c-3.64,6.21-9.13,11.07-12.89,17.2c-5.11,8.05-13.97,12.73-19.71,20.21c-2.26,6.37-4.56,12.88-8.67,18.36
		c-2.17,2.72-2.28,6.64-4.99,8.99c-5.05,4.97-11.89,7.72-18.63,9.51c-5.89,0.48-11.83-0.07-17.73,0.24
		c-3.51,0.25-5.88,3.21-9.06,4.33c1.27-3.33,3.39-6.22,5.23-9.25c1.55-3.15,4.61-5.46,7.8-6.7c8.34-0.42,16.53-2.8,23.96-6.58
		c2.6-1.58,5.64-3.19,6.53-6.34c-4.35,0.43-7.6,3.61-11.3,5.58c-6.19,3.83-13.47,5.05-20.44,6.65c-5.27,0.03-11.57,3.06-16.07-0.77
		c5.33-4.17,11.84-6.26,17.46-9.94c3.39-2.24,7.31-3.42,11.02-4.99c7.17-3.9901,13.6-9.13,20.61-13.36
		c4.59-3.72,7.24-9.34,9.4-14.72c5.18-7.97,5.92-17.7,8.22-26.69c1.77-6.61,2.51-13.43,2.93-20.22c2.03-4.89,0.8-10.18,1.82-15.22
		c0.21-6.52,0.53-13.14-0.93-19.55C311.85,417.52,311.56,415.55,311.67,413.57z"/>
	<path stroke="#000000" stroke-width="0.0938" d="M355.05,431.96c-0.7-1.52-1.8-4.36,0.89-4.34c3.64,2.93,5.57,7.36,8.63,10.83
		c2.2,3.11,4.88,6.07,6.14,9.71c0.25,3.22,0.21,6.46,0.03,9.69c-0.51,4.01-3.89,6.66-6.3,9.61c-1.69,1.69-2.71,3.9-4.28,5.68
		c-3.18,1.65-6.66,2.75-10.15,3.58c0.93-3.08,4.17-4.64,5.13-7.67c3.01-6.96,3.55-14.62,3.93-22.1
		C358.91,441.71,357.47,436.59,355.05,431.96z"/>
	<path stroke="#000000" stroke-width="0.0938" d="M215.9,440.87c3.04-1.56,6.4-2.38,9.75-2.99c-0.76,3.71-5.01,4.9-6.54,8.2
		c-5.79,10.55-9.63,22.21-11.07,34.18c-1.76,6.28-0.41,13.35-3.98,19.07c-4.79-5.94-8.78-12.63-11.63-19.71
		c-0.61-3.87-0.18-7.83-0.27-11.72c-0.14-4.67,3.23-8.33,6.26-11.47C204.02,451.01,209.14,444.91,215.9,440.87z"/>
	<path stroke="#000000" stroke-width="0.0938" d="M419.12,439.36c3.24-0.24,6.44-1.14,9.7-1.06c4.99,0.89,10.02,1.76,14.91,3.16
		c7.11,2.68,13.66,7.62,17.33,14.38c2.1,4.97,4.24,10.13,4.41,15.6c-2.94-1.67-5.43-4.11-8.62-5.31c-4.17-0.66-8.54,1.25-12.58-0.5
		c-5.69-1.71-8.78-7.26-13.68-10.22c-6.44-4.84-14.72-6.44-22.63-6.02c-2.77,0.5-5.19,2.08-7.92,2.71
		c-2.23,0.17-4.46,0.21-6.69,0.22c0.95-1.93,2.05-3.91,4.03-4.95C404.09,443.49,411.32,440.16,419.12,439.36z"/>
	<path stroke="#000000" stroke-width="0.0938" d="M226.32,455.3c2.89-4.32,5.26-9.43,9.81-12.26c-1.05,4.28-1.43,8.64-1.54,13.03
		c-1.3,7.86-0.19,15.84-1.1,23.73c0.94,5.8,4.93,10.54,6.6,16.05c-3.75-0.41-7.13-2.22-10.79-3.01c-3.62-0.8-7.13-2.74-9.27-5.81
		c-1.7-3.84-1.06-8.29,0.03-12.22C221.88,468.25,222.19,460.99,226.32,455.3z"/>
	<path stroke="#000000" stroke-width="0.0938" d="M464.71,444.29c4.78-0.89,9.49,0.72,14.27,0.58c6.62,0.54,13.32,0.79,19.82,2.25
		c6.16,2.4,12.34,4.74,18.22,7.82c7.2,2.56,12.38,8.43,18.95,12.1c7.71,5.84,17.53,7.94,27.05,7.93c2.41-0.08,4.72,0.69,7.07,1.17
		c4.0699,0.45,8.18-0.17,12.27,0.09c-2.46,4.3-7.18,6.36-11.22,8.86c-5.89,3.67-13.04,3.97-19.75,4.6
		c-0.82,3.68,1.39,7.01,2.27,10.46c1.71,4.35,0.8701,9.09,1.14,13.65c-1.28,8.43-0.65,16.93-0.45,25.39
		c-5.24-4.64-5.09-12.41-8.06-18.4c-4.44-7.99-8.16-16.74-15.1-22.97c-4.66-3.65-9.34-7.29-13.68-11.3
		c-4.61-6.31-10.1-12.48-17.48-15.54c-3.79-1.55-7.52-3.22-11.3-4.75c-6.24-2.57-11.29-7.31-15.46-12.51
		C470.57,450.44,466.99,447.92,464.71,444.29z"/>
	<path stroke="#000000" stroke-width="0.0938" d="M161.59,452.54c1.52-2.84,4.21-4.73,6.77-6.55c0.43,1.35,0.32,2.77-0.44,3.98
		c-4.78,8.47-6.72,18.11-9.58,27.31c-2.2,9.76-5.64,19.43-5.35,29.57c-1.08,7.01-0.55,14.11-1.18,21.15
		c0.45,4.81,0.53,9.66,0.25,14.49c-6.61-7.21-11.84-15.55-16.59-24.06c-3.01-5.34-1.43-11.66-0.42-17.32
		c1.2-4.02,2.89-7.89,4.08-11.91C144.76,475.91,154.29,464.87,161.59,452.54z"/>
	<path stroke="#000000" stroke-width="0.0938" d="M245.21,463.23c0.51-4.74,0.87-9.77,3.41-13.93c3.06,4.73,6.14,9.5,8.17,14.79
		c-1.62,1.95-3.7,3.71-4.37,6.26c-0.42,3.97,0.16,7.96,0.11,11.95C247.49,477.48,244.41,470.26,245.21,463.23z"/>
	<path stroke="#000000" stroke-width="0.0938" d="M376.22,476.39c6.68-3.73,10.62-10.75,13.95-17.37c0.33,0.47,0.98,1.42,1.31,1.9
		c-1.73,4.86-1.88,10.34-4.91,14.66c-3.11,4.81-5.6,10.16-9.92,14.05c-3.06,2.52-6.42,4.9-10.38,5.7
		c-10.12,3.3-21.38,2.81-30.81,8.16c-9.58,5.25-15.59,14.82-20.96,23.98c-0.66,0.98-1.57,1.69-2.72,2.1201
		c0.29-3.31,2.27-6.06,4.22-8.6201c2.27-2.86,4.02-6.08,5.83-9.25c1.99-3.48,5.43-5.85,7.41-9.34c4.26-8.1,11.33-14.37,19.04-19.11
		C357,478.87,367.1,479.45,376.22,476.39z"/>
	<path stroke="#000000" stroke-width="0.0938" d="M405.08,461.09c1.75-1.21,3.79-1.77,5.91-1.46c14.01,1.61,28.96,5.83,38.49,16.91
		c3.53,5.17,7.19,10.88,7.42,17.33c-0.85,14.23-8.96,26.67-17.8,37.36c-0.76,1.25-1.72,1.43-2.89,0.54
		c-0.42-2.86,2.08-5.05,2.64-7.75c2.42-8.5,1.1-17.59-1.02-26.03c-1.46-8.38-5.5-16.31-11.5-22.33c-2.47-2.83-4.22-6.5-7.7-8.24
		c-4.28-2.04-8.8-4.03-13.64-3.87C405.01,462.94,405.06,461.7,405.08,461.09z"/>
	<path stroke="#000000" stroke-width="0.0938" d="M410.39,478.33c11.42,3.42,17.3,14.84,21.19,25.21
		c2.36,5.91,0.76,12.32-0.82,18.21c-1.71,5.92-5.8,10.69-10.08,14.95c-3.12,3.03-7.11,4.9-10.61,7.43
		c-1.95,1.42-4.14,2.48-6.49,3.02c-0.37-4.31,4.24-6.35,5.6-10.03c2.64-4.35,2.2-10.04-1.29-13.76c8.52-8.75,9.25-21.98,7.43-33.39
		C415.46,485.47,411.79,482.32,410.39,478.33z"/>
	<path stroke="#000000" stroke-width="0.0938" d="M392.42,487.41c2.09-2.38,1.99-7.09,5.82-7.42c0.37,4.47-2.57,8.13-4.12,12.09
		c-2.18,5.26-5.01,10.21-8,15.06c-2.57,3.71-5.56,7.37-9.76,9.29c-4.69,2.71-10.24,1.99-15.4,2.7c-9.2,1.13-18.83-1.25-27.72,2.08
		c-3.89,1.34-6.19,4.93-9.3,7.38c-2.49-0.19-2.14-3.16-0.89-4.56c3.71-4.3101,8.44-7.55,12.61-11.3701
		c3.96-3.72,8.97-5.98,13.91-8.11c4.61-1.62,9.48-3.27,14.44-2.49c5.84,0.45,12.4,1.03,17.41-2.63
		C386.37,496.79,388.89,491.53,392.42,487.41z"/>
	<path stroke="#000000" stroke-width="0.0938" d="M469.64,481.43c6.82,0.62,13.91-0.65,20.54,1.42
		c16.17,7.25,30.14,19.53,39.09,34.85c4.67,8.1,5.4,17.58,7.27,26.55c2.63,15.11,3.46,31.5-3.67,45.56c-0.6,1.28-1.77,2.1-2.92,2.86
		c-0.1-7.46-1.5-14.79-2.27-22.18c-0.84-5.61-3.15-10.87-5.79-15.83c-0.48-0.06-1.44-0.18-1.92-0.23
		c-1.99,6.45-4.5699,12.78-8.51,18.31c0.71-7.48-0.06-14.95-0.2-22.44c-1.89-12.14-6.54-23.66-11.88-34.66
		c-4.78-11.03-10.83-22.03-20.44-29.58C476.1,483.98,471.76,484.36,469.64,481.43z"/>
	<path stroke="#000000" stroke-width="0.0938" d="M400.04,493.95c-0.15-1.83,0.98-3.33,1.86-4.81c1.33,0.99,2.71,2.24,2.54,4.08
		c-0.04,4.62,1.29,9.13,0.98,13.75c-0.26,4.41-0.47,8.86-1.46,13.19c-1.18,5.13-1.54,10.48-3.53,15.41
		c-2.66,6.57-4.35,13.62-8.26,19.63c-1.46,2.43-3.07,4.92-5.66,6.31c-0.36-1.9-0.66-3.79-0.97-5.67
		c-5.73,0.03-11.48,0.8199-17.23,0.31c0.35-3.1,3.58-4.48,4.8-7.15c1.48-3.22,0.98-6.88,1.69-10.27c2.99-3.72,7.52-5.76,11.12-8.82
		c4.71-4.06,9.55-8.65,11.13-14.9C399.73,508.3,399.68,501.04,400.04,493.95z"/>
	<path stroke="#000000" stroke-width="0.0938" d="M181.74,490.55c3.49,1.57,6.02,4.57,7.8,7.89c1.63,3.24,4.75,5.3,6.73,8.28
		c2.65,3.95,7.49,5.51,10.42,9.22c-1.35,2.24-3.29,4.06-5.81,4.89c-4.52,1.67-8.63,4.16-12.82,6.49c-4.06-7.07-5.8-15.2-5.92-23.29
		C181.99,499.53,181.07,495.03,181.74,490.55z"/>
	<path stroke="#000000" stroke-width="0.0938" d="M470.7,494.91c5.4,1.99,8.73,7.07,11.72,11.7c3.29,6.77,8.34,12.7,9.94,20.21
		c6.26,14.98,9.19,31.36,7.98,47.58c-0.56,6.56-2.8,12.7599-5.01,18.91c-2.67,7.06-7.39,13.07-12.26,18.74
		c-3.9,4.15-6.82,9.1-10.68,13.29c-1,1.14-2.5,1.6-3.81,2.25c0.39-6.31,3.82-12.1201,4.15-18.51c0.27-6.7-0.5-13.39,0.03-20.08
		c0.3-3.22-1.2-6.61,0.38-9.65c3.1-7.28,4.66-15.06,6.61-22.69c2.71-10.92,3.27-22.24,2.76-33.43c-1.33-7.09-5.66-13.07-8.15-19.73
		C473.25,500.58,471.33,498,470.7,494.91z"/>
	<path stroke="#000000" stroke-width="0.0938" d="M209.69,503.04c0.5-2.89,0.76-6.27,3.38-8.11c1.69,3.82,0.96,8.06,1.1,12.11
		c0.1,1.72-0.41,3.38-1.03,4.97C210.27,510.06,209.43,506.3,209.69,503.04z"/>
	<path stroke="#000000" stroke-width="0.0938" d="M346.45,523.5c3.02-1.23,6.76-0.38,8.67,2.33c4.45,5.96,6.5,13.36,7.78,20.58
		c-5.15-3.79-11.27-7.09-17.88-6.36c-9.17-0.38-18.32,1.05-27.04,3.85c-3.59,1.22-7.4,1.75-11.18,1.6
		c-0.15-0.59-0.43-1.76-0.58-2.35c4.43-4.6801,10.64-6.81,16.29-9.57C330.53,530.31,338.26,526.32,346.45,523.5z"/>
	<path stroke="#000000" stroke-width="0.0938" d="M459.65,532.77c3.3,3.63,3.25,9.12,4.89,13.61c2.1,5.25,2.65,10.92,3.05,16.52
		c1.01,18.49-3.26,37.95-15.03,52.63c-3.47,3.2-6.84,6.5-10.06,9.95c-0.88,1.17-2.41,1.16-3.69,1.49
		c2.02-5.6899,5.31-11.15,5.68-17.28c-3.07,0.81-5.23,3.22-7.48,5.28c-4.47,3.91-8.92,7.89-13.89,11.17
		c-2.96,2.48-6.36,4.46-10.17,5.28c2.92-5.64,7.88-9.84,11.19-15.23c5.42-8.92,11.34-17.53,16.46-26.63
		c4.09-8.55,9.11-16.71,12.08-25.76c2-6.42,4.26-12.77,5.86-19.3C459.59,540.66,459.05,536.66,459.65,532.77z"/>
	<path stroke="#000000" stroke-width="0.0938" d="M215.9,558.89c3.36-3.29,6.31-7.53,11.34-8.27c-1.45,3.55-4.73,5.7-7.57,8.04
		c-4.36,3.98-8.74,7.96-12.66,12.39c-2.36,2.76-5.92,4.02-9.29,5.06c0.28-1.61,0.68-3.29,2.21-4.16
		C205.45,567.84,210.72,563.42,215.9,558.89z"/>
	<path stroke="#000000" stroke-width="0.0938" d="M327.91,554.63c0.98-1.59,2.02-3.45,4.03-3.85c1.85,0.42,3.62,1.17,5.34,1.98
		c8.37,4.52,17.89,8.59,22.68,17.36c1.91,4.68,3.34,9.73,2.73,14.84c-0.48,3.65-0.3,7.34-0.48,11.0099
		c-0.81,3.15-3.51,5.3101-5.48,7.76c-3.66,3.87-6.26,8.66-9.99,12.44c-0.58,0.1-1.73,0.3-2.31,0.4c2.52-11.08,2.19-22.61,0.4-33.77
		c-1.1-7.35-4.15-14.3-8.15-20.51C334.56,558.92,331.28,556.61,327.91,554.63z"/>
	<path stroke="#000000" stroke-width="0.0938" d="M424.13,556.06c1.06-2.5,3.26-4.37,5.84-5.14c1.09,6.05,3.83,11.86,3.32,18.12
		c-0.04,7.61-3.31,14.65-5.44,21.82c-3.86,8.42-6.32,17.58-11.72,25.24c-2.28,3.25-3.62,7.92-7.79,9.21
		c-1.65-5.4,1.79-10.45,1.75-15.84c-3.79,0.42-5.27,4.45-8.05,6.53c-5.3,4.16-10.81,8.21-16.92,11.13
		c-8.14,3.14-17.12,1.74-25.62,1.59c2.05-2.78,5.29-4.18,7.93-6.29c3.17-2.64,7.48-3.58,10.09-6.92c3.87-4.49,9.28-7.37,12.96-12
		c3.12-6.02,9.12-9.57,13.37-14.64C412.54,579.3,419.66,568.21,424.13,556.06z"/>
	<path stroke="#000000" stroke-width="0.0938" d="M297.32,554.86c6.22-0.38,11.19,3.99,16.74,6.07
		c12.04,6.65,21.78,17.67,26.38,30.69c3.22,8.65,2.19,18.08,2.03,27.11c-1.6,13.43-4.37,26.81-9.51,39.36
		c-1.26,4.05-3.1,7.98-3.55,12.24c7.3-3.31,14.27-8.45,22.67-8.16c6.17,0.19,10.85,4.93,13.87,9.89c2.06,3.94,3.89,8.67,2.07,13.06
		c-1.62,5.11-0.69,11.95-5.92,15.13c-1.5-1.36-2.87-2.9-4.59-3.98c-2.08-0.79-4.31-1.1-6.39-1.89c0.88-1.56,1.78-3.1,2.66-4.65
		c-2.36-2.83-6.42-1.82-9.62-1.53c-4.16,0.81-4.87,5.6-5.82,9.01c-0.77,5.07,0.2,10.2599-0.67,15.34
		c-4.64-4.53-8.12-10.1-11.86-15.37c-2.48-3.75-5.45-8.34-3.68-12.98c1.2-4.85,4.31-8.87,6.84-13.07c-1.15-0.68-2.3-1.35-3.43-2.04
		c1.32-5.33,4.39-10.78,2.48-16.36c-7.13,5.38-14.15,11.36-22.65,14.49c-6.32,1.51-12.61,3.16-18.66,5.54
		c-1.7,0.9-3.4,0.02-4.26-1.54c7.2-3.65,13.81-8.52,19.53-14.21c4.87-4.49,10-8.88,13.41-14.64c3.61-4.91,7.42-9.9,9.1-15.87
		c2.45-7.27,1.85-15.01,1.91-22.55c-0.71-7.72-1.9-15.6-5.99-22.35c-4.73-7.4-9.42-15.1-16.3-20.74
		C301.94,558.75,299.18,557.29,297.32,554.86z"/>
	<path stroke="#000000" stroke-width="0.0938" d="M225.7,563.4c0.34-1.9,0.56-5.15,3.36-4.3C228.31,560.8,227.2,562.29,225.7,563.4z
		"/>
	<path stroke="#000000" stroke-width="0.0938" d="M242.05,566.61c4.53,0.37,8.78-1.53,13.24-1.93c-0.09,2.63-2.95,2.78-4.7,3.94
		c-2.38,1.3-4.56,3.97-7.56,3.16c-3.62-0.7401-7.29-0.67-10.96-0.54c-0.48-0.27-1.45-0.81-1.93-1.09
		C232.78,566.03,237.8,566.41,242.05,566.61z"/>
	<path stroke="#000000" stroke-width="0.0938" d="M374.51,566.8c5.04-0.88,10.27,0.25,14.41,3.25c1.79,1.54,3.73,3.89,2.7,6.4
		c-1.85,8.15-8.99,13.37-15.57,17.7c-1.18,0.92-2.72,0.61-4.09,0.68c0.6-3.78,3.61-6.5,4.81-10.04c0.64-3.24,0.32-6.58,0.35-9.86
		C377.16,571.99,375.32,569.52,374.51,566.8z"/>
	<path stroke="#000000" stroke-width="0.0938" d="M268.19,567.93c3.19-0.96,6.52-0.19,9.76-0.04c3.02,0.17,6.24-0.21,9.02,1.26
		c6.43,3.19,12.46,7.24,17.66,12.2c5.56,5.15,11.54,10.32,14.6,17.46c3.31,7.66,6.06,16.4,3.35,24.68
		c-2.3,5.91-5.07,11.9-9.94,16.15c-5.13,4.32-10.3,8.74-16.45,11.54c-7.38,4.42-15.6,7.04-23.3,10.8
		c-6.67,2.64-13.67,6.52-21.07,4.66c-2.47,5.14-5.69,10.48-4.81,16.43c0.08,6.52,4.11,12.02,8.06,16.87
		c5.6,5.27,13.67,7.28,18.65,13.32c3.2,4.63,4.44,10.27,5.22,15.76c1.03,5.2-1.01,10.29-1.74,15.41c-1.63,6.53-2.2,13.49-5.11,19.6
		c-0.55-0.53-1.66-1.58-2.21-2.11c0.57-7.52,0.75-15.14-0.29-22.63c-1.64-7.23-8.09-11.89-13.35-16.54
		c-6.53-6.14-14.83-10.52-19.82-18.19c-3.06-4.53-5.41-9.87-5.18-15.42c2.02-11.88,9.68-23.09,20.95-27.86
		c1.75-0.4901,3.24,1.0099,4.79,1.58c11.58-4.28,22.16-10.7,32.42-17.47c6.27-4.33,11.67-10.09,15.03-16.95
		c0.9-5.56,4.63-10.57,3.9-16.36c-2.08-7.05-3.07-14.73-7.64-20.73c-2.48-4.96-6.68-8.67-10.85-12.19
		c-6.34-4.94-14.37-6.6299-21.72-9.35C268.13,569.34,268.17,568.4,268.19,567.93z"/>
	<path stroke="#000000" stroke-width="0.0938" d="M187.11,589.09c0.06-3.33-0.55-7.8,3.02-9.61c2.19,0.38,0.7,2.98,0.44,4.29
		C190.01,585.86,188.55,587.52,187.11,589.09z"/>
	<path stroke="#000000" stroke-width="0.0938" d="M233.3,588.43c9.6-3.49,19.5-6.41,29.7-7.45c11.55-1.15,21.69,9,23.21,19.99
		c1.33,8-2.38,15.85-7.2,22.03c-4.34,5.94-9.87,11.52-17.07,13.73c1.46-2.72,3.85-4.73,5.59-7.25c4.02-5.95,7.06-13.15,5.56-20.47
		c-1.26-5.93-4.22-12.37-9.98-15.09c-8.47-2.63-17.55-1.48-26.16-0.15c-8.77,0.56-16.53,6.26-25.51,5.42
		c3.03-3.72,8.14-4.14,11.75-7.03C226.22,590.14,229.94,589.69,233.3,588.43z"/>
	<path stroke="#000000" stroke-width="0.0938" d="M173.98,585.95c3.64-0.52,6.67-2.91,10.34-3.35c-0.44,1.65-1.25,3.16-2.41,4.4301
		c-1.87,1.99-1.78,5.14-3.87,6.96c-2.14,1.94-4.63,3.41-7.01,5.03c-3.65,2.65-6.23,6.45-9.59,9.4c-1.58,1.39-3.63-0.56-2.95-2.37
		c1.15-5.5,1.32-11.86,5.61-16.04C166.71,587.45,170.45,586.49,173.98,585.95 M163.67,597.5c4.44,0.51,7.07-3.92,10.59-5.87
		C170.07,588.12,163.66,592.63,163.67,597.5z"/>
	<path stroke="#000000" stroke-width="0.0938" d="M124.33,608.34c5.31-5.91,10.77-11.8701,17.32-16.4301
		c0.51,0.53,1.55,1.6,2.06,2.14c-2,4.77-2.66,10.26-0.86,15.2c2.71,4.94,8.95,5.76,14.04,5.93c1.5-0.08,2.66,0.99,3.89,1.68
		c-1.51,4.4-3.47,8.61-5.19,12.91c-0.58,0.07-1.72,0.21-2.29,0.28c-0.45-4.21-3.76-7.44-7.73-8.53c-4.75-0.78-9.61,0.86-13.47,3.59
		c-3.04,3.08-2.45,7.8-2.97,11.75c-0.67,3.05-4.42,2.38-6.73,2.87c-1.54,5.67,3.6,9.56,7.8,12.17c2.19,1.11,4.73,1.16,7.1,1.72
		c0.09,0.61,0.27,1.82,0.36,2.43c-6.88-0.12-13.26-2.91-19.66-5.14c-5.28-1.68-9.62-5.6299-12.64-10.18
		c-2.25-3.58-1.18-8.07,0.96-11.42C110.84,621.15,118.33,615.33,124.33,608.34z"/>
	<path stroke="#000000" stroke-width="0.0938" d="M190.86,600.02c2.22-0.88,5.25-2.17,7.21-0.09c2.79,2.44,2.4,6.56,1.87,9.87
		c-1.12,5.75-2.88,11.39-3.78,17.17c-0.65,3.94,4.2,6.71,2.49,10.73c-2.43,5.47-7.07,9.54-11.64,13.24
		c-1.67,1.42-3.75,2.17-5.88,2.57c2.36-3.78,6.13-6.85,6.82-11.5c1.3-7.23,1.56-16.18-4.89-21.14c0.36-2.53,1.41-5.12,0.61-7.65
		c-1.56-1.5099-3.51-0.3-5.18,0.27c-4.1,1.61-7.21,5.59-11.9,5.54c1.09-4.5,4.91-7.4901,8.64-9.82
		C180.01,605.47,185.35,602.52,190.86,600.02z"/>
	<path stroke="#000000" stroke-width="0.0938" d="M227.62,603.62c3.14-0.55,6.22-1.42,9.37-1.94c8.65,0.09,17.94,0.93,25.22,6.08
		c2.69,1.69,3.94,5.01,2.96,8.07c-2.05,6.29-6.42,11.72-11.77,15.56c-1.81,1.36-4.06,1.86-6.23,2.27c2.52-5.96,7.49-11.55,5.92-18.5
		c-3.42-4.8199-8.92-8.97-15.12-8.58c-3.63-0.03-7.24-0.48-10.85-0.82C227.24,605.23,227.49,604.16,227.62,603.62z"/>
	<path stroke="#000000" stroke-width="0.0938" d="M165.26,626.21c1.35-4.93,7.44-4.45,11.46-4.34c0.13,2.8,0.38,5.6,0.87,8.36
		c-2.47,1.96-5.63,2.57-8.35,4.06c-2.93,2.03-2.66,6.29-5.36,8.55c-2.77,2.41-4.98,5.46-7.99,7.5699c-0.86-0.02-2.57-0.08-3.43-0.11
		c2-2.94,5.23-4.73,7.22-7.68C162.84,637.67,164.03,631.85,165.26,626.21z"/>
	<path stroke="#000000" stroke-width="0.0938" d="M390.47,630.49c2.06-1.58,4.28-3.02,6.86-3.57c-0.08,1.41-0.47,2.82-1.59,3.78
		c-6.28,6.72-12.62,13.39-18.87,20.15c-1.12,1.16-2.56,1.94-3.9,2.82c-6.76-6.26-16.72-6.4-25.37-5.83
		c2.18-3.97,6.65-7.14,11.33-6.6801C370.28,641.75,381.75,637.7,390.47,630.49z"/>
	<path stroke="#000000" stroke-width="0.0938" d="M419.97,635.93c6.79-2.5,14.14-2.31,21.16-0.92c10.06,1.25,18.37,7.52,27.52,11.34
		c7.6,3.8,16.16,8.16,24.82,5.2401c5.41-1.1801,9.06-6.45,14.8-6.5c-1.79,3.77-5.69,5.8-8.74,8.44
		c-6.93,4.71-13.86,9.84-22.05,12.08c-10.59,2.3-22.1,0.23-30.85-6.3c-6.46-5.29-14.24-9.25-22.56-10.44
		c-4.93-0.06-9.95-0.45-14.8,0.67c-3.54,0.81-7.2,0.71-10.8,0.4901C404.55,643.97,411.33,637.88,419.97,635.93z"/>
	<path stroke="#000000" stroke-width="0.0938" d="M68.47,666.49c4.64-4.9,10.05-9.51,16.75-11.2c4.71-1,9.17,1.37,13.39,3.11
		c2.95,3.36,4.21,7.7599,6.43,11.5699c2.64,3.8701,3.54,8.54,5.27,12.84c1.6,3.55,0.14,7.93,2.77,11.08
		c5.38,5.17,13.56,5.15,20.39,3.57c7.94-2,16.21-5.53,24.48-3.47c5.59,2.28,10.88,6.38,13.3,12.06c-1.93-1.12-3.56-2.67-5.49-3.78
		c-3.71-1.57-7.77-2.02-11.76-1.82c-5.83-0.08-11.17,2.57-16.79,3.69c-4.97,1.15-10.06,0.21-15.09,0.34
		c-10.51-0.85-18.91-7.86-27.84-12.72c-3-1.69-6.24-2.93-9.23-4.65c1.96-1.72,4.47-2.89,6.05-5.01c1.19-3.16,1.14-6.65,0.72-9.94
		c-1.21-3.8799-6.16-5.12-9.73-4.21c-6.56,2.13-10.58,8.09-14.22,13.55C67.31,676.59,66.42,671.13,68.47,666.49z"/>
	<path stroke="#000000" stroke-width="0.0938" d="M399.99,660.87c6.5-1.96,13.2-4.53,20.1-3.57c12.27,0.99,22.9,8.94,30.08,18.54
		c4.98,5.8199,7.68,13.11,10.98,19.94c2.8,7.3799,6.73,14.29,11.33,20.6899c3.53,4.54,8.41,7.64,12.67,11.4
		c4.18,3.27,9.61,4.76,14.88,4.53c2.06,0.08,4.56-0.53,5.97,1.43c-3.67,1.8-7.73,2.14-11.72,2.54c-8.55,1.81-17.28-0.98-24.89-4.76
		c-6.38-4.07-12.31-9.27-16.09-15.92c-3.55-5.82-7.69-11.33-10.35-17.65c-4.14-9.5099-10.86-17.62-18.28-24.74
		c-5.99-5.81-15.39-6.9-23.12-4.65c-5.91,2.7599-12.59,2.29-18.78,4c-2.54,1.19-4.71,3.14-7.48,3.86c0.35-1.56,0.59-3.3,1.98-4.28
		C383.73,666.56,392.07,663.81,399.99,660.87z"/>
	<path stroke="#000000" stroke-width="0.0938" d="M304.48,673.36c4.97-1.67,8.22-6.98,13.56-7.39c-0.24,3.4-3.08,5.6201-4.73,8.36
		c-3.08,4.19-5.03,9.73-10.01,12.1c-3.28,0.8-6.76,0.66-9.94,1.98c-3.83,1.06-6.43,4.21-9.49,6.54c-2.99-2.55,0.85-5.52,2.29-7.81
		C290.63,680.73,297.13,675.96,304.48,673.36z"/>
	<path stroke="#000000" stroke-width="0.0938" d="M227.16,674.15c1.4-1.9301,3.57-2.96,5.81-3.56c-1.9,4.12-5.36,7.3199-6.94,11.6
		c-1.49,3.74-3.47,7.31-4.52,11.22c-2.43,12.19-3.41,25.47,1.97,37.05c2.79,6.07,6,12.72,12.31,15.79
		c5.6,3.26,13.28,4.18,16.48,10.51c5.95,10.33,3.84,23.06,0.17,33.79c-2.08,3.64-3.45,7.58-4.85,11.51
		c-0.53,0.14-1.58,0.41-2.11,0.55c2.25-7.74,3.46-16.39-0.2-23.9c-5.54-12.4-20.71-16.02-27.4-27.54
		c-2.04-3.66-4.53-7.11-5.81-11.14c-4.3-11.92-3.57-24.94-0.98-37.13c1.86-5.25,3-10.9,6.29-15.51
		C220.56,682.92,223.8,678.49,227.16,674.15z"/>
	<path stroke="#000000" stroke-width="0.0938" d="M204.28,674.42c4.22-0.84,8.33-2.54,12.7-2.28c1.94,0.12,4.46-0.51,5.62,1.55
		c-4.64,2.05-8.57,5.32-12.61,8.31c-5.88,7.04-11.03,14.74-14.95,23.04c-2.29,4.57-2.87,9.87-2.24,14.9
		c0.84,5.35,4.66,9.41,7.51,13.79c4.47,6.49,7.46,14.32,7.07,22.29c-0.12,3.12-1.76,5.85-3.69,8.21
		c-1.82-10.52-6.85-20.18-13.44-28.49c-6.67-8.52-9.89-19.12-11.08-29.74c0.32-6.73,2.39-13.36,5.52-19.29
		C189.07,679.89,196.95,676.9,204.28,674.42z"/>
	<path stroke="#000000" stroke-width="0.0938" d="M375.74,686.96c2.19-4.28,7.51-4.22,11.44-5.94c5.89-0.76,11.92,0.09,17.85-0.66
		c7.35,0.69,14.14,4.23,19.98,8.6c4.63,3.45,7.68,8.47,10.78,13.24c6.58,10.94,5.95,24.25,9.85,36.09
		c1.15,4.19,2.43,8.47,4.98,12.07c4.16,5.08,10.21,8.44,16.71,9.39c6.85,2.05,13.98,2.76,21.04,3.6c0.2,0.42,0.62,1.26,0.82,1.6801
		c-5.77-0.13-11.41,1.42-17.19,1.0699c-7.75-0.28-16.16,1.23-23.16-3c-8.88-4.03-17.24-10.21-22.04-18.88
		c-5.1-8.3799-5.96-18.4-9.75-27.3199c-2.2-7.85-6.87-14.69-12.21-20.75c-3.22-3.3-7.4-5.45-11.51-7.4301
		C387.6,687.26,381.08,690.03,375.74,686.96z"/>
	<path stroke="#000000" stroke-width="0.0938" d="M49.88,690.87c7.69-2.69,15.38,1.52,21.65,5.68c9.43,5.13,19.18,9.94,29.62,12.65
		c4.59,0.66,9.3,0.65,13.82,1.72c0.35,0.56,1.06,1.68,1.41,2.24c-7.99,0.48-16.16,2.02-24.03-0.23c-10.69-1.71-23.69-1.66-31.31,7.3
		c-2.42-2.23-5.11-5.38-8.82-4.35c-2.8,1.92-5.81,4.49-6.24,8.08c-0.76,5.08-0.61,10.22-0.73,15.34c-4.17-0.83-6.17-5.02-8.14-8.34
		c-1.42-2.64-3.62-4.97-4.13-8.01c-0.48-4.65-1.36-9.72,1.09-14C37.88,701.92,42.47,694.53,49.88,690.87z"/>
	<path stroke="#000000" stroke-width="0.0938" d="M375.17,697.43c7.22-0.05,14.34-2.17,21.59-1.29c4.98,1.42,8.7,5.33,12.02,9.11
		c4.33,4.82,5.67,11.47,6.46,17.7c-0.07,7.5,0.56,15.07-0.69,22.51c-0.85,6.17-1.72,12.36-1.96,18.6
		c0.53,7.93,2.37,15.88,6.69,22.67c3.33,7.6,13.05,9.78,16.07,17.5c-5.41-1.45-9.81-5.1-14.24-8.34
		c-6.49-5.86-14.51-10.11-19.69-17.33c-3.62-5.06-6.67-10.64-8.41-16.63c-1.26-5.91-2.08-11.92-2.4-17.96
		c0.49-12.34,1.54-25.75-4.68-36.95c-3.48-5.81-10.98-2.36-15.96-5.32C371.08,699.74,372.65,697.44,375.17,697.43z"/>
	<path stroke="#000000" stroke-width="0.0938" d="M300,701.04c4.42-2.64,9.52-5.33,14.83-3.95c5.28,2.03,9.36,6.3799,11.56,11.54
		c1.77,4.16,5.76,6.64,8.09,10.41c-3.4,1.44-7.02,0.22-10.54,0.34c-3.16,0.12-5.13,2.81-7.15,4.87c-1.31-0.88-2.6-1.79-3.91-2.65
		c-3.29,2.37-5.68,6.19-5.39,10.36c-0.29,4.65,1.39,9.19,0.73,13.84c-2.5-1.47-4.1-3.93-6.01-6.03c-4.3-4.96-8.66-10.34-9.89-16.97
		C290.43,714.87,293.61,706.05,300,701.04z"/>
	<path stroke="#000000" stroke-width="0.0938" d="M362.43,708.5c6.01-1.31,12.08,0.63,18.07,1.25c2.91,0.38,2.32,4.11,2.76,6.22
		c1.08,6.39-1.85,12.65-5.68,17.57c-1.13,1.76-3.22,1.51-4.97,1.11c-0.66-2.98,0.21-6.29-1.32-9.02c-1.45-1.58-3.94-1-5.47,0.14
		c-3.24,2.4-6.27,5.14-8.83,8.27c-1.25,1.33-1.62,4.09-3.89,3.87c-1.69-2.33-1.18-5.31-1.05-7.97
		C352.49,721.86,355.92,713.49,362.43,708.5z"/>
	<path stroke="#000000" stroke-width="0.0938" d="M106.04,729.04c3.39-2.89,6.02-6.93,10.48-8.34c-1.9,6.41-5.22,13.41-11.91,15.94
		c-7.35,2.82-15.36,5.15-21,10.97c-2.32,2.15-3.12,5.27-4.32,8.08c-3.75-1.63-7.47-5.11-11.8-4.21c-4.24,2.49-3.52,8.18-2.9,12.31
		c0.66,5.47,6.91,8,7.48,13.44c-6.12-2.12-11.58-5.76-16.77-9.54c-4.17-2.95-6.67-7.82-7.53-12.77c0.32-7.82,4.75-16.27,12.76-18.48
		c7.46-1.79,15.22-1.52,22.83-2.05C91.24,734.06,98.47,730.79,106.04,729.04z"/>
	<path stroke="#000000" stroke-width="0.0938" d="M156.89,732.93c2.22-1.85,3.37-4.58,5.11-6.82c4.53,3.06,6.54,8.34,8.62,13.16
		c1.38,3.15,1.59,6.64,2.36,9.97c1.22,5.58-1.05,11.21-3.75,16c-5.61,8.03-15,12.39-24.3,14.52c-1.78,0.54-3.59,0.24-5.14-0.74
		c3.74-1.94,8.13-2.88,10.98-6.23c2.72-3.1,6.65-6.23,6.41-10.77c0.08-2.26-0.05-4.78-1.75-6.46c-3.82-3.87-8.77-6.48-12.36-10.6
		c-3.84-4.48-5.74-10.15-8.74-15.14c2.91,2.11,5.84,4.38,9.33,5.47C148.13,735.97,153.16,735.82,156.89,732.93z"/>
	<path stroke="#000000" stroke-width="0.0938" d="M331.77,741.67c0.32-1.62,2.17-1.71,3.38-2.29c1.04,3.96,0.73,8.12,1.47,12.13
		c3.01,5.52,10.46,6.22,15.75,3.89c4.83-1.29,7.89-5.38,10.64-9.2401c4.03,2.61,1.95,7.89,2.46,11.86
		c0.55,6.18-2.86,12.46-8.77,14.72c-5.54,3.56-12.48,2.35-18.07-0.4c-4.68-2.81-5.73-8.63-6.55-13.58
		C331.36,753.13,329.82,747.23,331.77,741.67z"/>
	<path stroke="#000000" stroke-width="0.0938" d="M304.73,764.63c3.16,2.03,5.63,5.43,5.51,9.32c-0.12,7.02,0.2,14.06-0.17,21.08
		c-0.03,3.73-2.9,6.3199-4.71,9.29c-5.3,8.29-11.7,15.82-16.7,24.31c-5.25,8.31-10.88,16.49-14.48,25.69
		c-3.14,7.65-5.29,15.65-8.35,23.33c-3.62,11.39-5.94,23.43-12.56,33.59c-2.98,4.32-5.65,8.9-9.27,12.74
		c-4.02,3.65-7.65,7.76-12.12,10.89c-7.08,5.22-15.3,8.56-22.69,13.28c-5.95,3.9-13.05,5.43-19.25,8.86
		c-8.3,2.45-17.17,2.6-25.42,5.33c-8.05,2.5099-16.6,1.36-24.85,0.79c-0.16-0.49-0.48-1.46-0.63-1.95c5.93-3.63,12.64-5.6,19.1-8.03
		c11.99-4.09,23.53-9.69,33.64-17.37c3.58-2.73,6.59-6.27,10.71-8.23c10.8-6.13,19.52-15.14,28.06-24.01
		c4.57-4.96,7.93-10.84,11.59-16.45c5.04-8.03,7.13-17.39,9.73-26.38c0.6-1.84,2.05-3.2,3.15-4.7401c1.92-2.42,2.14-5.65,3.57-8.31
		c1.09-1.8799,2.72-3.35,3.99-5.09c3.85-7.42,9.92-13.38,15.46-19.55c3.75-5.82,9.73-9.72,13.47-15.55
		c4.93-7.68,10.98-15.25,12.2-24.58C305.14,776.89,303.81,770.68,304.73,764.63z"/>
	<path stroke="#000000" stroke-width="0.0938" d="M370.42,768.55c0.33-1.36,1.5-2.2,2.47-3.08c0.64,1.41,1.64,2.8701,1.09,4.52
		c-1.63,6.96-4.25,13.75-8.32,19.66c-4.17,7.77-6.59,16.8199-5.26,25.65c-0.27,9.99,4.58,19.17,10.22,27.09
		c5.96,9.79,14.16,18.05,19.85,28c1.98,7.68-1.4,15.32-3.42,22.63c-4.11,9.96-8.7,19.72-13.8,29.21
		c-6.21,9.58-12.18,19.55-20.66,27.34c-3.6,2.71-6.24,6.42-9.65,9.34c-2.95,2.44-5.4,5.91-9.46,6.51c-0.09-2.72,2.26-4.28,3.92-6.03
		c3.6-3.43,7.2-7.05,9.28-11.64c4.11-8.62,8.15-17.41,10.11-26.8c1.19-7.58,2.62-15.22,2.31-22.91c-0.78-6.28-0.57-12.66-2.12-18.82
		c-2.68-10.95-7.3-21.27-11.29-31.77c-1.98-8.2-4.1-17.01-1.48-25.31c1.82-7.68,4.7-15.19,9.28-21.66c3.33-4.19,5.39-9.2,8.55-13.51
		C364.94,780.88,368.38,775.01,370.42,768.55z"/>
	<path stroke="#000000" stroke-width="0.0938" d="M324.46,768.48c5.06,2.35,7.02,8.27,6.9,13.49c-0.18,3.46,0.56,7.15-0.91,10.42
		c-4.91,9.62-10.63,18.79-15.73,28.31c-3.11,7.19-5.19,14.79-7.97,22.12c-4.23,11.44-3.4,23.81-4.32,35.76
		c-1.44,8.28-3.23,16.56-6.61,24.29c-3.86,9.11-6.68,18.72-11.65,27.32c-7.37,14.51-19.31,25.93-30.88,37.11
		c-7.87,5.99-16.65,10.65-24.94,16.03c-4.81,2.18-9.3,5.17-14.47,6.48c-3.74,0.99-6.57,4-10.4,4.82
		c-10.58,2.81-21.46,4.52-31.85,8.05c-0.8,0.15-2.41,0.44-3.21,0.59c1.55-3.01,4.56-4.72,7.12-6.75
		c5.92-4.64,12.87-7.68,19.02-11.98c15.37-10.65,29.05-23.73,40.44-38.55c8.37-8.78,16.14-18.25,22.22-28.78
		c2.84-5.82,6.27-11.32,8.74-17.32c5.05-8.3,7-17.96,11.18-26.66c2.72-6.02,3.53-12.7,6.35-18.68c1.66-3.59,2.71-7.4,3.98-11.13
		c3-7.03,6.46-13.87,10.62-20.29c4.46-5.86,10.15-10.75,13.94-17.12c3.04-5.2,7.63-9.34,10.19-14.83c2.06-3.84,2.98-8.15,3.68-12.41
		C326.37,775.25,324.97,771.9,324.46,768.48z"/>
	<path stroke="#000000" stroke-width="0.0938" d="M381.2,769.66c1.31,0.92,3.31,2.06,2.54,4.01c-1.05,4.11-3.15,7.96-3.28,12.3
		c-0.22,6.88-1.94,14.16,0.82,20.76c2.78,6.11,6.41,12.03,11.9,16.08c5.8,5.21,13.18,8.03,19.41,12.63
		c7.76,4.15,12.7,12.2,14.7,20.57c0.14,3.03,0.22,6.06,0.65,9.07c0.94,6.78-2.29,13.17-2.33,19.9c-0.15,8.82,0.4,17.64,1.06,26.44
		c-3.18-4.87-4.71-10.64-4.78-16.42c-1.87-9.26-5.7-18.11-10.75-26.08c-2.63-3.95-5.53-7.87-9.5-10.57
		c-2.73-1.91-5.43-3.88-7.68-6.34c-3.68-4.01-8.94-6.4-11.86-11.14c-2.97-3.44-5.19-7.48-6.02-11.98
		c-3.59-12.28-1.7-25.17-1.59-37.74c0.83-5.2,0.25-10.86,3.03-15.55C378.66,773.57,379.9,771.59,381.2,769.66z"/>
	<path stroke="#000000" stroke-width="0.0938" d="M272.96,793.09c1.53-2.9901,1.99-7.26,5.72-8.3701c0.3,3.2,0.01,6.54-1.54,9.42
		c-2.09,3.93-3.31,8.36-6.22,11.82c-6.26,8.04-15.44,12.96-24.24,17.7c-9.95,4.32-19.99,8.45-29.85,12.9901
		c-6.82,2.46-13.49,5.31-20.14,8.21c-11.38,3.14-22.21,7.91-33.5,11.32c-16.62,3.05-32.14,10.57-46.18,19.81
		c-12.33,9.77-22.19,22.41-30.03,35.98c-2.09,3.86-3.52,8.1201-6.42,11.51c-1.23,1.69-2.41,3.62-4.61,4.14
		c2.43-11.99,7.45-23.22,12.23-34.4c6.65-13.42,13.53-27.11,24.22-37.83c6.07-5.75,12.67-10.98,20.14-14.8
		c9.11-4.41,18.07-9.2401,27.79-12.19c10.34-3.2401,20.79-6.6801,31.66-7.46c6.14,0.19,11.91-2.68,18.06-2.28
		c4.63,0.29,9.14-1.05,13.77-1.0099c6.09-1.25,11.72-4.09,17.62-5.97c6.24-1.63,12.26-3.96,18.37-6
		C265.3,802.91,269.97,798.47,272.96,793.09z"/>
	<path stroke="#000000" stroke-width="0.0938" d="M345.3,790.36c1.05-1.33,2.71-1.75,4.33-1.89c-2.93,6.78-7.88,12.44-11,19.14
		c-2.71,5.73-5.64,11.83-5,18.36c0.29,2.78,0.25,5.64,1.1,8.34c1.27,3.73,0.02,7.8,1.29,11.55c4.11,14.11,8.15,28.41,9.27,43.12
		c-0.37,11.34-4.95,22.14-10.26,32.02c-2.44,6.71-7.22,12.07-11.17,17.89c-8.16,8.17-14.67,18-24.02,24.96
		c-2.72,1.9-4.96,4.38-7.61,6.36c-7.61,5.08-14.57,11.16-22.77,15.34c-5.32,2.65-10.25,6.28-16.13,7.64
		c-5.82,1.37-11.13,4.21-16.79,6.06c1.16-2.27,2.9-4.31,5.31-5.25c4.78-1.96,9.61-4.16,13.43-7.72c3.43-3.27,7.36-5.94,10.87-9.1201
		c10.03-7.55,18.71-16.8799,25.81-27.22c5.54-6.85,8.72-15.23,11.63-23.44c1.6-4.01,1.05-8.38,1.62-12.55
		c1.64-13.6,0.39-27.38,2.51-40.94c0.76-16.36,5.53-32.44,13.58-46.71c2.53-5.58,6.22-10.48,9.2-15.8
		C336.51,804.59,339.63,796.55,345.3,790.36z"/>
	<path stroke="#000000" stroke-width="0.0938" d="M279.66,798.7c0.98-2.75,1.51-6.08,4.45-7.46c0.12,2.13,0.08,4.3-0.45,6.41
		c-0.94,4.06-0.93,8.41-2.84,12.21c-1.1,1.83-2.78,3.21-4.13,4.85c-1.93,2.14-2.89,4.98-4.92,7.05
		c-7.41,6.45-12.26,15.12-18.05,22.94c-3.3,5.67-7.04,11.08-10.17,16.85c-4.75,6-7.79,13.25-13.41,18.58
		c-5.97,7.37-12.84,14.08-20.8,19.28c-4.78,2.4-9.9,4.02-14.75,6.27c-4.24,2.05-9.01,2.65-13.21,4.79
		c-4.8,2.33-10.24,2.72-15.12,4.8101c-11.21,4.18-22.07,9.85-30.77,18.1899c-4.98,5.2401-8.59,11.58-11.97,17.92
		c-2.16,4.86-3.28,10.11-5.5,14.94c-1.69-4.02-3.39-8.04-5.01-12.09c-1.53-6.29-2.51-12.75-2.12-19.25
		c0.39-5.46-1.2-11.43,1.73-16.41c3.41-6.06,6.85-12.21,11.69-17.26c6.95-7.37,13.24-15.68,22.15-20.83
		c6.34-4.31,13.66-6.7,20.72-9.48c11.46-5.36,24.18-7.14,35.83-11.99c4.41-1.79,9.33-2.12,13.54-4.45
		c5.64-3.02,11.45-5.71,17.03-8.85c5.94-2.3799,11.27-6.04,16.45-9.72c8.46-8.52,18.5-15.93,24.3-26.69
		C276.28,805.86,278.45,802.5,279.66,798.7z"/>
</g>
</svg>
