<svg xmlns="http://www.w3.org/2000/svg" id="canvas" viewBox="330.246 293.791 791.911 170.309"><path d="M 380.50,328.51 C 379.16 329.43, 378.78 330.46, 378.26 332.60 C 377.74 334.74, 377.73 336.06, 377.91 339.21 C 378.09 342.36, 378.76 344.39, 379.17 348.34 C 379.57 352.29, 379.71 354.44, 379.94 358.95 C 380.16 363.45, 380.20 365.92, 380.30 370.87 C 380.40 375.81, 380.40 378.46, 380.44 383.66 C 380.49 388.87, 380.52 391.60, 380.54 396.89 C 380.56 402.18, 380.56 404.95, 380.55 410.11 C 380.53 415.28, 380.56 417.91, 380.49 422.72 C 380.41 427.53, 380.40 429.97, 380.16 434.16 C 379.92 438.35, 379.36 440.40, 379.29 443.67 C 379.22 446.94, 379.30 448.39, 379.81 450.51 C 380.32 452.62, 380.84 453.49, 381.86 454.26 C 382.87 455.02, 383.82 455.05, 384.88 454.34 C 385.93 453.62, 386.51 452.79, 387.13 450.68 C 387.74 448.58, 387.93 447.11, 387.96 443.80 C 387.99 440.50, 387.52 438.40, 387.30 434.17 C 387.08 429.95, 387.01 427.50, 386.87 422.68 C 386.73 417.86, 386.66 415.24, 386.60 410.08 C 386.54 404.92, 386.55 402.17, 386.56 396.89 C 386.57 391.61, 386.57 388.88, 386.64 383.68 C 386.72 378.48, 386.77 375.84, 386.92 370.90 C 387.07 365.96, 387.15 363.50, 387.39 358.97 C 387.64 354.43, 387.84 352.25, 388.15 348.23 C 388.46 344.21, 388.95 342.11, 388.93 338.86 C 388.91 335.61, 388.84 334.13, 388.04 331.97 C 387.25 329.80, 386.45 328.73, 384.94 328.04 C 383.43 327.35, 381.84 327.60, 380.50 328.51" style="stroke: black; fill: black;"/><path d="M 363.70,325.87 C 365.25 325.81, 365.83 325.03, 367.27 323.92 C 368.71 322.82, 369.26 322.19, 370.89 320.34 C 372.52 318.49, 372.91 316.74, 375.43 314.65 C 377.95 312.56, 379.70 311.62, 383.49 309.90 C 387.27 308.18, 389.69 307.32, 394.36 306.04 C 399.03 304.76, 401.70 304.16, 406.83 303.51 C 411.96 302.87, 414.82 302.68, 420.00 302.82 C 425.18 302.95, 427.96 303.23, 432.73 304.18 C 437.50 305.13, 439.92 305.85, 443.84 307.55 C 447.76 309.25, 449.60 310.43, 452.33 312.68 C 455.05 314.93, 456.05 316.24, 457.45 318.80 C 458.84 321.37, 459.16 322.60, 459.32 325.51 C 459.48 328.41, 459.36 330.00, 458.25 333.31 C 457.13 336.62, 456.22 338.53, 453.75 342.05 C 451.28 345.57, 449.53 347.53, 445.89 350.93 C 442.25 354.33, 439.87 356.11, 435.55 359.03 C 431.22 361.95, 428.62 363.37, 424.26 365.52 C 419.90 367.67, 417.56 368.62, 413.75 369.78 C 409.94 370.95, 407.79 370.60, 405.23 371.35 C 402.67 372.09, 401.84 372.56, 400.96 373.52 C 400.08 374.48, 400.22 375.21, 400.82 376.14 C 401.43 377.07, 402.22 378.01, 403.99 378.17 C 405.76 378.33, 406.82 377.85, 409.65 376.94 C 412.49 376.04, 414.22 374.65, 418.17 373.64 C 422.12 372.63, 424.65 372.20, 429.41 371.88 C 434.16 371.56, 436.89 371.55, 441.95 372.05 C 447.02 372.55, 449.80 373.00, 454.72 374.38 C 459.64 375.77, 462.19 376.75, 466.56 378.98 C 470.92 381.21, 473.08 382.65, 476.56 385.53 C 480.04 388.41, 481.55 390.07, 483.95 393.38 C 486.36 396.69, 487.26 398.54, 488.56 402.09 C 489.87 405.64, 490.25 407.52, 490.47 411.11 C 490.69 414.70, 490.44 416.53, 489.67 420.06 C 488.90 423.59, 488.28 425.44, 486.61 428.77 C 484.94 432.09, 483.94 433.75, 481.31 436.68 C 478.68 439.62, 477.08 440.99, 473.46 443.45 C 469.83 445.92, 467.75 447.10, 463.19 449.03 C 458.63 450.96, 456.03 451.84, 450.66 453.12 C 445.29 454.40, 442.30 454.83, 436.34 455.41 C 430.39 455.99, 427.19 456.11, 420.89 456.03 C 414.60 455.94, 411.24 455.71, 404.87 455.00 C 398.50 454.29, 395.17 453.75, 389.05 452.48 C 382.94 451.22, 379.82 450.42, 374.29 448.69 C 368.76 446.96, 366.02 445.94, 361.40 443.84 C 356.78 441.75, 354.57 440.54, 351.17 438.21 C 347.78 435.88, 346.36 434.44, 344.41 432.19 C 342.46 429.94, 342.45 429.09, 341.44 426.96 C 340.42 424.84, 340.65 422.58, 339.33 421.55 C 338.01 420.52, 335.99 420.19, 334.84 421.83 C 333.68 423.46, 332.74 426.60, 333.55 429.71 C 334.37 432.83, 336.07 434.62, 338.91 437.42 C 341.75 440.21, 343.70 441.36, 347.75 443.69 C 351.81 446.01, 354.18 447.05, 359.19 449.04 C 364.20 451.03, 367.03 451.98, 372.81 453.64 C 378.59 455.29, 381.78 456.07, 388.08 457.31 C 394.38 458.55, 397.78 459.10, 404.32 459.84 C 410.87 460.58, 414.30 460.86, 420.80 461.02 C 427.29 461.18, 430.58 461.12, 436.80 460.65 C 443.01 460.17, 446.15 459.83, 451.88 458.64 C 457.62 457.45, 460.44 456.64, 465.48 454.71 C 470.52 452.79, 472.88 451.64, 477.08 449.00 C 481.28 446.35, 483.28 444.86, 486.49 441.48 C 489.71 438.11, 491.06 436.10, 493.14 432.13 C 495.22 428.15, 496.00 425.92, 496.91 421.61 C 497.82 417.30, 498.08 414.98, 497.70 410.57 C 497.33 406.17, 496.73 403.81, 495.03 399.59 C 493.33 395.36, 492.11 393.23, 489.20 389.45 C 486.29 385.67, 484.45 383.87, 480.47 380.70 C 476.48 377.54, 474.08 376.04, 469.26 373.63 C 464.44 371.22, 461.69 370.20, 456.38 368.64 C 451.06 367.08, 448.12 366.58, 442.70 365.83 C 437.28 365.07, 434.43 365.02, 429.29 364.87 C 424.14 364.72, 421.49 364.90, 416.96 365.09 C 412.42 365.28, 410.08 364.99, 406.61 365.81 C 403.14 366.63, 401.38 367.31, 399.62 369.18 C 397.86 371.06, 397.56 373.10, 397.80 375.19 C 398.04 377.29, 398.90 378.62, 400.82 379.64 C 402.74 380.67, 404.31 380.95, 407.41 380.32 C 410.51 379.69, 412.39 378.32, 416.34 376.49 C 420.30 374.66, 422.66 373.62, 427.19 371.16 C 431.72 368.69, 434.39 367.24, 438.99 364.15 C 443.60 361.05, 446.13 359.28, 450.20 355.68 C 454.27 352.08, 456.32 350.14, 459.35 346.17 C 462.38 342.19, 463.80 340.05, 465.35 335.82 C 466.89 331.60, 467.35 329.19, 467.09 325.04 C 466.83 320.89, 466.12 318.64, 464.04 315.07 C 461.96 311.49, 460.23 309.85, 456.68 307.16 C 453.14 304.46, 450.86 303.37, 446.29 301.58 C 441.73 299.79, 439.09 299.16, 433.86 298.21 C 428.63 297.27, 425.70 297.02, 420.16 296.85 C 414.62 296.69, 411.62 296.85, 406.15 297.39 C 400.67 297.93, 397.87 298.48, 392.79 299.56 C 387.72 300.63, 385.25 301.31, 380.76 302.75 C 376.27 304.18, 374.04 304.81, 370.33 306.74 C 366.61 308.68, 364.50 309.94, 362.19 312.41 C 359.88 314.87, 359.32 316.72, 358.78 319.08 C 358.25 321.43, 358.53 322.82, 359.51 324.18 C 360.49 325.53, 362.15 325.92, 363.70 325.87" style="stroke: black; fill: black;"/><path d="M 556.23,382.18 C 556.93 380.59, 556.66 379.15, 555.83 377.36 C 555.00 375.57, 554.03 374.64, 552.08 373.24 C 550.13 371.83, 548.66 371.08, 546.09 370.32 C 543.51 369.56, 542.05 369.54, 539.21 369.44 C 536.36 369.34, 534.91 369.23, 531.87 369.83 C 528.83 370.42, 527.19 371.03, 524.00 372.43 C 520.81 373.83, 519.14 374.80, 515.92 376.83 C 512.70 378.87, 511.01 380.04, 507.91 382.62 C 504.80 385.19, 503.17 386.63, 500.40 389.71 C 497.63 392.78, 496.22 394.49, 494.05 397.99 C 491.87 401.48, 490.84 403.41, 489.53 407.18 C 488.23 410.94, 487.74 412.98, 487.51 416.80 C 487.29 420.63, 487.45 422.70, 488.43 426.32 C 489.41 429.94, 490.25 431.87, 492.42 434.90 C 494.60 437.93, 496.15 439.34, 499.30 441.47 C 502.46 443.59, 504.39 444.43, 508.19 445.54 C 511.99 446.64, 514.15 446.90, 518.30 447.00 C 522.44 447.10, 524.72 446.84, 528.92 446.04 C 533.11 445.25, 535.29 444.58, 539.27 443.02 C 543.26 441.46, 545.26 440.43, 548.82 438.23 C 552.38 436.03, 554.08 434.71, 557.08 432.02 C 560.08 429.32, 561.50 427.83, 563.81 424.76 C 566.13 421.68, 567.10 419.96, 568.67 416.64 C 570.24 413.31, 570.81 411.53, 571.68 408.13 C 572.54 404.72, 572.75 402.93, 573.01 399.61 C 573.26 396.29, 573.44 394.52, 572.96 391.53 C 572.49 388.55, 572.13 386.60, 570.62 384.68 C 569.11 382.76, 567.53 382.04, 565.39 381.93 C 563.26 381.81, 561.59 382.45, 559.95 384.09 C 558.30 385.74, 557.33 387.32, 557.17 390.14 C 557.02 392.96, 558.07 394.79, 559.17 398.19 C 560.27 401.59, 561.27 403.51, 562.69 407.13 C 564.12 410.76, 564.80 412.68, 566.32 416.32 C 567.84 419.97, 568.59 421.83, 570.29 425.37 C 571.99 428.91, 572.93 430.74, 574.82 434.03 C 576.70 437.31, 577.57 439.11, 579.71 441.79 C 581.85 444.47, 583.14 446.00, 585.52 447.43 C 587.89 448.87, 589.87 449.30, 591.58 448.95 C 593.29 448.60, 594.07 447.32, 594.08 445.67 C 594.09 444.02, 593.02 442.68, 591.62 440.70 C 590.22 438.71, 588.98 437.99, 587.09 435.75 C 585.20 433.51, 584.03 432.29, 582.17 429.49 C 580.31 426.69, 579.36 424.99, 577.77 421.75 C 576.18 418.51, 575.44 416.75, 574.23 413.29 C 573.02 409.82, 572.43 407.94, 571.71 404.42 C 570.98 400.89, 570.96 398.82, 570.61 395.66 C 570.27 392.51, 570.71 390.78, 569.98 388.65 C 569.25 386.52, 568.30 385.78, 566.97 385.00 C 565.63 384.21, 564.51 384.15, 563.32 384.73 C 562.13 385.31, 561.31 386.18, 561.02 387.90 C 560.72 389.62, 561.48 391.02, 561.85 393.31 C 562.22 395.60, 562.74 396.81, 562.86 399.37 C 562.97 401.93, 562.90 403.38, 562.43 406.11 C 561.96 408.85, 561.61 410.31, 560.51 413.05 C 559.42 415.78, 558.74 417.19, 556.95 419.79 C 555.16 422.39, 554.04 423.70, 551.57 426.04 C 549.10 428.39, 547.66 429.60, 544.62 431.52 C 541.59 433.43, 539.84 434.33, 536.41 435.64 C 532.99 436.94, 531.05 437.47, 527.50 438.05 C 523.95 438.63, 521.98 438.73, 518.64 438.53 C 515.31 438.32, 513.64 437.97, 510.82 437.03 C 508.00 436.09, 506.71 435.36, 504.54 433.83 C 502.38 432.31, 501.47 431.42, 500.01 429.42 C 498.55 427.42, 497.99 426.27, 497.25 423.82 C 496.51 421.37, 496.25 419.97, 496.31 417.18 C 496.37 414.39, 496.60 412.84, 497.55 409.87 C 498.50 406.90, 499.28 405.24, 501.07 402.33 C 502.86 399.43, 504.06 397.91, 506.50 395.33 C 508.94 392.75, 510.44 391.50, 513.26 389.44 C 516.07 387.37, 517.67 386.45, 520.56 385.02 C 523.45 383.59, 525.03 383.10, 527.70 382.30 C 530.38 381.50, 531.69 381.39, 533.93 381.02 C 536.16 380.65, 537.18 380.42, 538.89 380.45 C 540.60 380.48, 541.16 380.65, 542.46 381.18 C 543.76 381.72, 544.20 382.42, 545.40 383.13 C 546.59 383.85, 547.03 384.32, 548.41 384.75 C 549.80 385.19, 550.77 385.82, 552.33 385.31 C 553.90 384.80, 555.53 383.78, 556.23 382.18" style="stroke: black; fill: black;"/><path d="M 607.67,387.20 C 606.28 387.98, 605.85 388.95, 605.20 390.84 C 604.56 392.73, 604.28 394.04, 604.45 396.65 C 604.61 399.26, 605.33 400.90, 606.01 403.89 C 606.69 406.88, 607.23 408.51, 607.84 411.61 C 608.45 414.71, 608.69 416.37, 609.06 419.39 C 609.43 422.41, 609.39 424.02, 609.72 426.71 C 610.04 429.39, 610.11 430.78, 610.67 432.82 C 611.22 434.85, 611.37 435.88, 612.50 436.90 C 613.63 437.91, 614.77 438.13, 616.32 437.89 C 617.87 437.66, 619.15 437.08, 620.26 435.73 C 621.37 434.38, 621.78 433.34, 621.87 431.15 C 621.96 428.96, 621.30 427.57, 620.70 424.79 C 620.11 422.01, 619.36 420.32, 618.90 417.25 C 618.45 414.18, 618.38 412.56, 618.43 409.45 C 618.48 406.34, 618.60 404.72, 619.15 401.70 C 619.70 398.69, 620.12 397.06, 621.17 394.37 C 622.22 391.68, 622.88 390.46, 624.41 388.27 C 625.93 386.07, 626.90 385.05, 628.79 383.38 C 630.68 381.72, 631.80 381.00, 633.87 379.95 C 635.93 378.89, 637.00 378.53, 639.10 378.12 C 641.20 377.70, 642.33 377.63, 644.38 377.88 C 646.43 378.13, 647.39 378.39, 649.35 379.36 C 651.32 380.33, 652.37 380.94, 654.22 382.72 C 656.06 384.50, 657.03 385.65, 658.58 388.25 C 660.13 390.84, 660.88 392.44, 661.97 395.69 C 663.06 398.94, 663.48 400.88, 664.04 404.48 C 664.59 408.08, 664.69 410.11, 664.75 413.68 C 664.81 417.26, 664.51 419.22, 664.33 422.35 C 664.15 425.47, 663.53 427.04, 663.84 429.32 C 664.15 431.60, 664.60 432.62, 665.88 433.76 C 667.16 434.90, 668.45 435.21, 670.26 435.02 C 672.07 434.82, 673.45 434.33, 674.92 432.78 C 676.39 431.23, 677.03 429.98, 677.62 427.26 C 678.21 424.54, 677.42 422.49, 677.87 419.19 C 678.32 415.90, 678.76 414.08, 679.85 410.77 C 680.94 407.45, 681.71 405.73, 683.32 402.62 C 684.94 399.52, 685.93 397.92, 687.92 395.22 C 689.91 392.53, 691.08 391.22, 693.27 389.15 C 695.46 387.08, 696.72 386.21, 698.87 384.87 C 701.02 383.54, 702.10 383.09, 704.02 382.48 C 705.94 381.87, 706.81 381.69, 708.47 381.82 C 710.13 381.95, 710.86 382.22, 712.32 383.15 C 713.78 384.07, 714.32 384.77, 715.77 386.46 C 717.22 388.15, 718.16 389.09, 719.58 391.61 C 721.00 394.12, 721.72 395.74, 722.87 399.03 C 724.03 402.32, 724.50 404.31, 725.33 408.07 C 726.17 411.84, 726.48 413.94, 727.06 417.85 C 727.64 421.76, 727.82 423.89, 728.24 427.63 C 728.66 431.38, 728.43 433.73, 729.15 436.59 C 729.87 439.45, 730.75 440.35, 731.84 441.95 C 732.93 443.54, 733.49 444.19, 734.60 444.58 C 735.72 444.97, 736.59 444.72, 737.41 443.90 C 738.23 443.07, 738.35 442.32, 738.70 440.48 C 739.05 438.63, 739.55 437.51, 739.17 434.66 C 738.78 431.80, 737.61 429.80, 736.78 426.19 C 735.95 422.58, 735.70 420.54, 735.04 416.59 C 734.37 412.64, 734.19 410.47, 733.46 406.44 C 732.73 402.41, 732.40 400.27, 731.39 396.44 C 730.37 392.61, 729.86 390.67, 728.37 387.27 C 726.87 383.87, 726.15 382.05, 723.91 379.46 C 721.67 376.86, 720.10 375.78, 717.18 374.30 C 714.25 372.82, 712.50 372.34, 709.29 372.07 C 706.07 371.79, 704.25 371.98, 701.10 372.93 C 697.94 373.87, 696.36 374.81, 693.51 376.79 C 690.66 378.76, 689.38 380.12, 686.86 382.80 C 684.35 385.48, 683.15 387.04, 680.93 390.19 C 678.71 393.34, 677.68 395.12, 675.78 398.56 C 673.87 402.00, 673.03 403.86, 671.39 407.38 C 669.75 410.91, 669.08 412.83, 667.58 416.17 C 666.07 419.51, 664.57 421.20, 663.87 424.07 C 663.16 426.94, 663.32 428.52, 664.05 430.51 C 664.78 432.51, 666.02 433.40, 667.53 434.05 C 669.04 434.70, 670.31 434.65, 671.60 433.78 C 672.89 432.90, 673.49 431.96, 673.97 429.69 C 674.45 427.43, 674.12 425.73, 673.99 422.44 C 673.87 419.14, 673.69 417.08, 673.36 413.23 C 673.02 409.38, 672.96 407.22, 672.34 403.19 C 671.71 399.17, 671.38 396.98, 670.24 393.10 C 669.10 389.22, 668.44 387.23, 666.65 383.79 C 664.86 380.35, 663.81 378.61, 661.31 375.88 C 658.81 373.16, 657.27 371.83, 654.15 370.15 C 651.04 368.47, 649.16 367.95, 645.74 367.48 C 642.31 367.02, 640.39 367.14, 637.05 367.81 C 633.70 368.49, 632.00 369.19, 629.00 370.85 C 626.00 372.51, 624.56 373.68, 622.05 376.10 C 619.53 378.51, 618.35 379.96, 616.42 382.94 C 614.49 385.92, 613.68 387.60, 612.39 391.00 C 611.11 394.40, 610.70 396.38, 609.99 399.96 C 609.28 403.54, 609.19 405.36, 608.85 408.89 C 608.51 412.42, 608.52 414.17, 608.29 417.61 C 608.05 421.05, 607.68 422.97, 607.68 426.10 C 607.68 429.22, 607.51 430.92, 608.28 433.23 C 609.06 435.54, 609.92 436.60, 611.57 437.66 C 613.21 438.72, 614.79 438.82, 616.51 438.53 C 618.23 438.25, 619.26 437.60, 620.18 436.23 C 621.11 434.86, 621.03 433.86, 621.13 431.68 C 621.23 429.50, 621.03 428.08, 620.67 425.34 C 620.32 422.60, 619.81 421.03, 619.35 417.98 C 618.89 414.93, 618.67 413.27, 618.37 410.09 C 618.07 406.91, 618.13 405.12, 617.87 402.06 C 617.62 399.01, 617.68 397.25, 617.11 394.81 C 616.53 392.37, 616.00 391.44, 615.01 389.87 C 614.02 388.29, 613.63 387.47, 612.16 386.94 C 610.70 386.41, 609.06 386.42, 607.67 387.20" style="stroke: black; fill: black;"/><path d="M 758.21,321.78 C 756.88 322.49, 756.54 323.26, 755.86 325.02 C 755.18 326.79, 754.63 327.93, 754.83 330.61 C 755.03 333.29, 756.06 334.98, 756.85 338.43 C 757.65 341.87, 758.11 343.84, 758.81 347.84 C 759.50 351.83, 759.79 354.02, 760.33 358.41 C 760.87 362.80, 761.07 365.15, 761.49 369.79 C 761.90 374.43, 762.10 376.89, 762.40 381.60 C 762.71 386.31, 762.84 388.75, 763.03 393.34 C 763.23 397.92, 763.35 400.31, 763.39 404.54 C 763.44 408.77, 763.38 410.94, 763.25 414.48 C 763.12 418.02, 762.45 419.71, 762.75 422.23 C 763.06 424.74, 763.52 425.81, 764.77 427.06 C 766.02 428.30, 767.19 428.59, 769.00 428.46 C 770.80 428.34, 772.23 427.83, 773.78 426.43 C 775.32 425.03, 776.03 423.86, 776.71 421.45 C 777.39 419.04, 776.77 417.26, 777.17 414.38 C 777.56 411.49, 777.72 409.91, 778.69 407.03 C 779.66 404.14, 780.33 402.68, 782.02 399.96 C 783.72 397.23, 784.80 395.87, 787.16 393.40 C 789.51 390.93, 790.87 389.66, 793.79 387.62 C 796.72 385.57, 798.42 384.59, 801.78 383.17 C 805.14 381.75, 807.02 381.16, 810.60 380.50 C 814.17 379.84, 816.11 379.69, 819.67 379.86 C 823.22 380.03, 825.06 380.36, 828.37 381.35 C 831.67 382.34, 833.33 383.10, 836.19 384.82 C 839.05 386.54, 840.41 387.67, 842.67 389.96 C 844.93 392.25, 845.93 393.61, 847.50 396.29 C 849.07 398.97, 849.68 400.50, 850.50 403.38 C 851.32 406.27, 851.54 407.83, 851.61 410.71 C 851.67 413.60, 851.53 415.06, 850.84 417.82 C 850.15 420.58, 849.57 421.97, 848.16 424.50 C 846.75 427.03, 845.89 428.26, 843.79 430.47 C 841.69 432.67, 840.46 433.73, 837.66 435.52 C 834.86 437.31, 833.18 438.12, 829.79 439.42 C 826.39 440.73, 824.47 441.31, 820.68 442.04 C 816.89 442.77, 814.76 442.98, 810.83 443.09 C 806.91 443.20, 804.79 443.06, 801.04 442.61 C 797.29 442.15, 795.29 441.76, 792.07 440.82 C 788.84 439.88, 787.31 439.04, 784.90 437.89 C 782.50 436.74, 781.46 436.13, 780.05 435.09 C 778.64 434.04, 778.39 433.69, 777.85 432.66 C 777.32 431.63, 777.81 431.07, 777.37 429.94 C 776.92 428.80, 776.79 427.68, 775.62 426.97 C 774.45 426.26, 772.88 425.78, 771.53 426.40 C 770.17 427.02, 769.25 428.06, 768.85 430.06 C 768.45 432.07, 768.48 433.96, 769.52 436.42 C 770.57 438.89, 771.75 440.36, 774.07 442.37 C 776.39 444.39, 777.92 445.18, 781.13 446.50 C 784.33 447.81, 786.27 448.16, 790.09 448.94 C 793.91 449.71, 796.05 450.01, 800.25 450.37 C 804.45 450.72, 806.71 450.86, 811.07 450.71 C 815.44 450.57, 817.78 450.40, 822.07 449.65 C 826.37 448.90, 828.54 448.36, 832.54 446.96 C 836.53 445.56, 838.56 444.75, 842.05 442.67 C 845.55 440.60, 847.24 439.34, 850.01 436.59 C 852.79 433.83, 854.03 432.23, 855.93 428.91 C 857.84 425.59, 858.64 423.68, 859.56 419.98 C 860.47 416.29, 860.63 414.26, 860.49 410.44 C 860.35 406.62, 859.99 404.60, 858.85 400.89 C 857.71 397.19, 856.85 395.27, 854.77 391.91 C 852.70 388.55, 851.38 386.89, 848.48 384.08 C 845.58 381.27, 843.85 379.93, 840.27 377.87 C 836.69 375.81, 834.63 374.94, 830.58 373.78 C 826.53 372.62, 824.29 372.27, 820.02 372.09 C 815.75 371.90, 813.46 372.09, 809.21 372.85 C 804.96 373.61, 802.76 374.28, 798.77 375.89 C 794.78 377.50, 792.78 378.60, 789.26 380.91 C 785.74 383.22, 784.12 384.62, 781.19 387.43 C 778.27 390.23, 776.94 391.81, 774.65 394.92 C 772.35 398.04, 771.48 399.79, 769.72 403.00 C 767.95 406.21, 767.24 407.89, 765.84 410.96 C 764.44 414.02, 763.17 415.64, 762.71 418.33 C 762.25 421.02, 762.64 422.60, 763.55 424.42 C 764.46 426.24, 765.79 426.99, 767.26 427.42 C 768.73 427.85, 769.83 427.66, 770.89 426.56 C 771.95 425.46, 772.39 424.41, 772.55 421.94 C 772.71 419.46, 772.05 417.73, 771.67 414.18 C 771.30 410.63, 771.04 408.43, 770.67 404.19 C 770.30 399.94, 770.14 397.56, 769.82 392.96 C 769.51 388.36, 769.39 385.91, 769.10 381.17 C 768.82 376.44, 768.66 373.96, 768.38 369.28 C 768.10 364.60, 767.94 362.22, 767.72 357.77 C 767.49 353.32, 767.34 351.11, 767.25 347.01 C 767.16 342.92, 767.22 340.87, 767.25 337.30 C 767.29 333.73, 767.82 331.81, 767.42 329.18 C 767.02 326.55, 766.22 325.69, 765.24 324.15 C 764.26 322.62, 763.92 321.98, 762.51 321.51 C 761.11 321.04, 759.54 321.08, 758.21 321.78" style="stroke: black; fill: black;"/><path d="M 883.31,383.47 C 881.90 384.01, 881.60 384.69, 880.74 386.12 C 879.88 387.55, 879.44 388.40, 879.02 390.63 C 878.61 392.87, 878.61 394.44, 878.67 397.31 C 878.73 400.19, 879.13 401.84, 879.32 405.03 C 879.52 408.22, 879.53 409.94, 879.62 413.26 C 879.71 416.58, 879.71 418.36, 879.77 421.64 C 879.83 424.91, 879.74 426.64, 879.92 429.65 C 880.11 432.66, 880.21 434.19, 880.69 436.68 C 881.17 439.16, 881.45 440.47, 882.32 442.06 C 883.19 443.66, 884.06 444.02, 885.02 444.66 C 885.98 445.29, 886.34 445.24, 887.12 445.23 C 887.89 445.22, 888.25 445.01, 888.88 444.60 C 889.52 444.20, 889.74 444.09, 890.27 443.19 C 890.81 442.29, 891.35 441.71, 891.54 440.10 C 891.72 438.50, 891.40 437.43, 891.20 435.16 C 891.00 432.90, 890.81 431.56, 890.52 428.78 C 890.23 426.00, 889.93 424.36, 889.75 421.26 C 889.57 418.15, 889.53 416.44, 889.62 413.26 C 889.71 410.08, 889.82 408.43, 890.20 405.35 C 890.58 402.27, 891.21 400.69, 891.51 397.85 C 891.80 395.01, 891.91 393.46, 891.68 391.16 C 891.46 388.86, 891.15 387.90, 890.37 386.36 C 889.59 384.82, 889.19 384.02, 887.77 383.45 C 886.36 382.87, 884.71 382.94, 883.31 383.47" style="stroke: black; fill: black;"/><path d="M 883.98,342.08 C 885.45 342.78, 886.43 343.29, 886.59 343.09 C 886.76 342.90, 886.05 342.24, 884.81 341.12 C 883.57 340.01, 881.88 338.34, 880.40 337.52 C 878.93 336.70, 877.66 336.60, 877.43 337.01 C 877.19 337.43, 877.91 338.59, 879.22 339.61 C 880.53 340.62, 882.50 341.39, 883.98 342.08" style="stroke: black; fill: black;"/><path d="M 926.63,384.07 C 925.32 384.84, 925.01 385.60, 924.39 387.29 C 923.77 388.97, 923.44 390.08, 923.52 392.51 C 923.61 394.94, 924.21 396.50, 924.83 399.43 C 925.46 402.35, 926.07 403.90, 926.66 407.16 C 927.25 410.42, 927.44 412.25, 927.79 415.73 C 928.15 419.21, 928.29 421.11, 928.45 424.54 C 928.61 427.98, 928.54 429.79, 928.59 432.89 C 928.65 435.99, 928.40 437.66, 928.74 440.03 C 929.07 442.41, 929.29 443.52, 930.29 444.77 C 931.29 446.02, 932.23 446.33, 933.72 446.28 C 935.21 446.23, 936.52 445.75, 937.72 444.52 C 938.92 443.29, 939.50 442.29, 939.73 440.12 C 939.97 437.96, 939.35 436.55, 938.89 433.71 C 938.43 430.87, 937.72 429.12, 937.43 425.92 C 937.14 422.73, 937.16 421.00, 937.43 417.74 C 937.70 414.48, 938.02 412.79, 938.80 409.61 C 939.58 406.44, 940.04 404.81, 941.33 401.85 C 942.61 398.90, 943.40 397.45, 945.24 394.84 C 947.08 392.24, 948.14 390.97, 950.53 388.81 C 952.91 386.66, 954.29 385.64, 957.15 384.08 C 960.01 382.53, 961.69 381.86, 964.83 381.02 C 967.96 380.17, 969.63 379.91, 972.83 379.87 C 976.02 379.83, 977.75 380.02, 980.81 380.82 C 983.88 381.62, 985.39 382.25, 988.14 383.85 C 990.89 385.45, 992.22 386.44, 994.56 388.83 C 996.90 391.21, 997.99 392.68, 999.84 395.77 C 1001.70 398.87, 1002.50 400.66, 1003.85 404.29 C 1005.20 407.91, 1005.73 409.96, 1006.59 413.89 C 1007.45 417.81, 1007.67 419.93, 1008.17 423.89 C 1008.67 427.86, 1008.77 429.95, 1009.10 433.69 C 1009.42 437.43, 1009.34 439.50, 1009.79 442.60 C 1010.24 445.70, 1010.51 447.16, 1011.34 449.19 C 1012.18 451.23, 1012.98 451.79, 1013.97 452.77 C 1014.96 453.74, 1015.39 453.99, 1016.31 454.07 C 1017.24 454.16, 1017.93 453.79, 1018.60 453.19 C 1019.26 452.60, 1019.28 452.29, 1019.63 451.10 C 1019.98 449.90, 1020.43 449.26, 1020.37 447.22 C 1020.32 445.19, 1019.97 443.86, 1019.36 440.92 C 1018.76 437.98, 1018.04 436.16, 1017.33 432.54 C 1016.62 428.91, 1016.48 426.84, 1015.81 422.78 C 1015.14 418.72, 1014.94 416.46, 1013.99 412.24 C 1013.04 408.01, 1012.54 405.74, 1011.07 401.65 C 1009.60 397.56, 1008.78 395.46, 1006.65 391.77 C 1004.51 388.08, 1003.26 386.21, 1000.40 383.20 C 997.55 380.19, 995.86 378.81, 992.36 376.72 C 988.87 374.63, 986.87 373.78, 982.94 372.74 C 979.02 371.69, 976.80 371.46, 972.74 371.49 C 968.69 371.53, 966.59 371.87, 962.67 372.90 C 958.75 373.93, 956.69 374.74, 953.13 376.65 C 949.57 378.57, 947.83 379.84, 944.86 382.48 C 941.89 385.12, 940.55 386.68, 938.26 389.85 C 935.97 393.02, 935.01 394.82, 933.41 398.32 C 931.81 401.82, 931.31 403.71, 930.28 407.36 C 929.25 411.00, 928.90 412.88, 928.27 416.54 C 927.63 420.21, 927.56 422.12, 927.11 425.67 C 926.65 429.23, 926.16 431.14, 925.99 434.33 C 925.82 437.52, 925.52 439.27, 926.26 441.63 C 926.99 443.99, 928.02 445.07, 929.69 446.15 C 931.36 447.22, 932.91 447.33, 934.61 447.02 C 936.31 446.71, 937.26 446.11, 938.20 444.60 C 939.14 443.09, 939.21 441.94, 939.30 439.48 C 939.38 437.02, 938.95 435.40, 938.63 432.29 C 938.32 429.18, 938.04 427.37, 937.73 423.91 C 937.42 420.45, 937.28 418.54, 937.09 415.00 C 936.89 411.45, 936.81 409.58, 936.75 406.17 C 936.69 402.76, 936.89 401.03, 936.79 397.96 C 936.68 394.90, 936.77 393.23, 936.22 390.83 C 935.67 388.43, 935.08 387.46, 934.03 385.98 C 932.98 384.50, 932.45 383.82, 930.97 383.44 C 929.49 383.06, 927.94 383.30, 926.63 384.07" style="stroke: black; fill: black;"/><path d="M 1087.77,398.54 C 1088.54 396.99, 1088.40 395.47, 1087.57 393.48 C 1086.73 391.48, 1085.76 390.30, 1083.59 388.57 C 1081.43 386.84, 1079.78 385.81, 1076.74 384.84 C 1073.70 383.88, 1071.85 383.75, 1068.40 383.76 C 1064.96 383.76, 1063.16 384.15, 1059.52 384.87 C 1055.89 385.59, 1053.93 386.06, 1050.22 387.36 C 1046.51 388.66, 1044.55 389.47, 1040.98 391.37 C 1037.41 393.28, 1035.55 394.40, 1032.39 396.88 C 1029.23 399.36, 1027.62 400.74, 1025.18 403.75 C 1022.73 406.77, 1021.55 408.45, 1020.17 411.94 C 1018.79 415.43, 1018.24 417.49, 1018.29 421.21 C 1018.35 424.92, 1018.78 427.08, 1020.44 430.52 C 1022.09 433.96, 1023.50 435.68, 1026.57 438.42 C 1029.64 441.16, 1031.63 442.32, 1035.79 444.20 C 1039.95 446.09, 1042.44 446.80, 1047.36 447.85 C 1052.27 448.90, 1055.05 449.20, 1060.36 449.47 C 1065.66 449.74, 1068.57 449.65, 1073.89 449.22 C 1079.20 448.78, 1082.02 448.36, 1086.93 447.30 C 1091.83 446.25, 1094.17 445.52, 1098.41 443.92 C 1102.65 442.32, 1104.76 441.49, 1108.11 439.29 C 1111.46 437.08, 1113.03 435.81, 1115.14 432.89 C 1117.25 429.97, 1118.01 428.11, 1118.68 424.69 C 1119.35 421.27, 1119.34 419.22, 1118.49 415.79 C 1117.63 412.36, 1116.53 410.58, 1114.42 407.53 C 1112.31 404.48, 1110.77 403.10, 1107.96 400.55 C 1105.14 398.01, 1103.45 396.91, 1100.34 394.80 C 1097.24 392.70, 1095.56 391.50, 1092.45 390.03 C 1089.34 388.56, 1087.49 387.76, 1084.81 387.45 C 1082.13 387.14, 1080.43 387.52, 1079.05 388.47 C 1077.68 389.41, 1077.39 390.65, 1077.92 392.18 C 1078.45 393.71, 1079.67 394.73, 1081.71 396.10 C 1083.75 397.48, 1085.43 397.76, 1088.13 399.06 C 1090.82 400.37, 1092.51 400.93, 1095.18 402.64 C 1097.85 404.34, 1099.26 405.47, 1101.46 407.57 C 1103.67 409.66, 1104.74 410.94, 1106.19 413.13 C 1107.63 415.31, 1108.05 416.47, 1108.70 418.48 C 1109.35 420.50, 1109.61 421.31, 1109.42 423.20 C 1109.24 425.08, 1108.95 425.96, 1107.77 427.91 C 1106.60 429.86, 1105.95 431.02, 1103.55 432.93 C 1101.15 434.85, 1099.38 435.87, 1095.77 437.49 C 1092.15 439.11, 1089.97 439.94, 1085.49 441.04 C 1081.01 442.13, 1078.33 442.56, 1073.38 442.96 C 1068.44 443.35, 1065.65 443.40, 1060.77 443.02 C 1055.89 442.64, 1053.30 442.21, 1048.98 441.06 C 1044.67 439.90, 1042.51 439.02, 1039.21 437.24 C 1035.90 435.46, 1034.54 434.28, 1032.46 432.17 C 1030.39 430.05, 1029.77 428.87, 1028.82 426.65 C 1027.86 424.44, 1027.71 423.37, 1027.68 421.09 C 1027.66 418.80, 1027.83 417.59, 1028.71 415.22 C 1029.58 412.85, 1030.26 411.54, 1032.06 409.22 C 1033.85 406.90, 1035.11 405.65, 1037.68 403.61 C 1040.26 401.57, 1041.89 400.55, 1044.94 399.03 C 1047.99 397.50, 1049.75 396.88, 1052.95 396.00 C 1056.15 395.12, 1057.94 394.85, 1060.93 394.61 C 1063.92 394.38, 1065.51 394.56, 1067.91 394.82 C 1070.31 395.09, 1071.20 395.27, 1072.94 395.94 C 1074.68 396.62, 1075.22 397.33, 1076.59 398.18 C 1077.96 399.03, 1078.38 399.58, 1079.80 400.19 C 1081.22 400.81, 1082.10 401.59, 1083.69 401.26 C 1085.29 400.93, 1087.00 400.10, 1087.77 398.54" style="stroke: black; fill: black;"/></svg>