<svg xmlns="http://www.w3.org/2000/svg" id="canvas" viewBox="454.109 299.319 536.371 185.743"><path d="M 478.56,322.09 C 477.13 323.08, 476.39 324.37, 475.91 326.99 C 475.43 329.61, 475.92 331.33, 476.17 335.21 C 476.43 339.08, 476.80 341.63, 477.17 346.36 C 477.55 351.09, 477.73 353.63, 478.04 358.86 C 478.35 364.09, 478.45 366.90, 478.72 372.49 C 478.99 378.09, 479.11 381.08, 479.40 386.83 C 479.69 392.58, 479.86 395.57, 480.18 401.24 C 480.50 406.91, 480.70 409.82, 480.99 415.17 C 481.28 420.52, 481.45 423.22, 481.62 427.99 C 481.80 432.76, 481.91 435.12, 481.84 439.02 C 481.77 442.92, 481.03 444.84, 481.29 447.50 C 481.54 450.15, 482.41 450.92, 483.12 452.30 C 483.83 453.69, 484.05 454.00, 484.85 454.43 C 485.65 454.87, 486.30 454.92, 487.12 454.48 C 487.94 454.05, 488.25 453.74, 488.95 452.28 C 489.66 450.82, 490.56 449.91, 490.63 447.17 C 490.70 444.43, 489.84 442.49, 489.30 438.57 C 488.75 434.64, 488.43 432.30, 487.92 427.54 C 487.40 422.78, 487.17 420.10, 486.73 414.78 C 486.29 409.45, 486.07 406.56, 485.72 400.91 C 485.36 395.27, 485.20 392.30, 484.97 386.57 C 484.73 380.85, 484.63 377.87, 484.53 372.30 C 484.42 366.72, 484.40 363.92, 484.45 358.70 C 484.50 353.49, 484.60 350.92, 484.79 346.21 C 484.97 341.50, 485.19 338.98, 485.38 335.14 C 485.57 331.30, 486.22 329.62, 485.75 327.01 C 485.29 324.40, 484.49 323.05, 483.05 322.07 C 481.61 321.08, 479.99 321.11, 478.56 322.09" style="stroke: black; fill: black;"/><path d="M 461.36,324.87 C 462.96 325.08, 463.87 324.28, 465.56 323.29 C 467.24 322.30, 467.81 321.60, 469.78 319.92 C 471.75 318.24, 472.56 316.62, 475.42 314.87 C 478.27 313.12, 480.10 312.33, 484.03 311.16 C 487.97 309.99, 490.36 309.50, 495.09 309.02 C 499.82 308.55, 502.46 308.40, 507.68 308.78 C 512.90 309.17, 515.76 309.54, 521.20 310.95 C 526.64 312.36, 529.55 313.33, 534.87 315.83 C 540.19 318.32, 542.94 319.86, 547.80 323.41 C 552.66 326.96, 555.05 329.09, 559.16 333.58 C 563.27 338.07, 565.18 340.62, 568.36 345.87 C 571.53 351.12, 572.91 354.07, 575.05 359.83 C 577.19 365.59, 578.00 368.73, 579.05 374.69 C 580.09 380.64, 580.34 383.69, 580.26 389.58 C 580.18 395.48, 579.82 398.53, 578.64 404.15 C 577.45 409.78, 576.51 412.57, 574.34 417.70 C 572.17 422.84, 570.82 425.32, 567.78 429.81 C 564.74 434.30, 562.97 436.45, 559.13 440.14 C 555.29 443.84, 553.04 445.44, 548.58 448.27 C 544.11 451.10, 541.68 452.34, 536.81 454.29 C 531.94 456.23, 529.32 456.96, 524.23 457.99 C 519.15 459.01, 516.41 459.26, 511.39 459.41 C 506.37 459.57, 503.76 459.41, 499.11 458.76 C 494.47 458.12, 492.10 457.52, 488.16 456.18 C 484.22 454.84, 482.30 453.91, 479.41 452.08 C 476.53 450.25, 475.38 449.11, 473.72 447.05 C 472.06 444.99, 471.99 443.71, 471.10 441.80 C 470.21 439.88, 470.09 439.01, 469.26 437.45 C 468.43 435.90, 468.17 434.67, 466.94 434.02 C 465.70 433.36, 464.27 433.20, 463.09 434.16 C 461.92 435.12, 461.26 436.48, 461.08 438.81 C 460.89 441.15, 460.90 443.02, 462.17 445.86 C 463.44 448.70, 464.73 450.47, 467.44 453.02 C 470.16 455.57, 471.99 456.69, 475.74 458.61 C 479.49 460.52, 481.67 461.33, 486.19 462.59 C 490.72 463.84, 493.28 464.36, 498.36 464.90 C 503.45 465.44, 506.22 465.54, 511.63 465.27 C 517.03 465.01, 519.94 464.72, 525.39 463.56 C 530.84 462.40, 533.66 461.59, 538.89 459.47 C 544.13 457.34, 546.74 456.00, 551.54 452.92 C 556.35 449.83, 558.77 448.07, 562.90 444.04 C 567.03 440.01, 568.94 437.65, 572.19 432.78 C 575.44 427.92, 576.86 425.24, 579.14 419.72 C 581.43 414.20, 582.40 411.20, 583.62 405.18 C 584.84 399.17, 585.18 395.91, 585.24 389.64 C 585.29 383.37, 585.00 380.13, 583.88 373.83 C 582.75 367.53, 581.88 364.23, 579.61 358.13 C 577.34 352.04, 575.88 348.93, 572.52 343.35 C 569.16 337.78, 567.14 335.07, 562.80 330.27 C 558.45 325.47, 555.92 323.19, 550.79 319.36 C 545.65 315.53, 542.75 313.87, 537.12 311.12 C 531.49 308.38, 528.43 307.29, 522.65 305.63 C 516.88 303.98, 513.84 303.49, 508.24 302.85 C 502.64 302.21, 499.85 302.26, 494.66 302.43 C 489.48 302.61, 486.96 302.92, 482.32 303.73 C 477.67 304.55, 475.38 305.03, 471.44 306.50 C 467.50 307.97, 465.30 308.99, 462.61 311.08 C 459.93 313.18, 459.03 314.73, 458.01 316.97 C 456.99 319.20, 456.85 320.68, 457.52 322.26 C 458.19 323.84, 459.75 324.67, 461.36 324.87" style="stroke: black; fill: black;"/><path d="M 645.30,388.48 C 645.79 386.79, 645.34 385.31, 644.18 383.37 C 643.01 381.43, 641.89 380.33, 639.47 378.78 C 637.06 377.24, 635.25 376.40, 632.11 375.65 C 628.97 374.91, 627.20 374.92, 623.77 375.05 C 620.34 375.19, 618.56 375.51, 614.94 376.33 C 611.33 377.15, 609.42 377.68, 605.70 379.16 C 601.98 380.63, 600.01 381.56, 596.33 383.70 C 592.66 385.84, 590.71 387.12, 587.31 389.86 C 583.92 392.60, 582.21 394.14, 579.36 397.40 C 576.50 400.67, 575.06 402.49, 573.05 406.20 C 571.04 409.91, 570.13 411.95, 569.30 415.95 C 568.48 419.96, 568.29 422.20, 568.92 426.20 C 569.55 430.21, 570.27 432.44, 572.45 435.98 C 574.64 439.53, 576.30 441.24, 579.85 443.92 C 583.41 446.61, 585.64 447.72, 590.24 449.41 C 594.85 451.10, 597.54 451.67, 602.86 452.37 C 608.18 453.06, 611.17 453.12, 616.84 452.87 C 622.52 452.61, 625.60 452.22, 631.23 451.09 C 636.87 449.96, 639.85 449.09, 645.01 447.21 C 650.17 445.33, 652.71 444.20, 657.03 441.71 C 661.35 439.22, 663.35 437.82, 666.60 434.77 C 669.85 431.72, 671.34 430.02, 673.28 426.47 C 675.22 422.92, 675.90 420.83, 676.31 417.01 C 676.71 413.20, 676.38 411.04, 675.31 407.39 C 674.24 403.74, 673.18 401.90, 670.97 398.76 C 668.77 395.61, 667.18 394.21, 664.29 391.67 C 661.40 389.12, 659.63 387.99, 656.51 386.05 C 653.38 384.12, 651.47 382.98, 648.68 381.97 C 645.89 380.97, 644.60 380.98, 642.56 381.02 C 640.53 381.06, 639.60 381.58, 638.48 382.17 C 637.37 382.75, 637.24 383.20, 636.97 383.94 C 636.70 384.68, 636.94 385.16, 637.13 385.86 C 637.32 386.56, 637.31 386.68, 637.94 387.44 C 638.56 388.21, 638.90 388.74, 640.25 389.69 C 641.61 390.63, 642.39 391.17, 644.69 392.16 C 647.00 393.14, 649.03 393.30, 651.77 394.61 C 654.50 395.91, 656.00 396.79, 658.35 398.69 C 660.71 400.58, 661.85 401.80, 663.53 404.08 C 665.21 406.36, 665.88 407.63, 666.74 410.09 C 667.60 412.55, 667.90 413.80, 667.83 416.38 C 667.76 418.95, 667.60 420.28, 666.37 422.97 C 665.15 425.67, 664.24 427.18, 661.72 429.85 C 659.21 432.52, 657.55 433.96, 653.80 436.32 C 650.04 438.69, 647.68 439.87, 642.95 441.68 C 638.21 443.50, 635.36 444.36, 630.10 445.41 C 624.84 446.45, 621.90 446.78, 616.64 446.90 C 611.38 447.02, 608.57 446.83, 603.80 446.02 C 599.04 445.21, 596.65 444.50, 592.81 442.87 C 588.97 441.24, 587.27 440.11, 584.60 437.89 C 581.93 435.67, 580.94 434.38, 579.44 431.78 C 577.94 429.19, 577.54 427.78, 577.10 424.93 C 576.67 422.09, 576.70 420.56, 577.28 417.56 C 577.86 414.56, 578.43 412.93, 580.02 409.92 C 581.60 406.91, 582.77 405.29, 585.20 402.50 C 587.63 399.71, 589.15 398.32, 592.16 395.99 C 595.18 393.65, 596.98 392.55, 600.27 390.83 C 603.57 389.12, 605.38 388.44, 608.64 387.43 C 611.90 386.41, 613.60 386.11, 616.59 385.78 C 619.57 385.45, 621.10 385.55, 623.56 385.79 C 626.02 386.04, 626.91 386.32, 628.88 387.03 C 630.85 387.74, 631.69 388.51, 633.41 389.34 C 635.13 390.17, 635.79 390.68, 637.46 391.18 C 639.13 391.68, 640.19 392.36, 641.76 391.82 C 643.33 391.29, 644.82 390.18, 645.30 388.48" style="stroke: black; fill: black;"/><path d="M 691.47,380.61 C 690.09 381.09, 689.60 381.62, 688.73 383.15 C 687.87 384.67, 687.28 385.79, 687.14 388.24 C 687.01 390.69, 687.50 392.33, 688.05 395.40 C 688.61 398.47, 689.26 400.20, 689.94 403.60 C 690.61 407.01, 690.87 408.89, 691.42 412.43 C 691.97 415.98, 691.85 417.93, 692.67 421.35 C 693.49 424.77, 693.91 428.04, 695.53 429.54 C 697.15 431.04, 699.59 430.72, 700.77 428.86 C 701.96 427.00, 701.51 423.75, 701.47 420.25 C 701.43 416.75, 700.87 414.90, 700.57 411.35 C 700.28 407.80, 700.06 405.92, 699.99 402.51 C 699.92 399.10, 700.21 397.32, 700.23 394.31 C 700.25 391.31, 700.48 389.74, 700.07 387.49 C 699.66 385.24, 699.09 384.41, 698.20 383.06 C 697.31 381.71, 696.96 381.23, 695.62 380.73 C 694.27 380.24, 692.84 380.12, 691.47 380.61" style="stroke: black; fill: black;"/><path d="M 700.10,456.45 C 701.19 455.16, 701.07 453.84, 701.11 451.68 C 701.15 449.51, 700.97 448.35, 700.29 445.63 C 699.62 442.90, 698.63 441.21, 697.74 438.06 C 696.86 434.91, 696.46 433.20, 695.87 429.88 C 695.28 426.55, 695.01 424.76, 694.82 421.45 C 694.62 418.13, 694.60 416.41, 694.88 413.30 C 695.17 410.19, 695.41 408.68, 696.24 405.91 C 697.07 403.13, 697.66 401.84, 699.05 399.43 C 700.44 397.03, 701.30 395.86, 703.20 393.90 C 705.10 391.94, 706.20 391.04, 708.55 389.64 C 710.89 388.25, 712.24 387.67, 714.91 386.94 C 717.57 386.22, 719.03 386.00, 721.86 386.01 C 724.68 386.02, 726.20 386.22, 729.02 386.99 C 731.85 387.76, 733.34 388.34, 736.00 389.87 C 738.67 391.41, 739.98 392.35, 742.36 394.65 C 744.74 396.96, 745.88 398.37, 747.90 401.41 C 749.93 404.44, 750.86 406.24, 752.48 409.82 C 754.09 413.40, 754.76 415.41, 755.99 419.31 C 757.22 423.22, 757.68 425.37, 758.62 429.34 C 759.55 433.30, 759.92 435.37, 760.67 439.15 C 761.41 442.92, 761.57 444.90, 762.34 448.19 C 763.11 451.48, 763.43 453.35, 764.52 455.60 C 765.60 457.86, 766.53 458.39, 767.75 459.46 C 768.97 460.54, 769.56 460.93, 770.62 460.98 C 771.69 461.03, 772.46 460.52, 773.07 459.71 C 773.69 458.89, 773.58 458.39, 773.71 456.92 C 773.85 455.45, 774.26 454.61, 773.76 452.36 C 773.26 450.10, 772.25 448.65, 771.20 445.63 C 770.15 442.61, 769.53 440.89, 768.49 437.26 C 767.45 433.63, 767.07 431.53, 766.00 427.49 C 764.94 423.45, 764.46 421.21, 763.16 417.06 C 761.86 412.91, 761.22 410.73, 759.51 406.73 C 757.79 402.74, 756.86 400.67, 754.61 397.08 C 752.36 393.49, 751.10 391.71, 748.28 388.78 C 745.46 385.84, 743.84 384.49, 740.49 382.41 C 737.14 380.32, 735.22 379.47, 731.52 378.35 C 727.82 377.23, 725.79 376.91, 721.99 376.82 C 718.19 376.74, 716.16 376.98, 712.52 377.93 C 708.87 378.88, 706.98 379.66, 703.76 381.55 C 700.55 383.44, 699.00 384.73, 696.44 387.40 C 693.89 390.06, 692.79 391.68, 691.01 394.87 C 689.22 398.06, 688.53 399.83, 687.52 403.36 C 686.52 406.89, 686.29 408.81, 685.97 412.51 C 685.65 416.21, 685.79 418.15, 685.92 421.86 C 686.04 425.57, 686.29 427.42, 686.60 431.06 C 686.91 434.71, 687.04 436.55, 687.46 440.08 C 687.89 443.60, 687.90 445.72, 688.73 448.68 C 689.55 451.64, 690.19 452.97, 691.59 454.86 C 692.98 456.76, 694.00 457.83, 695.70 458.15 C 697.40 458.46, 699.02 457.74, 700.10 456.45" style="stroke: black; fill: black;"/><path d="M 785.41,392.93 C 784.18 393.78, 784.02 394.49, 783.50 396.17 C 782.98 397.86, 782.59 398.91, 782.80 401.35 C 783.01 403.78, 783.79 405.35, 784.54 408.36 C 785.29 411.38, 785.86 413.06, 786.55 416.43 C 787.24 419.80, 787.52 421.69, 787.99 425.20 C 788.46 428.71, 788.65 430.60, 788.89 433.99 C 789.14 437.39, 789.06 439.21, 789.22 442.20 C 789.39 445.18, 789.23 446.68, 789.72 448.91 C 790.21 451.13, 790.47 452.23, 791.67 453.31 C 792.87 454.39, 794.13 454.64, 795.74 454.32 C 797.36 454.00, 798.64 453.29, 799.74 451.73 C 800.85 450.16, 801.28 448.94, 801.26 446.51 C 801.24 444.08, 800.29 442.52, 799.64 439.58 C 799.00 436.64, 798.42 434.94, 798.04 431.81 C 797.65 428.69, 797.61 427.02, 797.72 423.96 C 797.84 420.91, 798.02 419.37, 798.61 416.53 C 799.20 413.68, 799.61 412.28, 800.69 409.74 C 801.77 407.19, 802.44 405.94, 804.01 403.79 C 805.58 401.64, 806.48 400.68, 808.53 398.98 C 810.58 397.28, 811.79 396.47, 814.25 395.29 C 816.71 394.10, 818.08 393.61, 820.84 393.07 C 823.60 392.53, 825.14 392.41, 828.06 392.60 C 830.97 392.79, 832.56 393.04, 835.43 394.01 C 838.30 394.98, 839.71 395.65, 842.40 397.45 C 845.09 399.25, 846.47 400.40, 848.87 403.01 C 851.27 405.61, 852.42 407.18, 854.42 410.48 C 856.42 413.78, 857.30 415.71, 858.86 419.51 C 860.42 423.31, 861.03 425.47, 862.22 429.50 C 863.41 433.53, 863.85 435.68, 864.81 439.67 C 865.76 443.65, 866.15 445.70, 866.99 449.40 C 867.83 453.10, 867.96 455.22, 869.01 458.16 C 870.06 461.11, 870.88 462.38, 872.25 464.12 C 873.62 465.87, 874.54 466.59, 875.87 466.88 C 877.21 467.17, 878.19 466.71, 878.93 465.58 C 879.66 464.46, 879.69 463.36, 879.53 461.24 C 879.38 459.13, 879.09 457.84, 878.16 455.02 C 877.24 452.20, 876.10 450.59, 874.89 447.14 C 873.68 443.68, 873.24 441.70, 872.12 437.75 C 870.99 433.80, 870.54 431.59, 869.27 427.39 C 867.99 423.18, 867.39 420.90, 865.74 416.74 C 864.09 412.58, 863.21 410.41, 861.03 406.60 C 858.86 402.79, 857.63 400.89, 854.87 397.68 C 852.10 394.47, 850.51 392.94, 847.22 390.56 C 843.93 388.18, 842.10 387.16, 838.42 385.76 C 834.74 384.36, 832.65 383.92, 828.81 383.55 C 824.96 383.17, 822.91 383.27, 819.19 383.89 C 815.47 384.52, 813.59 385.14, 810.23 386.68 C 806.88 388.21, 805.22 389.27, 802.42 391.56 C 799.62 393.86, 798.34 395.25, 796.24 398.14 C 794.14 401.04, 793.29 402.76, 791.91 406.04 C 790.54 409.32, 790.13 411.10, 789.38 414.56 C 788.62 418.01, 788.48 419.79, 788.15 423.31 C 787.82 426.83, 787.88 428.68, 787.71 432.16 C 787.55 435.63, 787.42 437.47, 787.32 440.68 C 787.23 443.89, 786.66 445.71, 787.24 448.21 C 787.82 450.72, 788.69 451.90, 790.23 453.18 C 791.76 454.47, 793.22 454.71, 794.92 454.63 C 796.63 454.56, 797.73 454.11, 798.76 452.80 C 799.79 451.49, 799.95 450.40, 800.08 448.09 C 800.21 445.78, 799.80 444.26, 799.41 441.25 C 799.02 438.24, 798.59 436.45, 798.13 433.03 C 797.66 429.61, 797.44 427.72, 797.09 424.15 C 796.74 420.58, 796.57 418.68, 796.38 415.17 C 796.19 411.66, 796.34 409.81, 796.14 406.60 C 795.95 403.40, 796.06 401.61, 795.41 399.14 C 794.76 396.68, 794.06 395.73, 792.90 394.28 C 791.75 392.84, 791.15 392.19, 789.65 391.92 C 788.15 391.65, 786.64 392.08, 785.41 392.93" style="stroke: black; fill: black;"/><path d="M 950.49,412.50 C 951.44 410.98, 951.38 409.36, 950.80 407.16 C 950.22 404.95, 949.45 403.61, 947.58 401.47 C 945.71 399.33, 944.22 398.04, 941.44 396.46 C 938.67 394.88, 937.00 394.28, 933.72 393.58 C 930.44 392.87, 928.66 392.86, 925.06 392.95 C 921.46 393.03, 919.52 393.21, 915.72 394.00 C 911.92 394.78, 909.86 395.36, 906.04 396.88 C 902.22 398.40, 900.26 399.41, 896.62 401.60 C 892.99 403.79, 891.11 405.05, 887.87 407.82 C 884.63 410.59, 882.99 412.17, 880.43 415.45 C 877.86 418.73, 876.63 420.57, 875.03 424.22 C 873.43 427.87, 872.78 429.90, 872.43 433.72 C 872.08 437.54, 872.23 439.67, 873.27 443.30 C 874.31 446.94, 875.28 448.85, 877.64 451.88 C 879.99 454.90, 881.67 456.30, 885.05 458.42 C 888.44 460.55, 890.50 461.37, 894.57 462.52 C 898.63 463.67, 901.00 463.98, 905.39 464.19 C 909.77 464.40, 912.12 464.21, 916.50 463.56 C 920.88 462.91, 923.16 462.32, 927.28 460.93 C 931.40 459.53, 933.48 458.63, 937.09 456.58 C 940.70 454.54, 942.37 453.26, 945.32 450.71 C 948.27 448.17, 949.64 446.79, 951.84 443.85 C 954.05 440.90, 954.96 439.22, 956.35 436.00 C 957.73 432.78, 958.15 431.02, 958.78 427.74 C 959.40 424.47, 959.66 422.69, 959.46 419.62 C 959.26 416.55, 959.13 414.51, 957.79 412.41 C 956.46 410.31, 954.91 409.44, 952.78 409.12 C 950.66 408.79, 948.93 409.29, 947.18 410.80 C 945.44 412.30, 944.36 413.84, 944.05 416.62 C 943.75 419.41, 944.66 421.29, 945.66 424.72 C 946.67 428.16, 947.63 430.11, 949.06 433.81 C 950.49 437.51, 951.20 439.46, 952.82 443.21 C 954.44 446.96, 955.26 448.86, 957.16 452.57 C 959.06 456.28, 960.12 458.21, 962.31 461.76 C 964.51 465.31, 965.72 467.22, 968.15 470.32 C 970.58 473.42, 971.97 475.08, 974.45 477.27 C 976.94 479.46, 978.35 480.36, 980.57 481.26 C 982.78 482.17, 984.16 482.25, 985.54 481.78 C 986.92 481.31, 987.49 480.31, 987.48 478.90 C 987.47 477.49, 986.82 476.49, 985.49 474.72 C 984.17 472.96, 983.05 472.05, 980.86 470.08 C 978.68 468.10, 976.92 467.36, 974.55 464.85 C 972.18 462.34, 971.07 460.67, 969.00 457.51 C 966.93 454.35, 965.90 452.50, 964.20 449.04 C 962.49 445.58, 961.73 443.77, 960.49 440.21 C 959.26 436.65, 958.67 434.77, 958.02 431.24 C 957.37 427.70, 957.49 425.66, 957.26 422.54 C 957.02 419.41, 957.53 417.74, 956.84 415.61 C 956.14 413.48, 955.16 412.67, 953.79 411.89 C 952.42 411.11, 951.24 411.08, 949.99 411.70 C 948.74 412.32, 947.90 413.22, 947.54 414.98 C 947.17 416.74, 947.94 418.21, 948.15 420.49 C 948.37 422.77, 948.75 423.96, 948.61 426.38 C 948.46 428.79, 948.25 430.09, 947.44 432.57 C 946.63 435.04, 946.11 436.34, 944.57 438.74 C 943.03 441.13, 942.02 442.34, 939.73 444.54 C 937.43 446.75, 936.08 447.94, 933.09 449.76 C 930.10 451.59, 928.32 452.43, 924.78 453.67 C 921.25 454.91, 919.19 455.43, 915.41 455.94 C 911.63 456.46, 909.56 456.54, 905.87 456.26 C 902.19 455.97, 900.19 455.56, 896.99 454.51 C 893.79 453.47, 892.28 452.67, 889.86 451.03 C 887.44 449.39, 886.44 448.35, 884.87 446.29 C 883.30 444.23, 882.75 443.10, 882.02 440.72 C 881.29 438.35, 881.07 437.06, 881.22 434.41 C 881.37 431.76, 881.66 430.29, 882.79 427.49 C 883.91 424.68, 884.79 423.11, 886.84 420.38 C 888.89 417.66, 890.26 416.24, 893.04 413.88 C 895.81 411.51, 897.52 410.38, 900.71 408.58 C 903.89 406.78, 905.67 405.96, 908.98 404.87 C 912.28 403.77, 914.07 403.46, 917.23 403.09 C 920.40 402.72, 922.04 402.75, 924.79 403.00 C 927.54 403.25, 928.85 403.68, 930.97 404.36 C 933.09 405.03, 933.82 405.31, 935.39 406.38 C 936.95 407.45, 937.47 408.43, 938.79 409.70 C 940.12 410.98, 940.55 411.72, 942.01 412.73 C 943.46 413.74, 944.37 414.80, 946.07 414.75 C 947.77 414.71, 949.55 414.02, 950.49 412.50" style="stroke: black; fill: black;"/></svg>