<svg xmlns="http://www.w3.org/2000/svg" id="canvas" viewBox="219.568 371.609 783.758 51.395">
    <path d="M 224.04,374.84 C 223.87 375.14, 223.83 375.51, 223.69 376.37 C 223.55 377.23, 223.45 377.78, 223.34 379.13 C 223.24 380.48, 223.23 381.43, 223.16 383.11 C 223.08 384.80, 223.06 385.78, 222.98 387.55 C 222.90 389.33, 222.83 390.28, 222.75 391.99 C 222.68 393.70, 222.64 394.56, 222.60 396.09 C 222.57 397.62, 222.55 398.34, 222.59 399.64 C 222.64 400.94, 222.67 401.53, 222.81 402.58 C 222.95 403.63, 223.02 404.09, 223.29 404.91 C 223.56 405.73, 223.70 406.08, 224.14 406.67 C 224.58 407.26, 224.86 407.51, 225.49 407.88 C 226.12 408.24, 226.50 408.36, 227.31 408.49 C 228.13 408.62, 228.59 408.61, 229.56 408.54 C 230.53 408.47, 231.08 408.37, 232.16 408.14 C 233.24 407.91, 233.84 407.73, 234.97 407.38 C 236.11 407.04, 236.71 406.82, 237.83 406.41 C 238.94 406.00, 239.51 405.76, 240.54 405.33 C 241.57 404.91, 242.08 404.69, 242.97 404.27 C 243.87 403.86, 244.35 403.60, 245.01 403.25 C 245.68 402.91, 245.90 402.78, 246.30 402.55 C 246.70 402.31, 246.81 402.22, 247.02 402.07 C 247.24 401.92, 247.32 401.91, 247.38 401.79 C 247.43 401.67, 247.41 401.55, 247.30 401.47 C 247.18 401.40, 247.07 401.38, 246.78 401.41 C 246.50 401.43, 246.34 401.46, 245.88 401.60 C 245.42 401.74, 245.18 401.83, 244.48 402.12 C 243.79 402.40, 243.31 402.64, 242.41 403.03 C 241.52 403.42, 241.03 403.66, 240.02 404.06 C 239.01 404.46, 238.44 404.68, 237.34 405.06 C 236.25 405.44, 235.65 405.64, 234.55 405.96 C 233.45 406.29, 232.87 406.45, 231.84 406.67 C 230.82 406.89, 230.30 406.98, 229.43 407.08 C 228.55 407.18, 228.15 407.22, 227.47 407.18 C 226.79 407.13, 226.52 407.09, 226.03 406.86 C 225.54 406.63, 225.35 406.48, 225.02 406.03 C 224.69 405.57, 224.58 405.30, 224.38 404.58 C 224.17 403.86, 224.11 403.43, 224.01 402.44 C 223.90 401.44, 223.87 400.87, 223.86 399.61 C 223.84 398.35, 223.87 397.64, 223.93 396.14 C 224.00 394.63, 224.05 393.76, 224.16 392.07 C 224.28 390.37, 224.37 389.42, 224.50 387.64 C 224.63 385.87, 224.73 384.88, 224.82 383.19 C 224.91 381.50, 224.94 380.56, 224.95 379.20 C 224.96 377.85, 224.95 377.28, 224.88 376.41 C 224.81 375.54, 224.75 375.16, 224.58 374.85 C 224.41 374.53, 224.22 374.53, 224.04 374.84"
          style="stroke: black; fill: black;"/>
    <path d="M 259.21,391.55 C 259.14 391.30, 258.97 391.04, 258.55 390.78 C 258.14 390.52, 257.83 390.33, 257.13 390.24 C 256.44 390.15, 255.96 390.09, 255.08 390.32 C 254.20 390.54, 253.69 390.78, 252.75 391.37 C 251.80 391.95, 251.24 392.38, 250.35 393.26 C 249.46 394.13, 248.96 394.71, 248.29 395.74 C 247.63 396.76, 247.32 397.38, 247.03 398.38 C 246.73 399.39, 246.69 399.92, 246.82 400.75 C 246.95 401.57, 247.16 401.96, 247.67 402.51 C 248.18 403.07, 248.59 403.28, 249.36 403.51 C 250.14 403.74, 250.64 403.75, 251.54 403.65 C 252.44 403.55, 252.94 403.39, 253.85 403.00 C 254.77 402.61, 255.27 402.32, 256.11 401.69 C 256.95 401.06, 257.39 400.64, 258.07 399.84 C 258.75 399.04, 259.08 398.52, 259.52 397.68 C 259.96 396.83, 260.14 396.25, 260.26 395.61 C 260.38 394.96, 260.23 394.61, 260.13 394.46 C 260.04 394.31, 259.84 394.45, 259.77 394.85 C 259.71 395.24, 259.64 395.68, 259.80 396.45 C 259.96 397.21, 260.13 397.82, 260.57 398.67 C 261.02 399.52, 261.37 399.99, 262.03 400.69 C 262.68 401.40, 263.08 401.71, 263.83 402.20 C 264.58 402.70, 264.99 402.89, 265.79 403.19 C 266.59 403.49, 267.03 403.61, 267.83 403.72 C 268.62 403.83, 269.11 403.81, 269.75 403.76 C 270.40 403.71, 270.65 403.61, 271.05 403.47 C 271.46 403.32, 271.66 403.21, 271.79 403.05 C 271.93 402.89, 271.89 402.75, 271.72 402.65 C 271.54 402.54, 271.33 402.57, 270.94 402.53 C 270.54 402.48, 270.32 402.47, 269.74 402.43 C 269.15 402.39, 268.72 402.44, 268.02 402.35 C 267.32 402.25, 266.93 402.21, 266.24 401.96 C 265.56 401.71, 265.20 401.56, 264.58 401.11 C 263.96 400.67, 263.63 400.40, 263.14 399.75 C 262.66 399.11, 262.51 398.66, 262.16 397.89 C 261.81 397.13, 261.71 396.59, 261.41 395.92 C 261.10 395.26, 260.94 394.90, 260.62 394.56 C 260.31 394.22, 260.13 394.10, 259.83 394.22 C 259.52 394.34, 259.39 394.62, 259.08 395.17 C 258.76 395.73, 258.67 396.24, 258.25 396.99 C 257.83 397.74, 257.57 398.20, 256.97 398.91 C 256.37 399.62, 255.98 399.98, 255.24 400.53 C 254.51 401.08, 254.06 401.32, 253.28 401.66 C 252.49 402.00, 252.07 402.12, 251.34 402.25 C 250.61 402.38, 250.23 402.39, 249.65 402.30 C 249.06 402.21, 248.77 402.12, 248.42 401.79 C 248.07 401.45, 247.93 401.22, 247.90 400.63 C 247.87 400.03, 247.94 399.62, 248.26 398.81 C 248.59 398.00, 248.89 397.46, 249.53 396.58 C 250.16 395.69, 250.63 395.16, 251.44 394.38 C 252.25 393.60, 252.77 393.20, 253.58 392.67 C 254.38 392.15, 254.79 391.96, 255.47 391.76 C 256.16 391.56, 256.47 391.65, 256.99 391.68 C 257.51 391.71, 257.70 391.83, 258.08 391.90 C 258.47 391.97, 258.68 392.11, 258.90 392.04 C 259.13 391.97, 259.28 391.80, 259.21 391.55"
          style="stroke: black; fill: black;"/>
    <path d="M 300.05,392.94 C 299.93 393.22, 299.91 393.55, 299.97 394.21 C 300.03 394.86, 300.10 395.33, 300.34 396.22 C 300.59 397.12, 300.81 397.76, 301.21 398.67 C 301.61 399.57, 301.89 400.06, 302.34 400.75 C 302.79 401.45, 303.02 401.76, 303.47 402.14 C 303.92 402.53, 304.16 402.65, 304.59 402.68 C 305.02 402.72, 305.25 402.63, 305.61 402.32 C 305.98 402.01, 306.14 401.75, 306.42 401.13 C 306.70 400.51, 306.78 400.07, 307.01 399.24 C 307.23 398.41, 307.32 397.85, 307.55 396.98 C 307.79 396.10, 307.92 395.59, 308.18 394.85 C 308.44 394.12, 308.58 393.76, 308.85 393.30 C 309.11 392.85, 309.24 392.69, 309.50 392.57 C 309.76 392.45, 309.86 392.50, 310.15 392.70 C 310.44 392.89, 310.58 393.10, 310.94 393.55 C 311.30 393.99, 311.52 394.32, 311.95 394.92 C 312.38 395.51, 312.64 395.89, 313.09 396.51 C 313.54 397.13, 313.77 397.47, 314.20 398.01 C 314.64 398.55, 314.83 398.83, 315.27 399.22 C 315.71 399.61, 315.92 399.79, 316.39 399.96 C 316.86 400.13, 317.11 400.17, 317.60 400.07 C 318.09 399.97, 318.37 399.84, 318.85 399.46 C 319.33 399.08, 319.56 398.78, 320.01 398.17 C 320.45 397.57, 320.66 397.13, 321.07 396.43 C 321.49 395.74, 321.72 395.31, 322.08 394.68 C 322.45 394.06, 322.61 393.68, 322.90 393.31 C 323.18 392.94, 323.27 392.82, 323.52 392.82 C 323.78 392.82, 323.89 392.96, 324.18 393.31 C 324.48 393.65, 324.63 393.96, 325.02 394.54 C 325.41 395.12, 325.64 395.53, 326.13 396.20 C 326.62 396.87, 326.93 397.26, 327.48 397.87 C 328.03 398.48, 328.30 398.77, 328.88 399.26 C 329.45 399.75, 329.75 399.98, 330.36 400.31 C 330.96 400.64, 331.29 400.78, 331.91 400.91 C 332.53 401.05, 332.85 401.07, 333.46 400.99 C 334.08 400.92, 334.42 400.84, 334.99 400.55 C 335.57 400.26, 335.86 400.04, 336.35 399.56 C 336.84 399.08, 337.04 398.76, 337.42 398.17 C 337.81 397.58, 338.00 397.23, 338.27 396.62 C 338.54 396.01, 338.68 395.59, 338.77 395.12 C 338.86 394.66, 338.76 394.41, 338.72 394.28 C 338.68 394.16, 338.57 394.24, 338.59 394.49 C 338.60 394.74, 338.61 395.03, 338.81 395.54 C 339.00 396.05, 339.17 396.44, 339.55 397.04 C 339.94 397.63, 340.24 397.99, 340.75 398.53 C 341.26 399.07, 341.60 399.36, 342.12 399.73 C 342.64 400.10, 342.94 400.20, 343.37 400.37 C 343.80 400.54, 343.97 400.57, 344.27 400.59 C 344.58 400.60, 344.74 400.53, 344.91 400.43 C 345.08 400.32, 345.13 400.18, 345.12 400.06 C 345.11 399.94, 344.95 399.87, 344.87 399.82 C 344.79 399.77, 344.80 399.85, 344.72 399.82 C 344.64 399.79, 344.65 399.78, 344.48 399.68 C 344.32 399.59, 344.20 399.54, 343.90 399.33 C 343.60 399.13, 343.38 399.02, 342.99 398.65 C 342.60 398.28, 342.34 398.01, 341.94 397.50 C 341.55 396.99, 341.37 396.64, 341.02 396.09 C 340.67 395.54, 340.54 395.18, 340.18 394.75 C 339.83 394.31, 339.62 394.08, 339.25 393.90 C 338.88 393.71, 338.66 393.68, 338.32 393.82 C 337.97 393.96, 337.81 394.17, 337.52 394.60 C 337.24 395.04, 337.16 395.43, 336.89 395.99 C 336.63 396.55, 336.50 396.88, 336.20 397.40 C 335.89 397.92, 335.71 398.19, 335.35 398.59 C 334.99 398.99, 334.79 399.16, 334.38 399.40 C 333.97 399.63, 333.74 399.71, 333.30 399.77 C 332.86 399.84, 332.65 399.84, 332.18 399.72 C 331.72 399.61, 331.46 399.50, 330.98 399.21 C 330.49 398.92, 330.23 398.74, 329.75 398.28 C 329.27 397.83, 329.05 397.55, 328.59 396.94 C 328.12 396.34, 327.89 395.94, 327.42 395.27 C 326.95 394.60, 326.74 394.18, 326.24 393.60 C 325.74 393.02, 325.49 392.71, 324.94 392.37 C 324.39 392.03, 324.07 391.89, 323.51 391.91 C 322.94 391.92, 322.63 392.06, 322.10 392.44 C 321.56 392.83, 321.31 393.21, 320.83 393.84 C 320.35 394.47, 320.11 394.90, 319.69 395.59 C 319.26 396.28, 319.04 396.70, 318.68 397.28 C 318.33 397.86, 318.18 398.14, 317.91 398.50 C 317.64 398.87, 317.54 398.98, 317.32 399.09 C 317.10 399.19, 317.03 399.18, 316.80 399.04 C 316.56 398.89, 316.44 398.74, 316.14 398.38 C 315.85 398.01, 315.67 397.74, 315.31 397.20 C 314.95 396.65, 314.76 396.30, 314.35 395.65 C 313.93 395.00, 313.71 394.58, 313.23 393.96 C 312.76 393.33, 312.49 392.98, 311.95 392.53 C 311.42 392.08, 311.12 391.88, 310.57 391.72 C 310.01 391.55, 309.71 391.53, 309.18 391.71 C 308.64 391.88, 308.37 392.08, 307.90 392.60 C 307.44 393.12, 307.23 393.51, 306.85 394.29 C 306.47 395.07, 306.29 395.60, 305.99 396.50 C 305.69 397.41, 305.54 397.98, 305.34 398.81 C 305.14 399.65, 305.08 400.09, 304.98 400.69 C 304.89 401.28, 304.91 401.51, 304.86 401.77 C 304.80 402.03, 304.83 402.07, 304.72 402.00 C 304.60 401.93, 304.51 401.82, 304.28 401.43 C 304.05 401.05, 303.88 400.75, 303.58 400.07 C 303.28 399.39, 303.10 398.90, 302.77 398.03 C 302.44 397.15, 302.25 396.53, 301.93 395.70 C 301.62 394.87, 301.45 394.46, 301.18 393.88 C 300.91 393.31, 300.82 393.01, 300.59 392.82 C 300.37 392.63, 300.18 392.66, 300.05 392.94"
          style="stroke: black; fill: black;"/>
    <path d="M 337.38,383.82 C 337.26 383.66, 337.13 383.61, 336.99 383.71 C 336.86 383.81, 336.78 384.04, 336.71 384.32 C 336.64 384.60, 336.53 384.93, 336.64 385.11 C 336.75 385.30, 337.00 385.36, 337.26 385.23 C 337.52 385.10, 337.79 384.69, 337.93 384.45 C 338.06 384.21, 337.98 384.04, 337.93 384.03 C 337.87 384.01, 337.72 384.24, 337.65 384.38 C 337.59 384.52, 337.62 384.72, 337.61 384.75 C 337.60 384.77, 337.65 384.69, 337.61 384.51 C 337.56 384.32, 337.51 383.98, 337.38 383.82"
          style="stroke: black; fill: black;"/>
    <path d="M 359.78,392.46 C 359.75 392.20, 359.63 391.92, 359.26 391.57 C 358.89 391.22, 358.61 390.96, 357.94 390.70 C 357.27 390.45, 356.78 390.29, 355.91 390.29 C 355.04 390.29, 354.50 390.40, 353.58 390.70 C 352.66 391.00, 352.12 391.26, 351.33 391.79 C 350.54 392.32, 350.11 392.69, 349.62 393.36 C 349.13 394.02, 348.95 394.45, 348.88 395.12 C 348.81 395.78, 348.90 396.16, 349.25 396.68 C 349.60 397.20, 349.95 397.44, 350.62 397.71 C 351.29 397.97, 351.77 398.03, 352.61 398.02 C 353.45 398.01, 353.96 397.90, 354.83 397.66 C 355.69 397.42, 356.17 397.20, 356.94 396.81 C 357.70 396.43, 358.08 396.15, 358.65 395.73 C 359.22 395.30, 359.48 395.03, 359.78 394.67 C 360.09 394.31, 360.14 394.08, 360.18 393.92 C 360.22 393.77, 360.06 393.70, 359.99 393.89 C 359.91 394.08, 359.79 394.30, 359.83 394.88 C 359.86 395.46, 359.92 395.90, 360.15 396.80 C 360.39 397.69, 360.61 398.27, 361.02 399.35 C 361.42 400.44, 361.70 401.07, 362.19 402.22 C 362.69 403.38, 363.01 404.00, 363.51 405.11 C 364.01 406.22, 364.29 406.78, 364.69 407.79 C 365.10 408.81, 365.30 409.31, 365.54 410.19 C 365.79 411.07, 365.88 411.48, 365.90 412.20 C 365.93 412.92, 365.90 413.22, 365.68 413.77 C 365.46 414.31, 365.28 414.52, 364.80 414.91 C 364.32 415.30, 364.00 415.46, 363.28 415.71 C 362.55 415.95, 362.09 416.05, 361.15 416.14 C 360.22 416.23, 359.65 416.25, 358.60 416.17 C 357.55 416.08, 356.95 415.99, 355.90 415.72 C 354.86 415.45, 354.28 415.26, 353.36 414.82 C 352.44 414.38, 351.98 414.12, 351.30 413.52 C 350.62 412.92, 350.32 412.58, 349.95 411.82 C 349.58 411.06, 349.56 410.56, 349.44 409.71 C 349.32 408.87, 349.38 408.35, 349.34 407.60 C 349.30 406.85, 349.37 406.30, 349.25 405.96 C 349.12 405.61, 348.94 405.56, 348.71 405.88 C 348.49 406.19, 348.25 406.72, 348.13 407.53 C 348.00 408.33, 347.94 408.93, 348.08 409.91 C 348.22 410.88, 348.34 411.48, 348.81 412.39 C 349.28 413.30, 349.65 413.74, 350.44 414.47 C 351.23 415.20, 351.73 415.52, 352.75 416.05 C 353.76 416.57, 354.38 416.79, 355.53 417.11 C 356.68 417.43, 357.32 417.54, 358.48 417.64 C 359.64 417.74, 360.26 417.73, 361.32 417.60 C 362.37 417.47, 362.91 417.34, 363.76 416.99 C 364.62 416.63, 365.01 416.38, 365.60 415.82 C 366.19 415.26, 366.43 414.92, 366.73 414.20 C 367.02 413.47, 367.08 413.05, 367.09 412.19 C 367.10 411.32, 367.01 410.85, 366.78 409.88 C 366.55 408.90, 366.35 408.38, 365.96 407.31 C 365.57 406.24, 365.30 405.68, 364.83 404.54 C 364.36 403.41, 364.07 402.79, 363.62 401.64 C 363.16 400.49, 362.92 399.86, 362.57 398.80 C 362.21 397.74, 362.08 397.18, 361.82 396.32 C 361.56 395.47, 361.49 395.08, 361.26 394.54 C 361.02 393.99, 360.91 393.82, 360.64 393.58 C 360.36 393.35, 360.21 393.32, 359.88 393.36 C 359.56 393.40, 359.41 393.52, 359.01 393.77 C 358.61 394.02, 358.41 394.27, 357.87 394.61 C 357.33 394.96, 356.99 395.18, 356.30 395.50 C 355.61 395.81, 355.17 395.98, 354.42 396.18 C 353.67 396.38, 353.23 396.45, 352.55 396.51 C 351.86 396.56, 351.49 396.55, 350.99 396.46 C 350.49 396.38, 350.26 396.32, 350.04 396.09 C 349.82 395.86, 349.79 395.69, 349.91 395.31 C 350.03 394.93, 350.19 394.66, 350.64 394.21 C 351.08 393.75, 351.45 393.46, 352.13 393.05 C 352.82 392.64, 353.30 392.40, 354.05 392.16 C 354.81 391.91, 355.23 391.83, 355.91 391.83 C 356.59 391.83, 356.92 391.99, 357.45 392.14 C 357.99 392.29, 358.19 392.45, 358.58 392.60 C 358.97 392.75, 359.16 392.92, 359.40 392.89 C 359.64 392.86, 359.81 392.72, 359.78 392.46"
          style="stroke: black; fill: black;"/>
    <path d="M 366.60,379.33 C 366.45 379.55, 366.38 379.79, 366.35 380.40 C 366.32 381.01, 366.32 381.43, 366.44 382.38 C 366.57 383.33, 366.70 383.99, 366.98 385.15 C 367.25 386.32, 367.45 387.02, 367.82 388.21 C 368.18 389.40, 368.40 390.04, 368.81 391.11 C 369.23 392.19, 369.44 392.70, 369.88 393.59 C 370.32 394.49, 370.54 394.88, 371.01 395.57 C 371.47 396.27, 371.70 396.58, 372.20 397.05 C 372.69 397.52, 372.98 397.75, 373.49 397.93 C 373.99 398.12, 374.45 398.08, 374.73 397.99 C 375.00 397.89, 375.00 397.67, 374.85 397.47 C 374.69 397.28, 374.31 397.27, 373.95 397.02 C 373.58 396.77, 373.42 396.65, 373.03 396.23 C 372.65 395.81, 372.43 395.55, 372.03 394.91 C 371.63 394.27, 371.42 393.90, 371.04 393.05 C 370.66 392.19, 370.47 391.69, 370.12 390.64 C 369.78 389.59, 369.60 388.97, 369.30 387.79 C 369.00 386.62, 368.88 385.92, 368.63 384.78 C 368.37 383.64, 368.26 382.99, 368.04 382.08 C 367.82 381.17, 367.71 380.80, 367.53 380.25 C 367.34 379.69, 367.31 379.47, 367.12 379.29 C 366.94 379.10, 366.75 379.11, 366.60 379.33"
          style="stroke: black; fill: black;"/>
    <path d="M 379.14,389.02 C 379.03 389.26, 379.04 389.51, 379.09 390.04 C 379.14 390.58, 379.18 390.97, 379.39 391.68 C 379.60 392.40, 379.80 392.90, 380.14 393.63 C 380.48 394.36, 380.72 394.76, 381.10 395.35 C 381.49 395.94, 381.73 396.22, 382.07 396.59 C 382.42 396.95, 382.58 397.03, 382.84 397.18 C 383.09 397.32, 383.19 397.33, 383.33 397.31 C 383.47 397.29, 383.51 397.21, 383.52 397.08 C 383.54 396.95, 383.49 396.92, 383.39 396.68 C 383.30 396.44, 383.26 396.29, 383.05 395.89 C 382.85 395.48, 382.64 395.22, 382.36 394.64 C 382.08 394.06, 381.94 393.67, 381.66 392.97 C 381.38 392.27, 381.23 391.79, 380.95 391.13 C 380.68 390.47, 380.55 390.13, 380.30 389.67 C 380.04 389.21, 379.90 388.98, 379.67 388.85 C 379.44 388.72, 379.26 388.78, 379.14 389.02"
          style="stroke: black; fill: black;"/>
    <path d="M 379.57,380.35 C 379.70 380.19, 379.66 380.08, 379.59 380.06 C 379.52 380.03, 379.34 380.14, 379.21 380.24 C 379.07 380.33, 379.02 380.39, 378.91 380.51 C 378.80 380.64, 378.65 380.77, 378.66 380.84 C 378.66 380.91, 378.75 380.95, 378.93 380.86 C 379.11 380.76, 379.43 380.51, 379.57 380.35"
          style="stroke: black; fill: black;"/>
    <path d="M 397.68,390.04 C 397.65 389.82, 397.56 389.66, 397.26 389.43 C 396.95 389.20, 396.72 389.01, 396.16 388.89 C 395.60 388.77, 395.19 388.71, 394.48 388.83 C 393.77 388.94, 393.33 389.09, 392.59 389.47 C 391.86 389.85, 391.42 390.13, 390.82 390.72 C 390.21 391.31, 389.88 391.71, 389.55 392.44 C 389.23 393.17, 389.12 393.63, 389.20 394.37 C 389.27 395.10, 389.43 395.52, 389.92 396.12 C 390.41 396.73, 390.81 397.01, 391.63 397.39 C 392.46 397.76, 393.02 397.89, 394.05 398.00 C 395.09 398.11, 395.72 398.09, 396.79 397.94 C 397.87 397.79, 398.47 397.62, 399.44 397.25 C 400.42 396.88, 400.91 396.62, 401.66 396.09 C 402.41 395.55, 402.76 395.24, 403.20 394.57 C 403.64 393.90, 403.79 393.46, 403.87 392.73 C 403.96 392.00, 403.87 391.58, 403.61 390.92 C 403.36 390.26, 403.09 389.92, 402.60 389.43 C 402.12 388.94, 401.74 388.69, 401.20 388.47 C 400.66 388.24, 400.31 388.27, 399.90 388.29 C 399.49 388.31, 399.32 388.43, 399.17 388.56 C 399.02 388.70, 399.05 388.83, 399.16 388.97 C 399.27 389.11, 399.43 389.12, 399.72 389.27 C 400.00 389.42, 400.20 389.48, 400.59 389.71 C 400.97 389.94, 401.27 390.08, 401.65 390.42 C 402.02 390.76, 402.26 390.97, 402.47 391.40 C 402.68 391.84, 402.76 392.11, 402.71 392.61 C 402.67 393.11, 402.58 393.41, 402.23 393.90 C 401.87 394.38, 401.59 394.61, 400.94 395.01 C 400.29 395.41, 399.83 395.62, 398.97 395.91 C 398.10 396.20, 397.56 396.34, 396.60 396.45 C 395.65 396.57, 395.08 396.56, 394.20 396.49 C 393.31 396.41, 392.83 396.32, 392.15 396.09 C 391.48 395.86, 391.18 395.70, 390.82 395.34 C 390.46 394.97, 390.36 394.74, 390.34 394.28 C 390.33 393.82, 390.44 393.53, 390.74 393.04 C 391.03 392.55, 391.31 392.25, 391.83 391.82 C 392.34 391.38, 392.71 391.14, 393.30 390.85 C 393.88 390.56, 394.21 390.46, 394.73 390.37 C 395.26 390.29, 395.51 390.37, 395.92 390.41 C 396.33 390.44, 396.49 390.52, 396.79 390.54 C 397.09 390.57, 397.24 390.62, 397.42 390.52 C 397.59 390.41, 397.71 390.26, 397.68 390.04"
          style="stroke: black; fill: black;"/>
    <path d="M 409.73,389.84 C 409.58 390.06, 409.53 390.34, 409.52 390.85 C 409.52 391.36, 409.55 391.72, 409.70 392.40 C 409.85 393.08, 410.00 393.57, 410.28 394.24 C 410.55 394.91, 410.75 395.28, 411.07 395.74 C 411.40 396.20, 411.60 396.39, 411.91 396.54 C 412.22 396.68, 412.42 396.66, 412.63 396.47 C 412.83 396.28, 412.92 396.05, 412.93 395.57 C 412.94 395.09, 412.86 394.73, 412.68 394.09 C 412.49 393.45, 412.27 393.03, 412.02 392.36 C 411.76 391.69, 411.59 391.31, 411.41 390.74 C 411.23 390.18, 411.14 389.91, 411.12 389.54 C 411.10 389.16, 411.10 389.06, 411.31 388.87 C 411.51 388.69, 411.66 388.68, 412.14 388.61 C 412.61 388.54, 412.92 388.54, 413.67 388.53 C 414.41 388.52, 414.88 388.53, 415.86 388.55 C 416.83 388.57, 417.42 388.59, 418.53 388.62 C 419.65 388.65, 420.27 388.68, 421.43 388.70 C 422.60 388.72, 423.23 388.74, 424.36 388.73 C 425.48 388.72, 426.07 388.71, 427.06 388.64 C 428.05 388.58, 428.53 388.54, 429.29 388.39 C 430.06 388.25, 430.39 388.17, 430.88 387.92 C 431.36 387.67, 431.56 387.49, 431.72 387.13 C 431.88 386.77, 431.89 386.49, 431.68 386.12 C 431.47 385.75, 431.23 385.49, 430.68 385.28 C 430.13 385.07, 429.71 385.00, 428.94 385.05 C 428.17 385.10, 427.67 385.21, 426.82 385.55 C 425.98 385.89, 425.46 386.15, 424.73 386.74 C 423.99 387.34, 423.59 387.75, 423.15 388.53 C 422.71 389.31, 422.54 389.81, 422.54 390.65 C 422.55 391.50, 422.67 391.99, 423.16 392.76 C 423.65 393.54, 424.06 393.92, 425.00 394.53 C 425.94 395.13, 426.59 395.38, 427.86 395.78 C 429.14 396.19, 429.93 396.32, 431.38 396.53 C 432.83 396.75, 433.65 396.79, 435.11 396.85 C 436.56 396.91, 437.33 396.89, 438.64 396.85 C 439.94 396.81, 440.59 396.76, 441.63 396.65 C 442.68 396.55, 443.15 396.47, 443.85 396.33 C 444.55 396.18, 444.75 396.08, 445.13 395.93 C 445.50 395.78, 445.62 395.71, 445.73 395.58 C 445.83 395.45, 445.80 395.35, 445.66 395.27 C 445.51 395.20, 445.39 395.21, 445.00 395.20 C 444.61 395.19, 444.40 395.18, 443.71 395.22 C 443.02 395.25, 442.56 395.32, 441.54 395.37 C 440.52 395.42, 439.89 395.47, 438.62 395.47 C 437.35 395.47, 436.59 395.48, 435.19 395.39 C 433.78 395.30, 432.98 395.23, 431.61 395.02 C 430.23 394.81, 429.48 394.66, 428.31 394.32 C 427.13 393.98, 426.55 393.77, 425.72 393.32 C 424.89 392.87, 424.56 392.61, 424.16 392.08 C 423.76 391.55, 423.69 391.24, 423.71 390.67 C 423.74 390.10, 423.89 389.77, 424.28 389.23 C 424.66 388.68, 425.01 388.37, 425.64 387.94 C 426.26 387.50, 426.71 387.29, 427.40 387.04 C 428.09 386.79, 428.51 386.75, 429.10 386.67 C 429.69 386.59, 429.97 386.64, 430.36 386.64 C 430.76 386.65, 430.90 386.67, 431.06 386.69 C 431.22 386.71, 431.26 386.71, 431.15 386.76 C 431.04 386.81, 430.92 386.87, 430.51 386.95 C 430.11 387.03, 429.82 387.10, 429.12 387.17 C 428.41 387.24, 427.94 387.27, 426.99 387.29 C 426.04 387.32, 425.46 387.33, 424.36 387.31 C 423.25 387.30, 422.63 387.27, 421.48 387.23 C 420.32 387.19, 419.71 387.15, 418.59 387.10 C 417.47 387.04, 416.89 386.99, 415.88 386.97 C 414.88 386.96, 414.39 386.93, 413.57 387.02 C 412.75 387.11, 412.39 387.17, 411.79 387.41 C 411.20 387.64, 410.95 387.79, 410.60 388.20 C 410.24 388.60, 410.14 388.86, 410.02 389.42 C 409.90 389.99, 409.94 390.33, 410.01 391.02 C 410.08 391.71, 410.19 392.14, 410.38 392.87 C 410.56 393.60, 410.67 394.06, 410.91 394.69 C 411.16 395.31, 411.35 395.64, 411.62 395.99 C 411.89 396.34, 412.09 396.42, 412.27 396.44 C 412.46 396.46, 412.53 396.35, 412.55 396.08 C 412.56 395.82, 412.49 395.60, 412.36 395.11 C 412.22 394.63, 412.08 394.28, 411.87 393.64 C 411.66 393.01, 411.52 392.55, 411.30 391.94 C 411.07 391.33, 410.96 391.03, 410.76 390.60 C 410.55 390.16, 410.50 389.91, 410.29 389.76 C 410.08 389.61, 409.88 389.62, 409.73 389.84"
          style="stroke: black; fill: black;"/>
    <path d="M 490.27,386.89 C 490.19 386.66, 490.03 386.47, 489.64 386.26 C 489.24 386.04, 488.94 385.89, 488.28 385.84 C 487.63 385.78, 487.18 385.77, 486.37 385.99 C 485.55 386.21, 485.08 386.42, 484.20 386.93 C 483.33 387.44, 482.82 387.80, 482.00 388.55 C 481.18 389.30, 480.71 389.77, 480.10 390.67 C 479.50 391.57, 479.20 392.11, 478.97 393.04 C 478.75 393.97, 478.72 394.50, 478.96 395.34 C 479.21 396.18, 479.47 396.60, 480.19 397.24 C 480.92 397.89, 481.45 398.16, 482.58 398.55 C 483.71 398.93, 484.42 399.04, 485.83 399.17 C 487.25 399.30, 488.08 399.27, 489.64 399.18 C 491.20 399.09, 492.08 398.98, 493.63 398.71 C 495.18 398.44, 496.00 398.25, 497.38 397.85 C 498.76 397.44, 499.42 397.19, 500.53 396.68 C 501.63 396.17, 502.12 395.87, 502.90 395.29 C 503.67 394.71, 503.96 394.39, 504.39 393.78 C 504.83 393.17, 504.95 392.83, 505.07 392.24 C 505.20 391.64, 505.17 391.31, 505.01 390.80 C 504.85 390.29, 504.68 390.01, 504.26 389.67 C 503.85 389.34, 503.52 389.19, 502.93 389.14 C 502.35 389.08, 501.98 389.13, 501.34 389.40 C 500.71 389.66, 500.32 389.90, 499.76 390.46 C 499.20 391.02, 498.88 391.44, 498.52 392.21 C 498.17 392.97, 498.02 393.47, 497.99 394.31 C 497.96 395.14, 498.03 395.62, 498.37 396.38 C 498.71 397.13, 499.02 397.52, 499.71 398.09 C 500.39 398.65, 500.88 398.88, 501.80 399.19 C 502.72 399.50, 503.30 399.58, 504.32 399.62 C 505.34 399.67, 505.93 399.61, 506.91 399.42 C 507.88 399.23, 508.39 399.07, 509.20 398.68 C 510.01 398.28, 510.41 398.03, 510.96 397.45 C 511.52 396.87, 511.76 396.50, 511.96 395.79 C 512.17 395.08, 512.18 394.64, 512.00 393.90 C 511.82 393.16, 511.59 392.74, 511.07 392.11 C 510.55 391.49, 510.13 391.18, 509.39 390.76 C 508.65 390.34, 508.14 390.17, 507.36 390.00 C 506.58 389.83, 506.12 389.84, 505.49 389.90 C 504.86 389.96, 504.58 390.10, 504.21 390.29 C 503.85 390.49, 503.75 390.68, 503.64 390.89 C 503.54 391.10, 503.62 391.25, 503.68 391.35 C 503.75 391.44, 503.88 391.39, 503.96 391.38 C 504.03 391.37, 503.95 391.31, 504.06 391.29 C 504.18 391.27, 504.24 391.30, 504.54 391.28 C 504.83 391.26, 505.03 391.17, 505.53 391.20 C 506.02 391.23, 506.39 391.24, 507.02 391.41 C 507.65 391.58, 508.07 391.72, 508.68 392.05 C 509.28 392.37, 509.62 392.59, 510.05 393.03 C 510.47 393.47, 510.65 393.74, 510.82 394.23 C 510.98 394.72, 511.00 395.00, 510.86 395.47 C 510.72 395.94, 510.56 396.19, 510.12 396.59 C 509.67 396.99, 509.35 397.19, 508.66 397.48 C 507.97 397.76, 507.51 397.89, 506.66 398.02 C 505.81 398.16, 505.27 398.19, 504.39 398.15 C 503.50 398.12, 503.00 398.05, 502.22 397.83 C 501.45 397.61, 501.05 397.44, 500.51 397.05 C 499.97 396.65, 499.75 396.39, 499.51 395.87 C 499.27 395.34, 499.26 395.00, 499.33 394.40 C 499.40 393.80, 499.56 393.43, 499.86 392.86 C 500.16 392.28, 500.43 391.96, 500.84 391.53 C 501.26 391.09, 501.54 390.90, 501.95 390.67 C 502.35 390.45, 502.56 390.41, 502.88 390.39 C 503.21 390.37, 503.36 390.43, 503.59 390.57 C 503.81 390.72, 503.90 390.84, 504.00 391.12 C 504.09 391.41, 504.14 391.61, 504.04 392.01 C 503.95 392.41, 503.89 392.66, 503.52 393.13 C 503.15 393.59, 502.91 393.86, 502.21 394.34 C 501.51 394.81, 501.05 395.07, 500.01 395.51 C 498.97 395.95, 498.33 396.17, 497.00 396.52 C 495.68 396.87, 494.89 397.03, 493.40 397.26 C 491.91 397.49, 491.04 397.59, 489.55 397.66 C 488.06 397.74, 487.27 397.75, 485.96 397.65 C 484.65 397.55, 484.00 397.45, 483.00 397.18 C 482.00 396.91, 481.55 396.73, 480.96 396.30 C 480.36 395.88, 480.17 395.62, 480.02 395.04 C 479.86 394.46, 479.92 394.10, 480.18 393.39 C 480.43 392.69, 480.71 392.25, 481.28 391.51 C 481.85 390.77, 482.29 390.35, 483.03 389.70 C 483.77 389.05, 484.24 388.71, 484.99 388.27 C 485.74 387.82, 486.13 387.66, 486.78 387.47 C 487.43 387.28, 487.73 387.34, 488.23 387.33 C 488.73 387.32, 488.93 387.40, 489.29 387.41 C 489.65 387.43, 489.84 387.51, 490.03 387.40 C 490.23 387.30, 490.35 387.12, 490.27 386.89"
          style="stroke: black; fill: black;"/>
    <path d="M 517.73,379.04 C 517.56 379.27, 517.49 379.51, 517.43 380.18 C 517.37 380.84, 517.33 381.30, 517.42 382.35 C 517.51 383.41, 517.62 384.15, 517.86 385.44 C 518.09 386.74, 518.28 387.52, 518.59 388.84 C 518.91 390.15, 519.09 390.84, 519.43 392.02 C 519.77 393.20, 519.94 393.76, 520.29 394.73 C 520.65 395.70, 520.81 396.15, 521.19 396.86 C 521.56 397.58, 521.81 397.87, 522.17 398.30 C 522.53 398.73, 522.75 398.90, 522.98 398.99 C 523.22 399.08, 523.33 398.99, 523.33 398.75 C 523.32 398.51, 523.18 398.28, 522.97 397.80 C 522.76 397.32, 522.57 397.04, 522.28 396.34 C 521.98 395.65, 521.80 395.25, 521.50 394.32 C 521.20 393.38, 521.05 392.83, 520.77 391.67 C 520.49 390.50, 520.35 389.82, 520.10 388.51 C 519.86 387.21, 519.75 386.42, 519.54 385.15 C 519.32 383.88, 519.22 383.15, 519.04 382.14 C 518.85 381.13, 518.76 380.71, 518.60 380.09 C 518.45 379.46, 518.42 379.24, 518.25 379.03 C 518.07 378.82, 517.89 378.81, 517.73 379.04"
          style="stroke: black; fill: black;"/>
    <path d="M 526.40,380.69 C 526.26 380.90, 526.22 381.07, 526.18 381.67 C 526.15 382.27, 526.10 382.70, 526.22 383.70 C 526.34 384.69, 526.49 385.41, 526.78 386.64 C 527.08 387.88, 527.30 388.63, 527.71 389.86 C 528.11 391.10, 528.34 391.74, 528.81 392.81 C 529.28 393.89, 529.52 394.38, 530.04 395.24 C 530.55 396.10, 530.82 396.46, 531.40 397.10 C 531.98 397.74, 532.28 398.02, 532.93 398.45 C 533.59 398.88, 533.94 399.05, 534.67 399.25 C 535.40 399.46, 535.80 399.50, 536.60 399.47 C 537.39 399.43, 537.81 399.35, 538.66 399.09 C 539.51 398.82, 539.97 398.62, 540.83 398.13 C 541.69 397.65, 542.16 397.33, 542.96 396.66 C 543.75 395.99, 544.17 395.57, 544.79 394.80 C 545.42 394.02, 545.73 393.57, 546.08 392.80 C 546.44 392.04, 546.55 391.62, 546.56 390.96 C 546.57 390.30, 546.45 389.95, 546.12 389.51 C 545.78 389.06, 545.47 388.87, 544.87 388.74 C 544.28 388.61, 543.84 388.63, 543.14 388.86 C 542.44 389.10, 542.00 389.34, 541.38 389.90 C 540.76 390.46, 540.42 390.88, 540.04 391.66 C 539.65 392.45, 539.50 392.94, 539.47 393.80 C 539.44 394.66, 539.52 395.16, 539.90 395.96 C 540.29 396.76, 540.62 397.17, 541.40 397.81 C 542.18 398.44, 542.72 398.71, 543.81 399.12 C 544.90 399.53, 545.59 399.67, 546.87 399.84 C 548.15 400.02, 548.89 400.02, 550.22 399.99 C 551.54 399.96, 552.26 399.87, 553.49 399.68 C 554.72 399.48, 555.36 399.35, 556.37 399.02 C 557.39 398.69, 557.88 398.40, 558.55 398.02 C 559.21 397.63, 559.51 397.35, 559.70 397.08 C 559.89 396.82, 559.81 396.69, 559.50 396.69 C 559.18 396.69, 558.83 396.86, 558.13 397.07 C 557.44 397.28, 556.97 397.48, 556.00 397.73 C 555.03 397.97, 554.45 398.13, 553.29 398.29 C 552.13 398.44, 551.44 398.50, 550.19 398.52 C 548.95 398.53, 548.24 398.51, 547.06 398.36 C 545.89 398.20, 545.27 398.07, 544.30 397.75 C 543.33 397.42, 542.87 397.20, 542.22 396.74 C 541.56 396.27, 541.32 395.98, 541.03 395.41 C 540.74 394.84, 540.71 394.49, 540.77 393.88 C 540.83 393.26, 540.99 392.91, 541.31 392.34 C 541.64 391.77, 541.94 391.46, 542.41 391.04 C 542.88 390.61, 543.21 390.44, 543.68 390.21 C 544.15 389.97, 544.41 389.89, 544.76 389.86 C 545.10 389.83, 545.25 389.85, 545.39 390.05 C 545.54 390.25, 545.58 390.43, 545.49 390.86 C 545.39 391.29, 545.28 391.60, 544.92 392.20 C 544.56 392.80, 544.27 393.20, 543.69 393.87 C 543.11 394.54, 542.73 394.93, 542.01 395.53 C 541.29 396.13, 540.86 396.42, 540.10 396.87 C 539.34 397.31, 538.93 397.50, 538.21 397.77 C 537.50 398.03, 537.16 398.12, 536.51 398.18 C 535.87 398.24, 535.57 398.21, 534.98 398.07 C 534.40 397.92, 534.13 397.80, 533.59 397.45 C 533.05 397.10, 532.78 396.88, 532.29 396.31 C 531.79 395.74, 531.56 395.42, 531.11 394.62 C 530.67 393.81, 530.46 393.34, 530.08 392.30 C 529.69 391.27, 529.52 390.63, 529.20 389.42 C 528.87 388.21, 528.74 387.45, 528.47 386.25 C 528.20 385.05, 528.08 384.35, 527.85 383.40 C 527.62 382.46, 527.53 382.07, 527.34 381.52 C 527.14 380.96, 527.08 380.80, 526.90 380.63 C 526.71 380.47, 526.55 380.48, 526.40 380.69"
          style="stroke: black; fill: black;"/>
    <path d="M 558.05,392.28 C 558.26 392.40, 558.45 392.37, 558.92 392.35 C 559.38 392.34, 559.69 392.28, 560.38 392.22 C 561.08 392.16, 561.54 392.09, 562.38 392.05 C 563.23 392.01, 563.76 391.99, 564.61 392.02 C 565.46 392.04, 565.94 392.08, 566.65 392.18 C 567.35 392.28, 567.69 392.36, 568.16 392.52 C 568.62 392.67, 568.79 392.75, 568.95 392.96 C 569.12 393.18, 569.11 393.28, 568.99 393.59 C 568.86 393.90, 568.71 394.07, 568.34 394.51 C 567.97 394.95, 567.68 395.22, 567.13 395.77 C 566.58 396.32, 566.21 396.65, 565.59 397.26 C 564.97 397.87, 564.59 398.20, 564.05 398.81 C 563.51 399.41, 563.21 399.73, 562.89 400.30 C 562.57 400.88, 562.45 401.18, 562.47 401.68 C 562.48 402.18, 562.59 402.45, 562.95 402.82 C 563.31 403.18, 563.61 403.34, 564.27 403.51 C 564.92 403.68, 565.36 403.69, 566.22 403.68 C 567.09 403.67, 567.60 403.59, 568.59 403.45 C 569.59 403.31, 570.15 403.21, 571.18 402.99 C 572.20 402.77, 572.77 402.62, 573.73 402.33 C 574.69 402.04, 575.18 401.88, 575.97 401.54 C 576.77 401.20, 577.17 400.98, 577.70 400.64 C 578.24 400.30, 578.38 400.13, 578.64 399.85 C 578.91 399.57, 578.99 399.42, 579.02 399.25 C 579.06 399.07, 578.97 398.99, 578.80 398.98 C 578.64 398.96, 578.52 399.06, 578.19 399.18 C 577.86 399.29, 577.69 399.35, 577.15 399.57 C 576.61 399.79, 576.23 400.00, 575.47 400.28 C 574.71 400.56, 574.25 400.72, 573.34 400.97 C 572.42 401.21, 571.87 401.33, 570.88 401.52 C 569.89 401.70, 569.34 401.77, 568.39 401.88 C 567.45 401.99, 566.94 402.02, 566.16 402.07 C 565.37 402.12, 565.00 402.13, 564.47 402.14 C 563.93 402.14, 563.73 402.16, 563.50 402.08 C 563.27 402.00, 563.24 401.97, 563.32 401.76 C 563.40 401.54, 563.54 401.39, 563.90 401.01 C 564.25 400.62, 564.54 400.34, 565.09 399.82 C 565.65 399.30, 566.04 398.99, 566.68 398.40 C 567.32 397.81, 567.72 397.50, 568.29 396.88 C 568.86 396.26, 569.17 395.93, 569.52 395.32 C 569.87 394.70, 570.00 394.36, 570.04 393.78 C 570.08 393.21, 570.01 392.91, 569.73 392.45 C 569.45 391.99, 569.21 391.80, 568.65 391.47 C 568.08 391.15, 567.70 391.03, 566.91 390.83 C 566.13 390.63, 565.63 390.57, 564.71 390.48 C 563.79 390.39, 563.23 390.35, 562.32 390.38 C 561.40 390.40, 560.88 390.46, 560.14 390.62 C 559.39 390.78, 559.06 390.95, 558.61 391.18 C 558.16 391.41, 557.99 391.56, 557.88 391.78 C 557.77 392.00, 557.84 392.17, 558.05 392.28"
          style="stroke: black; fill: black;"/>
    <path d="M 569.88,389.65 C 569.89 389.83, 569.95 389.86, 570.03 389.97 C 570.11 390.08, 570.16 390.13, 570.28 390.20 C 570.39 390.27, 570.46 390.38, 570.61 390.31 C 570.76 390.25, 570.93 390.13, 571.04 389.89 C 571.15 389.65, 571.21 389.39, 571.17 389.13 C 571.13 388.86, 570.99 388.67, 570.84 388.57 C 570.68 388.47, 570.54 388.57, 570.41 388.62 C 570.27 388.66, 570.24 388.72, 570.16 388.81 C 570.07 388.90, 570.03 388.91, 569.98 389.08 C 569.92 389.24, 569.87 389.47, 569.88 389.65"
          style="stroke: black; fill: black;"/>
    <path d="M 582.13,390.77 C 582.01 390.94, 581.99 391.08, 582.00 391.49 C 582.00 391.89, 582.01 392.18, 582.15 392.80 C 582.29 393.42, 582.44 393.86, 582.72 394.60 C 583.00 395.34, 583.19 395.77, 583.55 396.50 C 583.91 397.23, 584.11 397.62, 584.52 398.24 C 584.92 398.85, 585.19 399.16, 585.57 399.56 C 585.96 399.95, 586.16 400.05, 586.46 400.21 C 586.76 400.38, 586.91 400.40, 587.08 400.38 C 587.24 400.36, 587.30 400.25, 587.29 400.10 C 587.28 399.94, 587.18 399.88, 587.03 399.61 C 586.89 399.35, 586.82 399.20, 586.56 398.78 C 586.29 398.36, 586.04 398.08, 585.72 397.50 C 585.40 396.92, 585.23 396.57, 584.95 395.88 C 584.67 395.18, 584.57 394.73, 584.32 394.02 C 584.08 393.30, 583.96 392.87, 583.72 392.29 C 583.48 391.72, 583.35 391.48, 583.13 391.14 C 582.91 390.81, 582.82 390.69, 582.62 390.62 C 582.42 390.54, 582.25 390.59, 582.13 390.77"
          style="stroke: black; fill: black;"/>
    <path d="M 593.42,386.82 C 593.21 386.78, 593.05 386.79, 592.71 387.02 C 592.37 387.26, 592.06 387.40, 591.73 387.98 C 591.40 388.55, 591.17 389.04, 591.06 389.92 C 590.94 390.79, 590.95 391.39, 591.16 392.35 C 591.37 393.31, 591.55 393.87, 592.09 394.73 C 592.62 395.58, 593.02 396.00, 593.83 396.63 C 594.64 397.25, 595.16 397.51, 596.15 397.85 C 597.15 398.19, 597.75 398.27, 598.81 398.33 C 599.87 398.39, 600.46 398.33, 601.45 398.13 C 602.45 397.93, 602.97 397.76, 603.78 397.31 C 604.59 396.86, 605.00 396.56, 605.50 395.88 C 606.00 395.21, 606.19 394.78, 606.27 393.95 C 606.36 393.13, 606.29 392.60, 605.92 391.76 C 605.54 390.91, 605.19 390.43, 604.39 389.72 C 603.58 389.01, 602.99 388.67, 601.89 388.22 C 600.80 387.76, 600.09 387.59, 598.91 387.44 C 597.73 387.29, 597.03 387.32, 596.00 387.48 C 594.96 387.64, 594.41 387.82, 593.74 388.24 C 593.07 388.67, 592.78 389.00, 592.63 389.58 C 592.48 390.17, 592.56 390.59, 592.97 391.17 C 593.38 391.76, 593.79 392.08, 594.69 392.51 C 595.59 392.95, 596.24 393.12, 597.46 393.33 C 598.68 393.55, 599.44 393.57, 600.79 393.59 C 602.14 393.61, 602.90 393.55, 604.21 393.43 C 605.52 393.32, 606.20 393.21, 607.32 393.02 C 608.44 392.83, 608.99 392.71, 609.81 392.50 C 610.64 392.29, 610.97 392.08, 611.44 391.98 C 611.92 391.88, 611.98 391.83, 612.18 391.99 C 612.38 392.16, 612.35 392.37, 612.45 392.81 C 612.56 393.24, 612.56 393.59, 612.72 394.18 C 612.88 394.77, 612.97 395.19, 613.25 395.76 C 613.53 396.33, 613.73 396.67, 614.12 397.04 C 614.51 397.42, 614.75 397.54, 615.20 397.64 C 615.64 397.73, 615.89 397.70, 616.35 397.51 C 616.82 397.33, 617.07 397.14, 617.51 396.70 C 617.95 396.26, 618.15 395.90, 618.56 395.31 C 618.97 394.72, 619.14 394.34, 619.55 393.74 C 619.96 393.15, 620.20 392.82, 620.61 392.35 C 621.02 391.89, 621.23 391.64, 621.61 391.42 C 622.00 391.19, 622.14 391.17, 622.52 391.24 C 622.89 391.31, 623.07 391.45, 623.49 391.77 C 623.91 392.09, 624.13 392.35, 624.61 392.81 C 625.09 393.28, 625.35 393.59, 625.91 394.11 C 626.48 394.64, 626.79 394.95, 627.43 395.44 C 628.07 395.93, 628.41 396.18, 629.12 396.57 C 629.83 396.97, 630.19 397.14, 630.98 397.40 C 631.76 397.65, 632.19 397.77, 633.04 397.85 C 633.89 397.93, 634.35 397.92, 635.21 397.79 C 636.08 397.66, 636.53 397.53, 637.36 397.20 C 638.19 396.87, 638.64 396.65, 639.38 396.16 C 640.13 395.67, 640.52 395.36, 641.10 394.74 C 641.68 394.12, 641.95 393.74, 642.30 393.07 C 642.64 392.39, 642.77 392.01, 642.82 391.38 C 642.86 390.75, 642.79 390.41, 642.52 389.91 C 642.24 389.42, 641.99 389.16, 641.44 388.90 C 640.90 388.65, 640.49 388.57, 639.80 388.65 C 639.10 388.73, 638.64 388.88, 637.97 389.29 C 637.30 389.70, 636.91 390.02, 636.44 390.69 C 635.97 391.35, 635.73 391.81, 635.63 392.62 C 635.52 393.43, 635.55 393.92, 635.90 394.72 C 636.26 395.52, 636.58 395.94, 637.39 396.60 C 638.20 397.26, 638.76 397.56, 639.95 398.02 C 641.15 398.49, 641.92 398.66, 643.36 398.93 C 644.81 399.21, 645.68 399.27, 647.18 399.39 C 648.69 399.51, 649.50 399.51, 650.89 399.53 C 652.28 399.55, 652.99 399.52, 654.12 399.47 C 655.26 399.42, 655.78 399.40, 656.56 399.30 C 657.34 399.20, 657.59 399.11, 658.01 398.99 C 658.44 398.86, 658.57 398.79, 658.69 398.66 C 658.82 398.54, 658.80 398.44, 658.65 398.35 C 658.50 398.27, 658.37 398.28, 657.94 398.24 C 657.51 398.20, 657.27 398.17, 656.50 398.15 C 655.73 398.13, 655.21 398.16, 654.10 398.15 C 652.98 398.15, 652.28 398.17, 650.92 398.12 C 649.57 398.06, 648.77 398.04, 647.32 397.89 C 645.86 397.75, 645.02 397.66, 643.65 397.41 C 642.28 397.15, 641.56 396.99, 640.48 396.61 C 639.39 396.24, 638.91 395.99, 638.22 395.51 C 637.53 395.03, 637.29 394.74, 637.02 394.20 C 636.75 393.66, 636.77 393.35, 636.88 392.82 C 636.99 392.29, 637.20 392.00, 637.58 391.55 C 637.96 391.10, 638.27 390.88, 638.76 390.58 C 639.25 390.27, 639.58 390.16, 640.03 390.04 C 640.49 389.92, 640.72 389.91, 641.04 389.98 C 641.35 390.06, 641.49 390.15, 641.62 390.40 C 641.75 390.65, 641.77 390.82, 641.68 391.23 C 641.59 391.63, 641.47 391.92, 641.16 392.43 C 640.84 392.94, 640.62 393.27, 640.11 393.78 C 639.60 394.30, 639.27 394.57, 638.62 394.99 C 637.97 395.42, 637.57 395.62, 636.85 395.91 C 636.13 396.20, 635.75 396.33, 635.01 396.44 C 634.27 396.56, 633.88 396.56, 633.16 396.49 C 632.44 396.43, 632.06 396.35, 631.39 396.13 C 630.71 395.91, 630.40 395.76, 629.79 395.40 C 629.17 395.04, 628.89 394.80, 628.32 394.33 C 627.74 393.85, 627.47 393.56, 626.93 393.04 C 626.38 392.52, 626.15 392.20, 625.61 391.73 C 625.06 391.25, 624.78 390.97, 624.19 390.66 C 623.60 390.34, 623.28 390.20, 622.66 390.14 C 622.05 390.08, 621.73 390.12, 621.12 390.36 C 620.51 390.60, 620.18 390.86, 619.62 391.35 C 619.06 391.84, 618.79 392.21, 618.31 392.82 C 617.83 393.43, 617.60 393.81, 617.21 394.39 C 616.82 394.98, 616.64 395.30, 616.35 395.74 C 616.07 396.18, 615.97 396.37, 615.78 396.58 C 615.60 396.79, 615.55 396.84, 615.41 396.78 C 615.27 396.73, 615.23 396.63, 615.09 396.30 C 614.95 395.98, 614.87 395.69, 614.70 395.16 C 614.53 394.64, 614.46 394.25, 614.23 393.68 C 614.01 393.10, 613.89 392.76, 613.57 392.28 C 613.25 391.81, 613.08 391.55, 612.64 391.29 C 612.19 391.04, 611.97 391.01, 611.35 391.01 C 610.74 391.00, 610.41 391.15, 609.57 391.29 C 608.72 391.42, 608.22 391.54, 607.12 391.67 C 606.03 391.81, 605.36 391.90, 604.10 391.97 C 602.85 392.05, 602.11 392.08, 600.83 392.04 C 599.56 391.99, 598.85 391.91, 597.73 391.73 C 596.62 391.55, 596.05 391.38, 595.25 391.13 C 594.45 390.88, 594.12 390.72, 593.75 390.46 C 593.37 390.20, 593.28 390.06, 593.38 389.81 C 593.48 389.57, 593.69 389.44, 594.24 389.25 C 594.80 389.06, 595.27 388.93, 596.16 388.86 C 597.05 388.79, 597.68 388.76, 598.71 388.91 C 599.75 389.06, 600.37 389.23, 601.32 389.61 C 602.27 389.99, 602.78 390.28, 603.46 390.82 C 604.15 391.36, 604.42 391.72, 604.75 392.33 C 605.08 392.93, 605.15 393.28, 605.11 393.85 C 605.07 394.42, 604.95 394.70, 604.57 395.16 C 604.18 395.62, 603.86 395.84, 603.18 396.16 C 602.51 396.49, 602.06 396.62, 601.19 396.78 C 600.33 396.93, 599.80 396.97, 598.88 396.93 C 597.96 396.88, 597.43 396.82, 596.59 396.55 C 595.74 396.28, 595.31 396.07, 594.65 395.56 C 593.99 395.05, 593.68 394.71, 593.29 394.01 C 592.89 393.31, 592.79 392.84, 592.67 392.07 C 592.55 391.29, 592.61 390.82, 592.71 390.14 C 592.80 389.46, 592.97 389.12, 593.14 388.65 C 593.31 388.18, 593.44 388.07, 593.56 387.78 C 593.68 387.49, 593.78 387.41, 593.75 387.22 C 593.72 387.03, 593.63 386.86, 593.42 386.82"
          style="stroke: black; fill: black;"/>
    <path d="M 704.89,393.66 C 704.86 393.39, 704.72 393.11, 704.36 392.74 C 704.01 392.36, 703.75 392.10, 703.13 391.80 C 702.52 391.51, 702.10 391.33, 701.31 391.25 C 700.52 391.16, 700.08 391.19, 699.20 391.38 C 698.32 391.58, 697.80 391.74, 696.89 392.24 C 695.98 392.74, 695.45 393.10, 694.66 393.86 C 693.87 394.62, 693.46 395.14, 692.95 396.04 C 692.44 396.94, 692.23 397.49, 692.12 398.38 C 692.00 399.27, 692.06 399.78, 692.36 400.51 C 692.66 401.24, 692.97 401.60, 693.62 402.05 C 694.28 402.51, 694.75 402.66, 695.63 402.78 C 696.51 402.89, 697.05 402.86, 698.01 402.63 C 698.98 402.39, 699.52 402.18, 700.46 401.61 C 701.41 401.04, 701.91 400.66, 702.75 399.79 C 703.58 398.92, 703.99 398.38, 704.64 397.25 C 705.30 396.13, 705.59 395.47, 706.02 394.16 C 706.45 392.86, 706.61 392.11, 706.79 390.73 C 706.97 389.36, 706.98 388.60, 706.93 387.29 C 706.87 385.97, 706.75 385.29, 706.51 384.17 C 706.27 383.05, 706.09 382.51, 705.73 381.68 C 705.37 380.85, 705.16 380.45, 704.72 380.02 C 704.28 379.59, 703.93 379.41, 703.54 379.51 C 703.15 379.61, 702.91 379.84, 702.77 380.50 C 702.63 381.16, 702.66 381.70, 702.85 382.80 C 703.03 383.90, 703.25 384.64, 703.69 385.99 C 704.14 387.34, 704.48 388.17, 705.08 389.56 C 705.68 390.95, 706.04 391.69, 706.70 392.94 C 707.35 394.19, 707.70 394.78, 708.36 395.81 C 709.01 396.84, 709.34 397.32, 709.95 398.10 C 710.57 398.89, 710.88 399.22, 711.43 399.74 C 711.99 400.26, 712.26 400.46, 712.75 400.70 C 713.24 400.93, 713.50 400.92, 713.88 400.92 C 714.25 400.92, 714.41 400.83, 714.62 400.69 C 714.83 400.55, 714.91 400.38, 714.91 400.22 C 714.91 400.06, 714.73 399.94, 714.60 399.90 C 714.48 399.86, 714.43 399.99, 714.29 400.01 C 714.16 400.03, 714.15 400.06, 713.94 400.02 C 713.73 399.98, 713.58 400.02, 713.24 399.80 C 712.90 399.58, 712.71 399.41, 712.25 398.92 C 711.79 398.43, 711.50 398.11, 710.94 397.35 C 710.38 396.60, 710.06 396.14, 709.47 395.13 C 708.87 394.12, 708.55 393.54, 707.96 392.31 C 707.37 391.07, 707.05 390.34, 706.53 388.97 C 706.01 387.60, 705.76 386.76, 705.35 385.45 C 704.94 384.15, 704.77 383.43, 704.48 382.43 C 704.18 381.43, 704.05 380.97, 703.87 380.47 C 703.70 379.97, 703.61 379.89, 703.61 379.92 C 703.62 379.94, 703.71 380.16, 703.90 380.61 C 704.09 381.05, 704.31 381.36, 704.57 382.13 C 704.83 382.89, 705.01 383.39, 705.20 384.43 C 705.40 385.47, 705.50 386.11, 705.54 387.34 C 705.57 388.56, 705.55 389.27, 705.38 390.54 C 705.21 391.82, 705.06 392.52, 704.66 393.72 C 704.27 394.92, 704.00 395.52, 703.41 396.54 C 702.82 397.56, 702.46 398.04, 701.72 398.81 C 700.98 399.58, 700.54 399.89, 699.73 400.38 C 698.92 400.87, 698.46 401.03, 697.66 401.25 C 696.87 401.46, 696.44 401.48, 695.76 401.44 C 695.08 401.41, 694.73 401.33, 694.25 401.06 C 693.78 400.80, 693.57 400.60, 693.39 400.10 C 693.21 399.61, 693.18 399.26, 693.34 398.59 C 693.49 397.92, 693.68 397.49, 694.16 396.76 C 694.63 396.04, 695.01 395.60, 695.70 394.95 C 696.39 394.31, 696.85 393.98, 697.62 393.54 C 698.38 393.10, 698.82 392.93, 699.52 392.76 C 700.23 392.59, 700.54 392.60, 701.14 392.68 C 701.73 392.77, 702.00 392.96, 702.50 393.17 C 702.99 393.39, 703.20 393.57, 703.60 393.76 C 704.00 393.95, 704.24 394.12, 704.50 394.10 C 704.76 394.08, 704.92 393.94, 704.89 393.66"
          style="stroke: black; fill: black;"/>
    <path d="M 718.11,391.30 C 717.95 391.50, 717.91 391.73, 717.89 392.22 C 717.86 392.70, 717.86 393.06, 717.99 393.74 C 718.12 394.42, 718.26 394.90, 718.53 395.62 C 718.80 396.35, 718.99 396.74, 719.33 397.36 C 719.66 397.99, 719.86 398.30, 720.21 398.75 C 720.55 399.20, 720.74 399.38, 721.04 399.62 C 721.34 399.85, 721.51 399.88, 721.72 399.92 C 721.93 399.97, 722.01 399.92, 722.10 399.85 C 722.19 399.79, 722.18 399.71, 722.18 399.61 C 722.18 399.52, 722.16 399.53, 722.09 399.38 C 722.03 399.23, 722.01 399.15, 721.84 398.88 C 721.68 398.61, 721.51 398.46, 721.27 398.04 C 721.03 397.61, 720.88 397.34, 720.64 396.75 C 720.41 396.16, 720.32 395.77, 720.11 395.08 C 719.90 394.40, 719.79 393.95, 719.59 393.33 C 719.39 392.72, 719.29 392.42, 719.11 392.00 C 718.92 391.58, 718.85 391.36, 718.65 391.22 C 718.45 391.08, 718.26 391.10, 718.11 391.30"
          style="stroke: black; fill: black;"/>
    <path d="M 717.52,382.96 C 717.71 382.88, 717.73 382.83, 717.70 382.80 C 717.66 382.77, 717.50 382.81, 717.34 382.79 C 717.18 382.78, 717.05 382.69, 716.88 382.72 C 716.71 382.75, 716.50 382.85, 716.48 382.95 C 716.46 383.04, 716.56 383.18, 716.77 383.18 C 716.98 383.18, 717.34 383.03, 717.52 382.96"
          style="stroke: black; fill: black;"/>
    <path d="M 755.81,379.99 C 755.68 380.24, 755.65 380.46, 755.65 381.14 C 755.65 381.82, 755.66 382.30, 755.82 383.39 C 755.98 384.47, 756.15 385.22, 756.46 386.57 C 756.77 387.92, 756.99 388.72, 757.37 390.13 C 757.75 391.54, 757.97 392.29, 758.35 393.60 C 758.73 394.91, 758.94 395.55, 759.29 396.67 C 759.64 397.79, 759.82 398.30, 760.12 399.22 C 760.42 400.13, 760.54 400.55, 760.77 401.24 C 761.00 401.93, 761.09 402.23, 761.26 402.66 C 761.44 403.08, 761.53 403.18, 761.65 403.37 C 761.76 403.56, 761.76 403.57, 761.85 403.62 C 761.93 403.67, 762.00 403.69, 762.08 403.62 C 762.17 403.55, 762.23 403.51, 762.28 403.26 C 762.32 403.01, 762.36 402.85, 762.29 402.38 C 762.22 401.90, 762.11 401.60, 761.92 400.89 C 761.72 400.18, 761.58 399.77, 761.31 398.85 C 761.03 397.93, 760.86 397.42, 760.54 396.29 C 760.22 395.17, 760.04 394.54, 759.71 393.23 C 759.37 391.92, 759.19 391.16, 758.87 389.76 C 758.55 388.35, 758.40 387.54, 758.11 386.20 C 757.82 384.86, 757.68 384.12, 757.42 383.07 C 757.16 382.02, 757.04 381.58, 756.82 380.94 C 756.59 380.31, 756.51 380.10, 756.31 379.91 C 756.11 379.72, 755.94 379.75, 755.81 379.99"
          style="stroke: black; fill: black;"/>
    <path d="M 750.96,397.04 C 751.18 397.13, 751.32 397.07, 751.88 397.02 C 752.45 396.97, 752.81 396.92, 753.77 396.78 C 754.73 396.65, 755.39 396.54, 756.70 396.34 C 758.01 396.14, 758.86 396.00, 760.31 395.78 C 761.77 395.55, 762.58 395.44, 763.97 395.21 C 765.37 394.98, 766.08 394.85, 767.27 394.64 C 768.47 394.42, 769.04 394.32, 769.92 394.13 C 770.81 393.95, 771.19 393.79, 771.71 393.70 C 772.22 393.61, 772.32 393.54, 772.50 393.70 C 772.68 393.85, 772.58 394.02, 772.60 394.48 C 772.63 394.94, 772.56 395.30, 772.63 396.00 C 772.71 396.70, 772.76 397.20, 772.99 397.97 C 773.23 398.74, 773.39 399.20, 773.82 399.86 C 774.25 400.52, 774.54 400.83, 775.14 401.28 C 775.73 401.73, 776.10 401.91, 776.81 402.11 C 777.53 402.31, 777.93 402.34, 778.71 402.29 C 779.48 402.24, 779.91 402.14, 780.68 401.85 C 781.45 401.56, 781.85 401.33, 782.56 400.83 C 783.28 400.33, 783.67 400.00, 784.25 399.36 C 784.82 398.72, 785.13 398.24, 785.46 397.65 C 785.80 397.06, 785.84 396.68, 785.93 396.40 C 786.02 396.12, 785.91 396.07, 785.93 396.24 C 785.94 396.42, 785.87 396.72, 786.01 397.29 C 786.15 397.85, 786.24 398.34, 786.62 399.06 C 787.00 399.77, 787.32 400.23, 787.92 400.87 C 788.51 401.51, 788.90 401.83, 789.61 402.27 C 790.32 402.72, 790.71 402.88, 791.48 403.10 C 792.24 403.32, 792.65 403.39, 793.43 403.38 C 794.20 403.38, 794.62 403.32, 795.36 403.07 C 796.10 402.81, 796.56 402.67, 797.13 402.11 C 797.71 401.56, 798.13 400.76, 798.24 400.30 C 798.35 399.85, 798.07 399.68, 797.67 399.83 C 797.28 399.98, 796.79 400.66, 796.24 401.06 C 795.69 401.47, 795.50 401.65, 794.93 401.85 C 794.37 402.06, 794.04 402.09, 793.42 402.09 C 792.80 402.09, 792.46 402.05, 791.85 401.86 C 791.24 401.67, 790.91 401.54, 790.36 401.14 C 789.81 400.75, 789.54 400.46, 789.10 399.88 C 788.65 399.29, 788.51 398.87, 788.16 398.22 C 787.80 397.58, 787.68 397.17, 787.32 396.67 C 786.96 396.17, 786.76 395.90, 786.36 395.73 C 785.96 395.55, 785.75 395.58, 785.33 395.80 C 784.92 396.01, 784.72 396.31, 784.28 396.82 C 783.85 397.33, 783.65 397.79, 783.14 398.36 C 782.63 398.93, 782.33 399.23, 781.73 399.67 C 781.14 400.11, 780.80 400.30, 780.17 400.55 C 779.54 400.81, 779.20 400.89, 778.59 400.96 C 777.99 401.02, 777.68 401.02, 777.14 400.89 C 776.60 400.76, 776.33 400.64, 775.90 400.29 C 775.48 399.95, 775.28 399.72, 775.01 399.17 C 774.73 398.62, 774.69 398.24, 774.53 397.55 C 774.37 396.86, 774.36 396.41, 774.20 395.73 C 774.04 395.05, 773.98 394.69, 773.73 394.17 C 773.48 393.64, 773.37 393.38, 772.96 393.09 C 772.55 392.80, 772.31 392.75, 771.66 392.72 C 771.02 392.68, 770.64 392.80, 769.72 392.92 C 768.80 393.04, 768.25 393.15, 767.06 393.32 C 765.87 393.49, 765.16 393.59, 763.76 393.77 C 762.37 393.94, 761.56 394.02, 760.09 394.19 C 758.63 394.37, 757.77 394.44, 756.44 394.65 C 755.11 394.85, 754.43 394.96, 753.45 395.21 C 752.48 395.46, 752.09 395.64, 751.56 395.92 C 751.02 396.19, 750.89 396.36, 750.77 396.58 C 750.65 396.80, 750.74 396.95, 750.96 397.04"
          style="stroke: black; fill: black;"/>
    <path d="M 798.11,384.93 C 797.98 385.19, 797.94 385.46, 797.97 386.16 C 798.01 386.86, 798.05 387.36, 798.28 388.42 C 798.52 389.48, 798.74 390.22, 799.15 391.45 C 799.56 392.68, 799.86 393.40, 800.33 394.59 C 800.80 395.78, 801.05 396.38, 801.50 397.41 C 801.95 398.43, 802.19 398.91, 802.59 399.72 C 803.00 400.53, 803.19 400.91, 803.53 401.47 C 803.86 402.02, 804.00 402.21, 804.25 402.50 C 804.49 402.79, 804.58 402.85, 804.75 402.91 C 804.93 402.98, 805.00 402.92, 805.13 402.82 C 805.26 402.71, 805.40 402.51, 805.42 402.39 C 805.43 402.26, 805.41 402.12, 805.22 402.19 C 805.03 402.26, 804.60 402.59, 804.47 402.74 C 804.34 402.89, 804.46 402.91, 804.56 402.93 C 804.67 402.95, 804.88 402.89, 805.01 402.82 C 805.15 402.75, 805.22 402.73, 805.23 402.57 C 805.24 402.40, 805.21 402.32, 805.07 401.99 C 804.93 401.66, 804.81 401.49, 804.54 400.92 C 804.28 400.36, 804.10 399.99, 803.74 399.18 C 803.38 398.38, 803.15 397.91, 802.75 396.89 C 802.35 395.87, 802.15 395.27, 801.75 394.07 C 801.36 392.88, 801.15 392.15, 800.77 390.93 C 800.40 389.71, 800.20 388.99, 799.87 387.99 C 799.55 386.98, 799.40 386.54, 799.15 385.91 C 798.90 385.28, 798.83 385.04, 798.62 384.84 C 798.42 384.65, 798.24 384.67, 798.11 384.93"
          style="stroke: black; fill: black;"/>
    <path d="M 797.07,398.11 C 797.30 398.25, 797.52 398.27, 798.13 398.28 C 798.75 398.30, 799.17 398.29, 800.13 398.17 C 801.10 398.05, 801.76 397.95, 802.98 397.69 C 804.19 397.42, 804.93 397.24, 806.20 396.87 C 807.46 396.49, 808.14 396.25, 809.31 395.82 C 810.49 395.39, 811.08 395.16, 812.07 394.72 C 813.06 394.28, 813.51 394.05, 814.26 393.62 C 815.01 393.19, 815.36 392.98, 815.83 392.57 C 816.29 392.16, 816.48 391.85, 816.61 391.56 C 816.73 391.27, 816.58 391.07, 816.45 391.12 C 816.32 391.17, 816.11 391.33, 815.97 391.81 C 815.83 392.29, 815.76 392.71, 815.76 393.54 C 815.75 394.37, 815.80 394.97, 815.95 395.97 C 816.10 396.96, 816.23 397.58, 816.51 398.52 C 816.78 399.46, 816.99 399.94, 817.32 400.67 C 817.66 401.40, 817.86 401.72, 818.19 402.17 C 818.52 402.61, 818.70 402.70, 818.97 402.88 C 819.24 403.06, 819.37 403.08, 819.52 403.06 C 819.67 403.05, 819.72 402.95, 819.72 402.81 C 819.72 402.68, 819.63 402.63, 819.51 402.39 C 819.40 402.15, 819.34 402.04, 819.15 401.60 C 818.96 401.16, 818.80 400.87, 818.57 400.18 C 818.34 399.48, 818.18 399.03, 818.00 398.15 C 817.81 397.26, 817.76 396.69, 817.67 395.76 C 817.58 394.82, 817.62 394.25, 817.54 393.46 C 817.47 392.66, 817.43 392.29, 817.28 391.79 C 817.12 391.28, 817.01 391.11, 816.76 390.94 C 816.51 390.78, 816.37 390.83, 816.04 390.97 C 815.72 391.11, 815.59 391.33, 815.11 391.64 C 814.64 391.96, 814.38 392.17, 813.67 392.55 C 812.96 392.92, 812.52 393.12, 811.55 393.51 C 810.59 393.89, 810.00 394.10, 808.85 394.48 C 807.70 394.85, 807.03 395.06, 805.79 395.37 C 804.55 395.68, 803.82 395.80, 802.63 396.04 C 801.44 396.28, 800.79 396.36, 799.85 396.58 C 798.92 396.79, 798.51 396.91, 797.94 397.11 C 797.37 397.32, 797.17 397.41, 796.99 397.61 C 796.82 397.81, 796.85 397.98, 797.07 398.11"
          style="stroke: black; fill: black;"/>
    <path d="M 810.61,399.33 C 810.82 399.44, 810.97 399.41, 811.52 399.40 C 812.07 399.39, 812.43 399.38, 813.36 399.28 C 814.29 399.19, 814.93 399.09, 816.17 398.93 C 817.41 398.76, 818.21 398.65, 819.57 398.44 C 820.93 398.24, 821.67 398.11, 822.96 397.90 C 824.25 397.70, 824.92 397.58, 826.00 397.43 C 827.09 397.27, 827.58 397.15, 828.38 397.13 C 829.18 397.11, 829.47 397.13, 830.01 397.33 C 830.55 397.52, 830.71 397.71, 831.09 398.13 C 831.46 398.55, 831.57 398.85, 831.89 399.43 C 832.22 400.00, 832.36 400.38, 832.70 400.99 C 833.04 401.60, 833.21 401.96, 833.58 402.48 C 833.94 403.00, 834.18 403.29, 834.54 403.60 C 834.91 403.92, 835.11 403.98, 835.40 404.07 C 835.69 404.16, 835.84 404.12, 835.98 404.05 C 836.12 403.99, 836.12 403.86, 836.09 403.73 C 836.06 403.60, 835.96 403.60, 835.83 403.42 C 835.70 403.23, 835.67 403.14, 835.45 402.80 C 835.24 402.46, 835.06 402.22, 834.76 401.71 C 834.47 401.21, 834.32 400.89, 833.98 400.28 C 833.63 399.68, 833.47 399.29, 833.05 398.69 C 832.64 398.10, 832.43 397.77, 831.90 397.30 C 831.36 396.83, 831.09 396.60, 830.39 396.33 C 829.68 396.07, 829.30 396.01, 828.39 395.96 C 827.49 395.92, 826.98 396.01, 825.85 396.11 C 824.72 396.21, 824.06 396.32, 822.76 396.47 C 821.47 396.62, 820.73 396.72, 819.36 396.87 C 818.00 397.02, 817.20 397.07, 815.95 397.23 C 814.69 397.39, 814.03 397.48, 813.10 397.69 C 812.16 397.90, 811.79 398.05, 811.26 398.28 C 810.74 398.51, 810.60 398.65, 810.46 398.86 C 810.33 399.07, 810.40 399.23, 810.61 399.33"
          style="stroke: black; fill: black;"/>
    <path d="M 830.93,387.96 C 831.07 387.95, 830.96 387.87, 830.85 388.01 C 830.74 388.16, 830.44 388.57, 830.38 388.69 C 830.32 388.81, 830.43 388.87, 830.56 388.61 C 830.69 388.35, 831.00 387.68, 831.04 387.39 C 831.08 387.09, 830.92 387.03, 830.75 387.12 C 830.58 387.22, 830.32 387.66, 830.20 387.85 C 830.08 388.04, 830.00 388.05, 830.14 388.07 C 830.29 388.10, 830.79 387.98, 830.93 387.96"
          style="stroke: black; fill: black;"/>
    <path d="M 867.59,397.12 C 867.45 397.41, 867.40 397.77, 867.42 398.47 C 867.44 399.17, 867.51 399.69, 867.69 400.61 C 867.88 401.53, 868.04 402.16, 868.35 403.08 C 868.66 404.00, 868.90 404.47, 869.24 405.21 C 869.58 405.95, 869.75 406.27, 870.05 406.78 C 870.35 407.28, 870.50 407.47, 870.73 407.73 C 870.97 408.00, 871.05 408.05, 871.24 408.13 C 871.42 408.21, 871.53 408.17, 871.65 408.14 C 871.77 408.10, 871.83 408.00, 871.82 407.94 C 871.80 407.88, 871.60 407.84, 871.57 407.82 C 871.53 407.80, 871.60 407.87, 871.63 407.84 C 871.66 407.80, 871.73 407.78, 871.71 407.66 C 871.69 407.53, 871.66 407.49, 871.54 407.21 C 871.42 406.93, 871.31 406.75, 871.10 406.25 C 870.90 405.75, 870.76 405.44, 870.53 404.71 C 870.29 403.98, 870.16 403.50, 869.92 402.61 C 869.67 401.71, 869.55 401.10, 869.31 400.22 C 869.06 399.35, 868.92 398.87, 868.68 398.23 C 868.45 397.60, 868.36 397.26, 868.14 397.04 C 867.93 396.82, 867.74 396.84, 867.59 397.12"
          style="stroke: black; fill: black;"/>
    <path d="M 865.58,387.25 C 865.70 387.18, 865.67 387.08, 865.53 387.08 C 865.39 387.08, 865.00 387.19, 864.87 387.26 C 864.75 387.32, 864.78 387.42, 864.92 387.42 C 865.06 387.42, 865.45 387.32, 865.58 387.25"
          style="stroke: black; fill: black;"/>
    <path d="M 904.98,384.99 C 904.85 385.25, 904.83 385.50, 904.83 386.22 C 904.83 386.94, 904.83 387.45, 904.98 388.59 C 905.13 389.73, 905.29 390.51, 905.59 391.93 C 905.88 393.34, 906.09 394.20, 906.45 395.66 C 906.81 397.13, 907.00 397.90, 907.38 399.25 C 907.75 400.60, 907.95 401.25, 908.32 402.40 C 908.69 403.56, 908.89 404.09, 909.22 405.02 C 909.54 405.94, 909.67 406.36, 909.95 407.04 C 910.24 407.72, 910.40 408.01, 910.64 408.42 C 910.88 408.83, 911.00 408.99, 911.17 409.10 C 911.35 409.20, 911.46 409.16, 911.52 408.96 C 911.58 408.76, 911.55 408.57, 911.46 408.11 C 911.37 407.64, 911.28 407.34, 911.07 406.64 C 910.86 405.94, 910.69 405.54, 910.39 404.62 C 910.09 403.70, 909.90 403.17, 909.57 402.02 C 909.24 400.88, 909.05 400.24, 908.73 398.90 C 908.41 397.56, 908.25 396.79, 907.96 395.33 C 907.66 393.86, 907.52 393.00, 907.25 391.59 C 906.97 390.19, 906.83 389.41, 906.58 388.30 C 906.33 387.19, 906.22 386.72, 906.00 386.04 C 905.78 385.36, 905.69 385.13, 905.49 384.92 C 905.29 384.71, 905.11 384.73, 904.98 384.99"
          style="stroke: black; fill: black;"/>
    <path d="M 900.29,401.71 C 900.48 401.80, 900.56 401.74, 901.07 401.73 C 901.57 401.71, 901.89 401.70, 902.81 401.63 C 903.74 401.55, 904.36 401.47, 905.68 401.36 C 907.01 401.24, 907.86 401.18, 909.43 401.04 C 910.99 400.90, 911.91 400.82, 913.52 400.66 C 915.13 400.49, 915.98 400.39, 917.48 400.21 C 918.98 400.02, 919.73 399.94, 921.02 399.74 C 922.31 399.55, 922.93 399.46, 923.92 399.24 C 924.90 399.01, 925.33 398.90, 925.95 398.61 C 926.56 398.32, 926.77 398.15, 926.98 397.79 C 927.19 397.43, 927.19 397.17, 926.99 396.80 C 926.79 396.44, 926.53 396.19, 925.97 395.97 C 925.42 395.76, 924.97 395.69, 924.19 395.74 C 923.41 395.79, 922.91 395.91, 922.07 396.22 C 921.23 396.54, 920.74 396.77, 919.99 397.32 C 919.23 397.88, 918.82 398.25, 918.31 399.00 C 917.80 399.75, 917.57 400.21, 917.42 401.06 C 917.28 401.91, 917.30 402.41, 917.60 403.24 C 917.89 404.07, 918.18 404.51, 918.89 405.19 C 919.60 405.88, 920.10 406.20, 921.14 406.67 C 922.18 407.13, 922.85 407.31, 924.08 407.53 C 925.30 407.75, 926.01 407.78, 927.27 407.77 C 928.54 407.75, 929.22 407.67, 930.41 407.45 C 931.59 407.23, 932.19 407.07, 933.20 406.67 C 934.21 406.28, 934.68 406.02, 935.45 405.47 C 936.23 404.92, 936.55 404.58, 937.07 403.91 C 937.59 403.24, 937.80 402.83, 938.05 402.14 C 938.29 401.45, 938.34 400.96, 938.30 400.48 C 938.26 400.00, 938.02 399.76, 937.84 399.74 C 937.67 399.72, 937.48 399.93, 937.42 400.37 C 937.36 400.81, 937.35 401.24, 937.53 401.95 C 937.71 402.66, 937.91 403.18, 938.33 403.92 C 938.75 404.65, 939.09 405.06, 939.64 405.62 C 940.18 406.18, 940.48 406.39, 941.05 406.73 C 941.62 407.07, 941.91 407.19, 942.48 407.31 C 943.05 407.43, 943.36 407.45, 943.92 407.32 C 944.47 407.19, 944.75 407.05, 945.25 406.66 C 945.74 406.28, 945.96 406.00, 946.37 405.41 C 946.78 404.82, 946.97 404.41, 947.29 403.72 C 947.60 403.03, 947.76 402.59, 947.96 401.97 C 948.17 401.34, 948.21 400.96, 948.32 400.61 C 948.42 400.27, 948.39 400.18, 948.49 400.23 C 948.60 400.29, 948.62 400.51, 948.84 400.90 C 949.07 401.28, 949.23 401.64, 949.63 402.18 C 950.03 402.72, 950.33 403.07, 950.86 403.59 C 951.39 404.11, 951.70 404.38, 952.27 404.79 C 952.84 405.19, 953.15 405.37, 953.73 405.62 C 954.32 405.87, 954.62 405.97, 955.21 406.05 C 955.80 406.13, 956.11 406.13, 956.69 406.03 C 957.26 405.93, 957.56 405.82, 958.09 405.55 C 958.62 405.28, 958.85 405.08, 959.32 404.67 C 959.79 404.26, 960.02 403.99, 960.43 403.51 C 960.84 403.04, 961.04 402.73, 961.35 402.31 C 961.67 401.88, 961.77 401.62, 962.00 401.38 C 962.23 401.13, 962.28 401.07, 962.51 401.11 C 962.73 401.14, 962.84 401.27, 963.14 401.55 C 963.44 401.83, 963.59 402.06, 964.00 402.51 C 964.42 402.95, 964.67 403.26, 965.21 403.77 C 965.74 404.28, 966.06 404.58, 966.67 405.05 C 967.28 405.53, 967.61 405.75, 968.26 406.14 C 968.91 406.53, 969.26 406.71, 969.92 407.00 C 970.58 407.28, 970.93 407.41, 971.56 407.56 C 972.19 407.71, 972.57 407.71, 973.09 407.73 C 973.60 407.74, 973.79 407.71, 974.13 407.63 C 974.47 407.55, 974.60 407.45, 974.78 407.32 C 974.95 407.19, 975.00 407.10, 975.01 406.97 C 975.02 406.84, 974.94 406.74, 974.85 406.67 C 974.75 406.60, 974.70 406.64, 974.54 406.62 C 974.38 406.60, 974.31 406.61, 974.04 406.58 C 973.77 406.54, 973.63 406.53, 973.19 406.46 C 972.76 406.40, 972.43 406.38, 971.88 406.24 C 971.33 406.10, 971.04 406.02, 970.46 405.76 C 969.88 405.51, 969.55 405.33, 968.98 404.97 C 968.41 404.60, 968.14 404.39, 967.60 403.92 C 967.06 403.46, 966.80 403.15, 966.29 402.65 C 965.78 402.15, 965.55 401.85, 965.06 401.42 C 964.58 400.99, 964.36 400.75, 963.86 400.49 C 963.36 400.22, 963.08 400.10, 962.57 400.09 C 962.06 400.08, 961.79 400.18, 961.33 400.44 C 960.87 400.70, 960.66 400.96, 960.26 401.38 C 959.85 401.80, 959.67 402.10, 959.30 402.55 C 958.92 403.01, 958.73 403.28, 958.37 403.65 C 958.00 404.02, 957.84 404.18, 957.46 404.41 C 957.08 404.64, 956.87 404.71, 956.46 404.80 C 956.04 404.88, 955.82 404.90, 955.38 404.83 C 954.94 404.77, 954.71 404.70, 954.26 404.47 C 953.81 404.25, 953.57 404.10, 953.12 403.70 C 952.67 403.31, 952.46 403.03, 952.02 402.51 C 951.58 401.99, 951.38 401.62, 950.92 401.11 C 950.47 400.61, 950.23 400.32, 949.76 400.00 C 949.28 399.68, 949.03 399.51, 948.57 399.51 C 948.11 399.51, 947.84 399.62, 947.44 399.99 C 947.04 400.36, 946.88 400.75, 946.56 401.37 C 946.24 401.98, 946.13 402.41, 945.84 403.06 C 945.55 403.72, 945.40 404.10, 945.11 404.63 C 944.82 405.16, 944.70 405.40, 944.40 405.71 C 944.11 406.03, 943.97 406.12, 943.64 406.21 C 943.30 406.31, 943.12 406.29, 942.74 406.19 C 942.35 406.09, 942.12 406.01, 941.72 405.71 C 941.32 405.41, 941.10 405.22, 940.73 404.70 C 940.36 404.18, 940.20 403.77, 939.89 403.11 C 939.58 402.44, 939.48 401.97, 939.20 401.37 C 938.92 400.76, 938.77 400.41, 938.48 400.06 C 938.20 399.71, 938.01 399.58, 937.75 399.62 C 937.49 399.67, 937.36 399.88, 937.17 400.29 C 936.98 400.70, 937.01 401.10, 936.79 401.68 C 936.58 402.26, 936.50 402.61, 936.09 403.17 C 935.68 403.72, 935.42 404.00, 934.75 404.46 C 934.08 404.91, 933.66 405.12, 932.74 405.45 C 931.83 405.77, 931.27 405.91, 930.17 406.09 C 929.08 406.26, 928.43 406.33, 927.27 406.32 C 926.10 406.31, 925.45 406.26, 924.34 406.06 C 923.23 405.86, 922.63 405.69, 921.72 405.32 C 920.81 404.95, 920.38 404.71, 919.78 404.21 C 919.19 403.71, 918.97 403.40, 918.74 402.82 C 918.51 402.24, 918.51 401.90, 918.64 401.29 C 918.77 400.69, 918.97 400.35, 919.41 399.80 C 919.84 399.24, 920.19 398.94, 920.83 398.53 C 921.47 398.11, 921.89 397.93, 922.59 397.71 C 923.30 397.48, 923.72 397.47, 924.34 397.40 C 924.96 397.32, 925.28 397.35, 925.71 397.33 C 926.14 397.31, 926.33 397.29, 926.49 397.29 C 926.64 397.29, 926.68 397.29, 926.50 397.35 C 926.32 397.42, 926.15 397.49, 925.59 397.63 C 925.03 397.76, 924.63 397.87, 923.68 398.03 C 922.73 398.19, 922.11 398.28, 920.84 398.43 C 919.57 398.59, 918.82 398.67, 917.33 398.82 C 915.83 398.97, 914.99 399.05, 913.38 399.17 C 911.78 399.29, 910.88 399.34, 909.31 399.44 C 907.74 399.53, 906.87 399.54, 905.53 399.66 C 904.19 399.79, 903.53 399.85, 902.58 400.05 C 901.63 400.25, 901.28 400.41, 900.78 400.65 C 900.29 400.90, 900.20 401.06, 900.11 401.28 C 900.01 401.49, 900.10 401.62, 900.29 401.71"
          style="stroke: black; fill: black;"/>
    <path d="M 975.38,401.44 C 975.24 401.64, 975.18 401.82, 975.17 402.37 C 975.16 402.92, 975.17 403.32, 975.34 404.21 C 975.52 405.10, 975.71 405.69, 976.03 406.81 C 976.36 407.92, 976.60 408.59, 976.96 409.78 C 977.33 410.97, 977.52 411.63, 977.85 412.76 C 978.17 413.90, 978.34 414.48, 978.58 415.46 C 978.83 416.43, 978.91 416.91, 979.08 417.65 C 979.24 418.38, 979.29 418.72, 979.41 419.12 C 979.52 419.51, 979.64 419.66, 979.67 419.61 C 979.70 419.55, 979.73 419.38, 979.55 418.85 C 979.37 418.31, 979.16 417.86, 978.77 416.93 C 978.38 416.00, 978.05 415.39, 977.61 414.20 C 977.18 413.01, 976.90 412.25, 976.60 410.98 C 976.30 409.70, 976.17 409.02, 976.11 407.82 C 976.06 406.61, 976.10 406.02, 976.33 404.95 C 976.56 403.88, 976.77 403.34, 977.26 402.46 C 977.76 401.57, 978.09 401.15, 978.80 400.51 C 979.51 399.86, 979.95 399.59, 980.81 399.23 C 981.66 398.87, 982.18 398.77, 983.07 398.71 C 983.95 398.65, 984.45 398.73, 985.25 398.94 C 986.06 399.15, 986.49 399.36, 987.09 399.76 C 987.69 400.17, 987.95 400.46, 988.26 400.97 C 988.58 401.47, 988.67 401.76, 988.66 402.29 C 988.66 402.81, 988.57 403.08, 988.22 403.59 C 987.87 404.10, 987.58 404.36, 986.94 404.83 C 986.29 405.29, 985.84 405.53, 985.01 405.90 C 984.17 406.28, 983.63 406.46, 982.76 406.71 C 981.89 406.95, 981.38 407.03, 980.64 407.15 C 979.91 407.26, 979.53 407.27, 979.07 407.26 C 978.62 407.26, 978.55 407.18, 978.39 407.12 C 978.22 407.07, 978.27 407.07, 978.25 406.99 C 978.23 406.91, 978.38 406.81, 978.31 406.72 C 978.23 406.63, 978.01 406.49, 977.88 406.55 C 977.74 406.62, 977.63 406.80, 977.64 407.04 C 977.65 407.27, 977.67 407.47, 977.92 407.73 C 978.17 408.00, 978.33 408.21, 978.90 408.36 C 979.47 408.52, 979.93 408.56, 980.78 408.52 C 981.63 408.47, 982.18 408.39, 983.15 408.14 C 984.12 407.89, 984.71 407.72, 985.64 407.28 C 986.57 406.85, 987.09 406.57, 987.82 405.96 C 988.55 405.35, 988.90 404.97, 989.30 404.24 C 989.70 403.51, 989.82 403.07, 989.82 402.30 C 989.81 401.52, 989.70 401.08, 989.30 400.36 C 988.90 399.65, 988.57 399.25, 987.83 398.71 C 987.09 398.17, 986.57 397.92, 985.60 397.66 C 984.63 397.39, 984.04 397.31, 982.98 397.39 C 981.92 397.46, 981.30 397.58, 980.29 398.02 C 979.28 398.45, 978.75 398.79, 977.92 399.55 C 977.09 400.32, 976.71 400.81, 976.14 401.83 C 975.57 402.86, 975.36 403.47, 975.08 404.67 C 974.80 405.87, 974.75 406.52, 974.75 407.85 C 974.75 409.17, 974.85 409.90, 975.10 411.29 C 975.35 412.67, 975.57 413.49, 975.99 414.76 C 976.42 416.04, 976.71 416.72, 977.22 417.67 C 977.73 418.62, 978.04 419.07, 978.54 419.53 C 979.03 419.99, 979.34 420.06, 979.70 419.97 C 980.06 419.89, 980.21 419.63, 980.33 419.12 C 980.45 418.61, 980.40 418.24, 980.31 417.44 C 980.22 416.65, 980.10 416.16, 979.89 415.15 C 979.67 414.14, 979.52 413.56, 979.24 412.40 C 978.96 411.24, 978.79 410.56, 978.47 409.35 C 978.16 408.14, 977.97 407.45, 977.66 406.34 C 977.35 405.23, 977.19 404.65, 976.92 403.81 C 976.65 402.97, 976.52 402.63, 976.31 402.15 C 976.10 401.66, 976.06 401.52, 975.87 401.38 C 975.69 401.23, 975.52 401.24, 975.38 401.44"
          style="stroke: black; fill: black;"/>
    <path d="M 996.45,398.41 C 996.33 398.59, 996.35 398.74, 996.35 399.14 C 996.35 399.55, 996.33 399.82, 996.45 400.42 C 996.57 401.01, 996.69 401.44, 996.94 402.11 C 997.18 402.78, 997.36 403.16, 997.67 403.77 C 997.97 404.38, 998.14 404.71, 998.47 405.17 C 998.80 405.64, 999.02 405.85, 999.33 406.11 C 999.64 406.37, 999.82 406.45, 1000.01 406.46 C 1000.21 406.48, 1000.30 406.39, 1000.32 406.20 C 1000.35 406.01, 1000.26 405.86, 1000.12 405.52 C 999.98 405.18, 999.85 404.96, 999.63 404.49 C 999.41 404.02, 999.25 403.76, 999.03 403.18 C 998.81 402.59, 998.74 402.21, 998.54 401.57 C 998.34 400.93, 998.25 400.52, 998.04 399.97 C 997.84 399.42, 997.73 399.16, 997.51 398.81 C 997.30 398.46, 997.17 398.31, 996.96 398.23 C 996.75 398.15, 996.57 398.22, 996.45 398.41"
          style="stroke: black; fill: black;"/>
    <path d="M 994.47,391.14 C 994.67 391.07, 994.75 390.97, 994.73 390.87 C 994.72 390.77, 994.59 390.71, 994.41 390.65 C 994.24 390.58, 994.04 390.51, 993.84 390.55 C 993.65 390.59, 993.46 390.70, 993.44 390.83 C 993.42 390.96, 993.54 391.14, 993.75 391.20 C 993.96 391.26, 994.28 391.21, 994.47 391.14"
          style="stroke: black; fill: black;"/>
</svg>