<svg xmlns="http://www.w3.org/2000/svg" id="canvas" viewBox="217.698 346.707 913.086 106.871"><path d="M 230.92,356.90 C 230.70 357.26, 230.60 357.71, 230.36 358.76 C 230.12 359.80, 229.98 360.40, 229.71 362.13 C 229.44 363.86, 229.34 365.04, 229.01 367.39 C 228.67 369.74, 228.50 371.06, 228.04 373.88 C 227.59 376.71, 227.31 378.32, 226.71 381.52 C 226.12 384.72, 225.71 386.56, 225.05 389.87 C 224.38 393.18, 224.02 394.95, 223.39 398.08 C 222.76 401.22, 222.39 402.81, 221.90 405.56 C 221.41 408.32, 221.17 409.72, 220.94 411.86 C 220.70 413.99, 220.65 414.82, 220.74 416.25 C 220.83 417.68, 220.93 418.14, 221.38 419.00 C 221.83 419.87, 222.15 420.17, 222.98 420.58 C 223.82 420.99, 224.36 421.07, 225.56 421.04 C 226.75 421.01, 227.44 420.85, 228.95 420.42 C 230.46 419.99, 231.33 419.65, 233.11 418.89 C 234.90 418.13, 235.92 417.61, 237.85 416.61 C 239.79 415.62, 240.88 415.03, 242.78 413.91 C 244.69 412.79, 245.76 412.10, 247.36 411.01 C 248.97 409.93, 249.73 409.36, 250.82 408.47 C 251.92 407.57, 252.49 407.00, 252.84 406.54 C 253.19 406.08, 253.09 405.97, 252.56 406.18 C 252.04 406.39, 251.40 406.88, 250.21 407.60 C 249.02 408.33, 248.24 408.83, 246.60 409.83 C 244.96 410.83, 243.92 411.53, 242.03 412.61 C 240.14 413.70, 239.06 414.28, 237.15 415.24 C 235.25 416.21, 234.23 416.71, 232.50 417.46 C 230.77 418.20, 229.92 418.52, 228.51 418.97 C 227.10 419.43, 226.48 419.60, 225.45 419.75 C 224.42 419.89, 224.01 419.93, 223.35 419.71 C 222.69 419.48, 222.46 419.33, 222.14 418.63 C 221.82 417.93, 221.76 417.54, 221.76 416.21 C 221.77 414.89, 221.87 414.09, 222.16 412.01 C 222.45 409.93, 222.74 408.54, 223.23 405.80 C 223.72 403.06, 224.00 401.46, 224.60 398.32 C 225.20 395.18, 225.57 393.42, 226.25 390.11 C 226.93 386.80, 227.33 384.96, 227.99 381.77 C 228.65 378.58, 229.00 376.97, 229.52 374.14 C 230.05 371.31, 230.26 369.98, 230.60 367.62 C 230.95 365.26, 231.07 364.07, 231.25 362.33 C 231.43 360.59, 231.46 359.98, 231.50 358.91 C 231.55 357.84, 231.57 357.38, 231.45 356.98 C 231.34 356.57, 231.14 356.55, 230.92 356.90" style="stroke: black; fill: black;"/><path d="M 270.16,381.36 C 270.29 381.09, 270.31 380.70, 270.21 380.19 C 270.10 379.68, 270.01 379.32, 269.63 378.82 C 269.25 378.31, 268.97 377.93, 268.31 377.66 C 267.65 377.38, 267.22 377.30, 266.32 377.45 C 265.42 377.61, 264.93 377.74, 263.83 378.45 C 262.73 379.17, 262.04 379.61, 260.81 381.01 C 259.59 382.42, 258.90 383.37, 257.71 385.50 C 256.52 387.63, 255.91 389.05, 254.88 391.67 C 253.84 394.29, 253.25 395.90, 252.55 398.60 C 251.84 401.30, 251.64 402.83, 251.36 405.18 C 251.07 407.54, 250.97 408.71, 251.12 410.38 C 251.27 412.05, 251.51 412.66, 252.09 413.52 C 252.67 414.39, 253.12 414.56, 254.02 414.70 C 254.91 414.84, 255.45 414.76, 256.56 414.23 C 257.67 413.70, 258.33 413.30, 259.58 412.07 C 260.83 410.84, 261.51 409.99, 262.81 408.08 C 264.12 406.18, 264.80 404.97, 266.09 402.53 C 267.39 400.09, 268.10 398.53, 269.31 395.87 C 270.51 393.21, 271.17 391.62, 272.12 389.23 C 273.08 386.84, 273.48 385.65, 274.07 383.93 C 274.66 382.21, 274.90 381.51, 275.09 380.63 C 275.27 379.76, 275.19 379.52, 274.98 379.55 C 274.78 379.59, 274.48 379.82, 274.06 380.81 C 273.63 381.80, 273.33 382.59, 272.86 384.50 C 272.39 386.42, 272.11 387.79, 271.70 390.40 C 271.29 393.02, 271.10 394.71, 270.82 397.57 C 270.53 400.43, 270.37 402.07, 270.27 404.71 C 270.16 407.34, 270.15 408.67, 270.29 410.74 C 270.43 412.81, 270.60 413.72, 270.98 415.07 C 271.35 416.41, 271.71 416.80, 272.16 417.45 C 272.60 418.09, 272.93 418.18, 273.18 418.31 C 273.44 418.44, 273.50 418.34, 273.42 418.10 C 273.34 417.86, 273.07 417.75, 272.79 417.10 C 272.51 416.44, 272.28 416.10, 272.03 414.82 C 271.79 413.53, 271.63 412.68, 271.57 410.68 C 271.51 408.67, 271.56 407.37, 271.72 404.78 C 271.88 402.19, 272.05 400.56, 272.39 397.75 C 272.73 394.93, 272.99 393.26, 273.42 390.68 C 273.85 388.11, 274.19 386.78, 274.54 384.86 C 274.88 382.95, 275.05 382.16, 275.16 381.10 C 275.27 380.05, 275.25 379.72, 275.09 379.57 C 274.92 379.42, 274.77 379.57, 274.33 380.35 C 273.90 381.13, 273.61 381.82, 272.90 383.48 C 272.19 385.15, 271.78 386.33, 270.78 388.68 C 269.79 391.03, 269.15 392.62, 267.94 395.25 C 266.72 397.87, 265.98 399.40, 264.70 401.79 C 263.41 404.18, 262.75 405.36, 261.52 407.20 C 260.28 409.05, 259.61 409.82, 258.50 411.02 C 257.39 412.21, 256.85 412.58, 255.97 413.16 C 255.08 413.73, 254.73 413.89, 254.10 413.88 C 253.47 413.87, 253.16 413.81, 252.80 413.10 C 252.43 412.39, 252.28 411.87, 252.26 410.32 C 252.25 408.78, 252.38 407.64, 252.73 405.37 C 253.07 403.11, 253.28 401.61, 254.01 398.99 C 254.74 396.37, 255.34 394.81, 256.36 392.26 C 257.38 389.72, 257.98 388.32, 259.11 386.27 C 260.23 384.22, 260.88 383.34, 261.99 382.01 C 263.09 380.69, 263.71 380.30, 264.63 379.64 C 265.55 378.97, 265.95 378.86, 266.59 378.69 C 267.22 378.52, 267.43 378.60, 267.81 378.79 C 268.19 378.97, 268.25 379.25, 268.48 379.62 C 268.71 379.99, 268.75 380.26, 268.96 380.64 C 269.18 381.02, 269.31 381.38, 269.55 381.52 C 269.79 381.67, 270.03 381.63, 270.16 381.36" style="stroke: black; fill: black;"/><path d="M 308.49,379.47 C 308.36 379.66, 308.35 379.73, 308.27 380.39 C 308.18 381.05, 308.13 381.49, 308.06 382.77 C 307.99 384.04, 308.00 384.86, 307.92 386.76 C 307.83 388.65, 307.79 389.94, 307.63 392.24 C 307.48 394.54, 307.35 395.92, 307.15 398.26 C 306.96 400.59, 306.82 401.86, 306.66 403.92 C 306.49 405.97, 306.39 406.97, 306.32 408.52 C 306.24 410.07, 306.20 410.78, 306.28 411.67 C 306.35 412.57, 306.45 412.84, 306.69 413.00 C 306.92 413.16, 307.12 413.10, 307.47 412.48 C 307.81 411.86, 308.01 411.36, 308.43 409.90 C 308.84 408.45, 309.02 407.38, 309.55 405.21 C 310.08 403.04, 310.34 401.58, 311.07 399.06 C 311.79 396.54, 312.27 395.05, 313.18 392.62 C 314.08 390.19, 314.63 388.95, 315.57 386.92 C 316.52 384.89, 317.02 383.91, 317.91 382.47 C 318.80 381.03, 319.26 380.48, 320.00 379.73 C 320.75 378.97, 321.09 378.78, 321.63 378.71 C 322.16 378.63, 322.28 378.67, 322.66 379.37 C 323.05 380.07, 323.23 380.71, 323.56 382.21 C 323.90 383.72, 324.10 384.80, 324.35 386.91 C 324.60 389.01, 324.72 390.36, 324.81 392.75 C 324.91 395.15, 324.89 396.61, 324.83 398.88 C 324.77 401.15, 324.59 402.39, 324.52 404.11 C 324.44 405.84, 324.35 406.60, 324.46 407.50 C 324.56 408.39, 324.70 408.65, 325.04 408.59 C 325.38 408.52, 325.66 408.23, 326.16 407.18 C 326.66 406.12, 326.96 405.20, 327.54 403.31 C 328.13 401.42, 328.40 400.05, 329.09 397.72 C 329.77 395.40, 330.17 393.97, 330.97 391.67 C 331.77 389.37, 332.27 388.08, 333.11 386.23 C 333.94 384.38, 334.41 383.53, 335.15 382.41 C 335.90 381.28, 336.23 380.96, 336.82 380.61 C 337.41 380.25, 337.72 380.20, 338.11 380.63 C 338.51 381.05, 338.61 381.46, 338.81 382.72 C 339.01 383.98, 339.05 384.92, 339.11 386.92 C 339.17 388.91, 339.17 390.22, 339.13 392.68 C 339.10 395.15, 339.01 396.71, 338.93 399.24 C 338.85 401.76, 338.74 403.13, 338.73 405.32 C 338.72 407.50, 338.71 408.56, 338.87 410.18 C 339.03 411.80, 339.16 412.42, 339.55 413.42 C 339.93 414.43, 340.20 414.74, 340.80 415.20 C 341.41 415.66, 341.86 415.84, 342.58 415.73 C 343.29 415.61, 344.09 414.98, 344.38 414.63 C 344.67 414.28, 344.42 413.96, 344.03 413.98 C 343.63 414.00, 342.94 414.61, 342.39 414.72 C 341.85 414.84, 341.69 414.89, 341.30 414.57 C 340.92 414.25, 340.72 414.01, 340.47 413.12 C 340.22 412.22, 340.13 411.64, 340.06 410.09 C 340.00 408.54, 340.04 407.50, 340.13 405.35 C 340.21 403.19, 340.35 401.83, 340.48 399.30 C 340.61 396.78, 340.74 395.21, 340.79 392.71 C 340.85 390.22, 340.89 388.90, 340.75 386.84 C 340.62 384.77, 340.55 383.77, 340.12 382.41 C 339.69 381.04, 339.34 380.52, 338.62 380.02 C 337.89 379.51, 337.35 379.54, 336.48 379.89 C 335.60 380.23, 335.17 380.59, 334.24 381.74 C 333.32 382.89, 332.80 383.75, 331.85 385.63 C 330.90 387.51, 330.38 388.81, 329.50 391.13 C 328.61 393.45, 328.16 394.88, 327.43 397.22 C 326.69 399.56, 326.32 400.91, 325.83 402.83 C 325.35 404.75, 325.18 405.69, 325.00 406.81 C 324.82 407.93, 324.86 408.29, 324.92 408.43 C 324.98 408.58, 325.11 408.38, 325.30 407.54 C 325.49 406.69, 325.65 405.94, 325.86 404.22 C 326.07 402.50, 326.23 401.24, 326.34 398.94 C 326.45 396.63, 326.49 395.15, 326.43 392.70 C 326.37 390.25, 326.30 388.88, 326.02 386.70 C 325.74 384.52, 325.55 383.39, 325.04 381.81 C 324.53 380.22, 324.16 379.55, 323.47 378.78 C 322.78 378.01, 322.40 377.93, 321.57 377.97 C 320.74 378.01, 320.25 378.20, 319.32 378.97 C 318.38 379.73, 317.87 380.33, 316.88 381.80 C 315.88 383.27, 315.36 384.28, 314.34 386.33 C 313.32 388.39, 312.74 389.63, 311.77 392.08 C 310.80 394.53, 310.27 396.04, 309.48 398.58 C 308.69 401.13, 308.35 402.60, 307.82 404.79 C 307.30 406.99, 307.10 408.06, 306.85 409.55 C 306.60 411.04, 306.59 411.57, 306.59 412.24 C 306.60 412.92, 306.74 413.04, 306.87 412.93 C 307.00 412.82, 307.11 412.57, 307.25 411.71 C 307.39 410.85, 307.42 410.15, 307.58 408.62 C 307.74 407.09, 307.83 406.09, 308.05 404.05 C 308.27 402.00, 308.44 400.74, 308.68 398.40 C 308.93 396.06, 309.10 394.68, 309.29 392.36 C 309.47 390.05, 309.56 388.74, 309.63 386.83 C 309.70 384.91, 309.69 384.07, 309.64 382.78 C 309.58 381.48, 309.50 381.02, 309.36 380.34 C 309.22 379.67, 309.10 379.59, 308.93 379.42 C 308.75 379.24, 308.62 379.27, 308.49 379.47" style="stroke: black; fill: black;"/><path d="M 356.72,382.53 C 356.50 382.87, 356.38 383.19, 356.16 384.29 C 355.94 385.39, 355.82 386.18, 355.63 388.00 C 355.45 389.83, 355.37 391.15, 355.25 393.42 C 355.13 395.69, 355.08 397.05, 355.02 399.37 C 354.95 401.69, 354.95 403.03, 354.92 405.04 C 354.90 407.05, 354.87 407.98, 354.90 409.41 C 354.94 410.84, 355.00 411.38, 355.10 412.19 C 355.21 412.99, 355.27 413.13, 355.42 413.43 C 355.58 413.73, 355.70 413.71, 355.87 413.70 C 356.05 413.69, 356.13 413.53, 356.31 413.38 C 356.50 413.22, 356.80 413.16, 356.82 412.91 C 356.84 412.67, 356.72 412.29, 356.42 412.16 C 356.11 412.02, 355.58 412.05, 355.29 412.24 C 355.01 412.42, 354.95 412.85, 355.01 413.07 C 355.07 413.28, 355.42 413.23, 355.59 413.32 C 355.76 413.41, 355.78 413.53, 355.86 413.53 C 355.93 413.53, 355.94 413.60, 355.98 413.32 C 356.01 413.04, 356.02 412.92, 356.04 412.14 C 356.07 411.36, 356.06 410.84, 356.11 409.42 C 356.17 408.01, 356.24 407.08, 356.33 405.08 C 356.43 403.08, 356.46 401.75, 356.59 399.43 C 356.71 397.12, 356.82 395.78, 356.96 393.52 C 357.10 391.26, 357.22 389.95, 357.29 388.12 C 357.37 386.30, 357.35 385.50, 357.33 384.40 C 357.32 383.29, 357.34 382.96, 357.21 382.59 C 357.09 382.21, 356.93 382.19, 356.72 382.53" style="stroke: black; fill: black;"/><path d="M 358.34,364.70 C 358.39 364.47, 358.35 364.21, 358.28 364.19 C 358.22 364.17, 358.08 364.46, 358.01 364.61 C 357.94 364.76, 358.00 364.90, 357.95 364.93 C 357.91 364.97, 357.84 364.75, 357.78 364.80 C 357.72 364.85, 357.69 365.01, 357.67 365.19 C 357.66 365.37, 357.64 365.66, 357.71 365.70 C 357.78 365.73, 357.90 365.55, 358.02 365.36 C 358.15 365.16, 358.28 364.94, 358.34 364.70" style="stroke: black; fill: black;"/><path d="M 384.14,380.84 C 384.21 380.57, 384.17 380.29, 383.97 379.78 C 383.77 379.27, 383.62 378.84, 383.13 378.30 C 382.65 377.76, 382.28 377.43, 381.52 377.09 C 380.76 376.74, 380.34 376.53, 379.32 376.59 C 378.31 376.65, 377.68 376.71, 376.45 377.38 C 375.21 378.06, 374.46 378.51, 373.13 379.97 C 371.80 381.42, 371.05 382.46, 369.80 384.65 C 368.55 386.84, 367.87 388.31, 366.87 390.90 C 365.88 393.48, 365.39 395.08, 364.83 397.57 C 364.27 400.06, 364.08 401.41, 364.06 403.34 C 364.05 405.26, 364.23 406.04, 364.76 407.20 C 365.28 408.36, 365.75 408.72, 366.68 409.13 C 367.61 409.55, 368.24 409.60, 369.41 409.28 C 370.57 408.96, 371.24 408.54, 372.49 407.53 C 373.74 406.52, 374.40 405.86, 375.65 404.23 C 376.89 402.60, 377.56 401.54, 378.70 399.40 C 379.84 397.26, 380.42 395.87, 381.36 393.54 C 382.30 391.22, 382.75 389.83, 383.39 387.79 C 384.03 385.75, 384.24 384.60, 384.54 383.35 C 384.84 382.10, 384.90 381.61, 384.90 381.55 C 384.90 381.48, 384.75 381.80, 384.55 383.02 C 384.35 384.24, 384.13 385.33, 383.88 387.64 C 383.64 389.95, 383.53 391.55, 383.32 394.56 C 383.12 397.57, 383.08 399.39, 382.87 402.70 C 382.66 406.00, 382.52 407.80, 382.28 411.09 C 382.05 414.39, 381.94 416.10, 381.71 419.17 C 381.47 422.25, 381.38 423.79, 381.11 426.45 C 380.85 429.12, 380.74 430.36, 380.39 432.50 C 380.04 434.65, 379.81 435.59, 379.35 437.17 C 378.88 438.76, 378.64 439.40, 378.05 440.42 C 377.47 441.44, 377.13 441.78, 376.42 442.27 C 375.71 442.76, 375.32 442.87, 374.52 442.87 C 373.71 442.88, 373.36 442.81, 372.41 442.28 C 371.46 441.76, 370.81 441.38, 369.77 440.24 C 368.73 439.09, 368.07 438.42, 367.19 436.55 C 366.30 434.68, 365.92 433.21, 365.33 430.90 C 364.75 428.60, 364.56 427.09, 364.25 425.03 C 363.93 422.97, 363.96 421.49, 363.75 420.61 C 363.54 419.73, 363.37 419.71, 363.20 420.63 C 363.03 421.54, 362.81 423.03, 362.92 425.17 C 363.02 427.30, 363.16 428.88, 363.73 431.30 C 364.30 433.71, 364.76 435.26, 365.76 437.25 C 366.76 439.24, 367.50 440.00, 368.72 441.24 C 369.93 442.47, 370.67 442.88, 371.83 443.42 C 373.00 443.96, 373.52 444.00, 374.55 443.94 C 375.59 443.87, 376.11 443.71, 377.00 443.12 C 377.88 442.52, 378.29 442.09, 378.98 440.97 C 379.67 439.85, 379.93 439.17, 380.46 437.52 C 380.99 435.86, 381.22 434.90, 381.61 432.71 C 382.00 430.53, 382.15 429.27, 382.42 426.58 C 382.68 423.89, 382.73 422.35, 382.95 419.27 C 383.17 416.19, 383.26 414.47, 383.50 411.18 C 383.75 407.89, 383.89 406.09, 384.18 402.79 C 384.46 399.50, 384.63 397.69, 384.91 394.69 C 385.19 391.69, 385.43 390.11, 385.57 387.78 C 385.72 385.46, 385.77 384.33, 385.63 383.05 C 385.49 381.76, 385.29 381.37, 384.87 381.36 C 384.45 381.34, 384.11 381.79, 383.53 382.99 C 382.95 384.18, 382.72 385.33, 381.99 387.32 C 381.27 389.31, 380.85 390.69, 379.91 392.95 C 378.98 395.22, 378.41 396.59, 377.31 398.66 C 376.21 400.73, 375.57 401.75, 374.42 403.31 C 373.27 404.86, 372.63 405.46, 371.56 406.44 C 370.48 407.42, 369.94 407.82, 369.04 408.20 C 368.13 408.58, 367.70 408.62, 367.02 408.35 C 366.34 408.08, 365.97 407.84, 365.63 406.85 C 365.28 405.86, 365.17 405.17, 365.30 403.39 C 365.43 401.60, 365.66 400.30, 366.27 397.92 C 366.89 395.54, 367.38 393.97, 368.36 391.48 C 369.35 388.98, 370.02 387.55, 371.20 385.45 C 372.39 383.35, 373.09 382.36, 374.28 380.99 C 375.46 379.62, 376.11 379.22, 377.14 378.59 C 378.17 377.97, 378.65 377.91, 379.41 377.85 C 380.16 377.79, 380.39 378.01, 380.91 378.31 C 381.43 378.60, 381.60 378.90, 381.99 379.33 C 382.38 379.76, 382.52 380.11, 382.85 380.46 C 383.19 380.82, 383.39 381.05, 383.65 381.12 C 383.91 381.20, 384.08 381.11, 384.14 380.84" style="stroke: black; fill: black;"/><path d="M 397.81,361.19 C 397.93 361.18, 397.93 360.76, 397.85 360.71 C 397.77 360.66, 397.58 360.46, 397.42 360.96 C 397.27 361.46, 397.27 361.81, 397.09 363.22 C 396.91 364.63, 396.77 365.64, 396.53 368.01 C 396.29 370.38, 396.17 372.01, 395.89 375.07 C 395.60 378.13, 395.41 379.99, 395.09 383.32 C 394.77 386.65, 394.54 388.56, 394.29 391.73 C 394.03 394.89, 393.88 396.51, 393.83 399.15 C 393.78 401.79, 393.83 402.96, 394.04 404.90 C 394.26 406.85, 394.44 407.65, 394.90 408.89 C 395.36 410.14, 395.69 410.54, 396.34 411.12 C 396.99 411.71, 397.36 411.82, 398.14 411.81 C 398.93 411.81, 399.38 411.70, 400.24 411.10 C 401.10 410.50, 401.56 410.05, 402.46 408.82 C 403.36 407.58, 403.81 406.74, 404.73 404.91 C 405.64 403.09, 406.10 401.95, 407.02 399.70 C 407.94 397.44, 408.42 396.05, 409.32 393.65 C 410.23 391.25, 410.75 389.79, 411.53 387.68 C 412.32 385.58, 412.77 384.44, 413.26 383.12 C 413.75 381.80, 413.89 381.26, 413.99 381.09 C 414.09 380.93, 413.95 381.20, 413.76 382.28 C 413.56 383.36, 413.30 384.39, 413.01 386.51 C 412.72 388.63, 412.56 390.28, 412.30 392.89 C 412.05 395.49, 411.90 397.07, 411.74 399.54 C 411.58 402.02, 411.51 403.35, 411.52 405.26 C 411.53 407.18, 411.64 407.95, 411.79 409.12 C 411.94 410.29, 412.08 410.57, 412.28 411.10 C 412.48 411.63, 412.65 411.66, 412.79 411.78 C 412.94 411.89, 412.99 411.84, 413.01 411.67 C 413.02 411.51, 412.91 411.49, 412.87 410.97 C 412.83 410.44, 412.83 410.18, 412.83 409.05 C 412.82 407.91, 412.73 407.17, 412.83 405.29 C 412.92 403.42, 413.04 402.12, 413.29 399.67 C 413.55 397.23, 413.82 395.67, 414.11 393.07 C 414.40 390.48, 414.61 388.83, 414.73 386.68 C 414.86 384.52, 414.92 383.46, 414.75 382.29 C 414.58 381.12, 414.39 380.76, 413.89 380.83 C 413.39 380.89, 412.98 381.36, 412.23 382.62 C 411.48 383.89, 411.02 385.04, 410.14 387.13 C 409.27 389.23, 408.78 390.70, 407.86 393.09 C 406.94 395.49, 406.46 396.87, 405.55 399.10 C 404.64 401.32, 404.17 402.44, 403.30 404.21 C 402.43 405.98, 401.98 406.77, 401.21 407.96 C 400.45 409.15, 400.10 409.55, 399.48 410.15 C 398.85 410.75, 398.60 410.89, 398.09 410.96 C 397.58 411.04, 397.36 411.01, 396.92 410.53 C 396.47 410.05, 396.21 409.72, 395.87 408.57 C 395.52 407.42, 395.35 406.67, 395.21 404.79 C 395.06 402.92, 395.08 401.77, 395.15 399.18 C 395.22 396.59, 395.32 394.97, 395.57 391.83 C 395.82 388.68, 396.03 386.78, 396.40 383.46 C 396.77 380.14, 397.04 378.29, 397.41 375.24 C 397.79 372.18, 398.03 370.58, 398.28 368.20 C 398.54 365.82, 398.65 364.80, 398.69 363.34 C 398.74 361.89, 398.67 361.53, 398.50 360.94 C 398.33 360.35, 398.09 360.44, 397.84 360.40 C 397.59 360.35, 397.24 360.58, 397.24 360.74 C 397.23 360.90, 397.69 361.19, 397.81 361.19" style="stroke: black; fill: black;"/><path d="M 416.74,360.69 C 416.56 360.89, 416.45 361.25, 416.49 361.59 C 416.53 361.92, 416.73 362.24, 416.95 362.38 C 417.18 362.52, 417.44 362.48, 417.62 362.29 C 417.80 362.09, 417.87 361.75, 417.83 361.42 C 417.79 361.09, 417.64 360.77, 417.42 360.63 C 417.20 360.48, 416.93 360.50, 416.74 360.69" style="stroke: black; fill: black;"/><path d="M 434.50,382.77 C 434.35 382.56, 434.11 382.38, 433.61 382.29 C 433.12 382.21, 432.74 382.07, 432.03 382.35 C 431.33 382.63, 430.85 382.86, 430.09 383.69 C 429.32 384.53, 428.92 385.05, 428.19 386.53 C 427.47 388.02, 427.05 389.04, 426.46 391.12 C 425.86 393.19, 425.55 394.55, 425.23 396.92 C 424.91 399.28, 424.84 400.70, 424.84 402.95 C 424.84 405.21, 424.89 406.37, 425.23 408.19 C 425.57 410.00, 425.87 410.85, 426.54 412.03 C 427.21 413.20, 427.68 413.59, 428.58 414.06 C 429.49 414.53, 430.06 414.59, 431.08 414.37 C 432.09 414.15, 432.66 413.87, 433.64 412.98 C 434.61 412.09, 435.11 411.46, 435.96 409.92 C 436.81 408.37, 437.22 407.36, 437.90 405.26 C 438.58 403.16, 438.92 401.78, 439.36 399.40 C 439.80 397.01, 439.95 395.60, 440.10 393.33 C 440.25 391.07, 440.21 389.90, 440.11 388.09 C 440.01 386.27, 439.89 385.51, 439.61 384.27 C 439.33 383.04, 439.09 382.61, 438.70 381.92 C 438.31 381.23, 438.03 381.10, 437.66 380.82 C 437.29 380.53, 437.05 380.49, 436.85 380.48 C 436.64 380.47, 436.59 380.61, 436.65 380.78 C 436.71 380.94, 436.92 381.01, 437.17 381.32 C 437.41 381.63, 437.59 381.70, 437.86 382.33 C 438.13 382.97, 438.33 383.33, 438.52 384.49 C 438.71 385.65, 438.79 386.38, 438.81 388.13 C 438.83 389.88, 438.83 391.03, 438.63 393.22 C 438.43 395.41, 438.26 396.79, 437.81 399.10 C 437.36 401.41, 437.01 402.76, 436.38 404.78 C 435.75 406.80, 435.37 407.76, 434.64 409.22 C 433.91 410.67, 433.48 411.22, 432.72 412.05 C 431.95 412.88, 431.55 413.13, 430.81 413.37 C 430.08 413.61, 429.68 413.62, 429.02 413.25 C 428.36 412.88, 428.01 412.58, 427.50 411.52 C 427.00 410.47, 426.75 409.69, 426.51 407.98 C 426.27 406.27, 426.25 405.14, 426.31 402.97 C 426.37 400.80, 426.47 399.42, 426.81 397.14 C 427.16 394.86, 427.48 393.55, 428.04 391.57 C 428.60 389.58, 428.99 388.59, 429.61 387.20 C 430.24 385.82, 430.58 385.37, 431.18 384.64 C 431.77 383.91, 432.09 383.80, 432.57 383.56 C 433.04 383.31, 433.20 383.47, 433.56 383.43 C 433.92 383.39, 434.18 383.47, 434.37 383.34 C 434.56 383.21, 434.65 382.98, 434.50 382.77" style="stroke: black; fill: black;"/><path d="M 448.04,381.38 C 447.83 381.80, 447.72 382.27, 447.52 383.50 C 447.32 384.74, 447.17 385.62, 447.03 387.57 C 446.89 389.51, 446.90 390.78, 446.84 393.22 C 446.77 395.65, 446.74 397.13, 446.71 399.75 C 446.68 402.37, 446.66 403.98, 446.67 406.32 C 446.67 408.65, 446.63 409.90, 446.73 411.41 C 446.82 412.91, 446.94 413.50, 447.13 413.85 C 447.33 414.20, 447.53 413.99, 447.71 413.17 C 447.89 412.35, 448.01 411.51, 448.05 409.74 C 448.10 407.98, 448.02 406.58, 447.94 404.35 C 447.86 402.12, 447.69 400.73, 447.67 398.58 C 447.65 396.43, 447.69 395.33, 447.82 393.58 C 447.96 391.82, 448.04 391.02, 448.35 389.80 C 448.65 388.58, 448.85 388.19, 449.36 387.48 C 449.87 386.78, 450.16 386.67, 450.90 386.28 C 451.63 385.88, 452.06 385.79, 453.03 385.51 C 454.00 385.24, 454.55 385.14, 455.74 384.90 C 456.92 384.65, 457.61 384.53, 458.94 384.30 C 460.27 384.08, 461.00 384.04, 462.38 383.79 C 463.77 383.54, 464.50 383.41, 465.86 383.06 C 467.23 382.71, 467.97 382.48, 469.21 382.04 C 470.45 381.59, 471.08 381.38, 472.07 380.82 C 473.07 380.27, 473.54 379.93, 474.18 379.25 C 474.81 378.58, 475.08 378.14, 475.27 377.44 C 475.45 376.74, 475.43 376.31, 475.11 375.75 C 474.78 375.18, 474.43 374.85, 473.65 374.63 C 472.87 374.40, 472.24 374.29, 471.20 374.62 C 470.16 374.96, 469.53 375.29, 468.46 376.29 C 467.38 377.29, 466.78 377.98, 465.81 379.62 C 464.83 381.26, 464.31 382.30, 463.57 384.48 C 462.83 386.66, 462.48 388.06, 462.10 390.52 C 461.71 392.98, 461.61 394.42, 461.63 396.78 C 461.66 399.14, 461.75 400.35, 462.21 402.32 C 462.67 404.30, 463.00 405.22, 463.93 406.65 C 464.85 408.08, 465.50 408.68, 466.84 409.48 C 468.17 410.28, 468.98 410.43, 470.61 410.65 C 472.24 410.87, 473.19 410.84, 474.98 410.59 C 476.77 410.34, 477.90 410.01, 479.55 409.42 C 481.19 408.83, 482.02 408.31, 483.19 407.63 C 484.37 406.96, 485.01 406.44, 485.40 406.04 C 485.80 405.64, 485.71 405.51, 485.17 405.61 C 484.63 405.72, 483.91 406.10, 482.69 406.58 C 481.46 407.05, 480.64 407.47, 479.06 407.99 C 477.47 408.50, 476.42 408.87, 474.76 409.14 C 473.10 409.42, 472.22 409.51, 470.75 409.38 C 469.28 409.25, 468.59 409.16, 467.42 408.49 C 466.25 407.82, 465.70 407.32, 464.91 406.03 C 464.12 404.74, 463.83 403.90, 463.46 402.05 C 463.09 400.20, 463.04 399.04, 463.07 396.78 C 463.10 394.53, 463.22 393.13, 463.62 390.77 C 464.01 388.41, 464.35 387.06, 465.05 384.98 C 465.75 382.91, 466.24 381.92, 467.13 380.40 C 468.01 378.88, 468.57 378.26, 469.48 377.37 C 470.39 376.48, 470.89 376.25, 471.67 375.94 C 472.46 375.62, 472.87 375.73, 473.40 375.79 C 473.93 375.84, 474.15 375.95, 474.33 376.22 C 474.52 376.48, 474.50 376.68, 474.30 377.11 C 474.11 377.55, 473.91 377.89, 473.34 378.40 C 472.77 378.92, 472.38 379.22, 471.46 379.68 C 470.55 380.15, 469.94 380.33, 468.75 380.74 C 467.56 381.14, 466.84 381.37, 465.52 381.70 C 464.20 382.03, 463.50 382.15, 462.14 382.38 C 460.78 382.61, 460.04 382.63, 458.70 382.84 C 457.36 383.06, 456.64 383.18, 455.42 383.46 C 454.20 383.74, 453.63 383.88, 452.61 384.26 C 451.60 384.63, 451.15 384.82, 450.34 385.35 C 449.53 385.87, 449.18 386.07, 448.56 386.89 C 447.94 387.72, 447.67 388.18, 447.25 389.49 C 446.84 390.80, 446.73 391.63, 446.50 393.44 C 446.27 395.26, 446.19 396.37, 446.11 398.56 C 446.02 400.75, 446.02 402.15, 446.07 404.40 C 446.12 406.65, 446.20 408.04, 446.37 409.80 C 446.53 411.56, 446.68 412.38, 446.90 413.19 C 447.12 414.00, 447.26 414.21, 447.46 413.85 C 447.67 413.50, 447.79 412.93, 447.93 411.43 C 448.07 409.92, 448.10 408.67, 448.18 406.34 C 448.25 404.01, 448.24 402.39, 448.30 399.78 C 448.37 397.16, 448.43 395.69, 448.49 393.26 C 448.56 390.83, 448.59 389.57, 448.63 387.64 C 448.68 385.71, 448.74 384.84, 448.72 383.60 C 448.71 382.35, 448.70 381.87, 448.56 381.42 C 448.42 380.98, 448.24 380.97, 448.04 381.38" style="stroke: black; fill: black;"/><path d="M 533.16,373.57 C 532.94 373.39, 532.62 373.29, 532.05 373.22 C 531.48 373.16, 531.13 373.12, 530.29 373.25 C 529.46 373.37, 528.91 373.40, 527.87 373.85 C 526.83 374.31, 526.25 374.58, 525.09 375.53 C 523.93 376.49, 523.34 377.13, 522.08 378.62 C 520.82 380.11, 520.07 380.99, 518.77 382.97 C 517.47 384.96, 516.69 386.19, 515.57 388.55 C 514.46 390.90, 513.93 392.30, 513.21 394.74 C 512.48 397.17, 512.15 398.47, 511.93 400.73 C 511.72 403.00, 511.79 404.19, 512.15 406.04 C 512.50 407.90, 512.87 408.69, 513.73 410.00 C 514.59 411.30, 515.21 411.82, 516.46 412.57 C 517.72 413.32, 518.49 413.55, 520.01 413.75 C 521.52 413.95, 522.37 413.90, 524.04 413.56 C 525.71 413.22, 526.78 412.80, 528.35 412.06 C 529.92 411.32, 530.73 410.74, 531.89 409.87 C 533.05 409.00, 533.77 408.23, 534.15 407.71 C 534.54 407.19, 534.42 407.06, 533.83 407.28 C 533.24 407.50, 532.43 408.14, 531.21 408.82 C 529.98 409.50, 529.21 410.01, 527.72 410.68 C 526.22 411.35, 525.25 411.79, 523.73 412.16 C 522.22 412.52, 521.48 412.61, 520.15 412.49 C 518.81 412.37, 518.14 412.19, 517.04 411.57 C 515.95 410.95, 515.41 410.53, 514.67 409.38 C 513.93 408.24, 513.63 407.53, 513.34 405.83 C 513.06 404.12, 513.02 403.01, 513.27 400.87 C 513.51 398.74, 513.85 397.49, 514.59 395.16 C 515.32 392.83, 515.86 391.47, 516.95 389.21 C 518.05 386.94, 518.82 385.75, 520.08 383.83 C 521.34 381.91, 522.06 381.04, 523.25 379.60 C 524.44 378.17, 524.99 377.54, 526.03 376.66 C 527.07 375.78, 527.56 375.59, 528.46 375.20 C 529.37 374.80, 529.83 374.85, 530.55 374.69 C 531.28 374.54, 531.58 374.54, 532.10 374.43 C 532.62 374.32, 532.93 374.32, 533.14 374.15 C 533.35 373.97, 533.38 373.76, 533.16 373.57" style="stroke: black; fill: black;"/><path d="M 551.96,375.42 C 551.66 375.28, 551.25 375.10, 550.48 375.25 C 549.71 375.39, 549.12 375.41, 548.11 376.14 C 547.10 376.87, 546.45 377.43, 545.41 378.91 C 544.37 380.38, 543.81 381.38, 542.91 383.51 C 542.00 385.63, 541.53 387.05, 540.88 389.53 C 540.22 392.01, 539.95 393.47, 539.64 395.91 C 539.33 398.34, 539.26 399.64, 539.34 401.71 C 539.42 403.77, 539.57 404.74, 540.03 406.22 C 540.49 407.70, 540.86 408.30, 541.63 409.12 C 542.41 409.94, 542.88 410.13, 543.90 410.33 C 544.92 410.53, 545.56 410.53, 546.73 410.12 C 547.90 409.72, 548.54 409.34, 549.73 408.29 C 550.92 407.23, 551.56 406.51, 552.67 404.85 C 553.79 403.19, 554.40 402.16, 555.31 400.00 C 556.23 397.84, 556.61 396.49, 557.25 394.04 C 557.89 391.60, 558.11 390.11, 558.51 387.76 C 558.92 385.41, 559.13 384.24, 559.27 382.30 C 559.41 380.35, 559.39 379.37, 559.22 378.04 C 559.06 376.70, 558.84 376.25, 558.45 375.61 C 558.07 374.97, 557.72 374.94, 557.29 374.84 C 556.86 374.74, 556.49 374.98, 556.31 375.11 C 556.13 375.24, 556.23 375.46, 556.40 375.51 C 556.56 375.57, 556.87 375.31, 557.14 375.40 C 557.41 375.49, 557.54 375.42, 557.73 375.96 C 557.93 376.51, 558.06 376.88, 558.10 378.13 C 558.14 379.37, 558.15 380.30, 557.94 382.18 C 557.74 384.05, 557.52 385.21, 557.08 387.50 C 556.65 389.80, 556.40 391.27, 555.77 393.65 C 555.13 396.03, 554.78 397.33, 553.90 399.40 C 553.03 401.48, 552.44 402.44, 551.41 404.01 C 550.38 405.57, 549.78 406.24, 548.76 407.23 C 547.73 408.22, 547.21 408.55, 546.27 408.97 C 545.34 409.39, 544.85 409.44, 544.06 409.34 C 543.28 409.24, 542.93 409.16, 542.35 408.48 C 541.76 407.79, 541.47 407.27, 541.14 405.91 C 540.80 404.55, 540.67 403.64, 540.66 401.68 C 540.65 399.72, 540.75 398.45, 541.10 396.11 C 541.44 393.76, 541.75 392.34, 542.41 389.94 C 543.07 387.55, 543.54 386.17, 544.40 384.14 C 545.26 382.11, 545.79 381.18, 546.71 379.80 C 547.63 378.43, 548.18 377.97, 549.00 377.27 C 549.81 376.58, 550.20 376.59, 550.80 376.33 C 551.40 376.07, 551.77 376.15, 552.00 375.97 C 552.23 375.79, 552.27 375.57, 551.96 375.42" style="stroke: black; fill: black;"/><path d="M 573.33,350.01 C 573.06 350.45, 572.87 350.99, 572.51 352.32 C 572.16 353.66, 571.92 354.48, 571.56 356.69 C 571.19 358.91, 571.07 360.37, 570.70 363.39 C 570.33 366.41, 570.12 368.24, 569.71 371.79 C 569.30 375.34, 569.13 377.43, 568.66 381.13 C 568.20 384.83, 567.83 386.84, 567.38 390.28 C 566.93 393.72, 566.72 395.44, 566.42 398.32 C 566.11 401.19, 565.96 402.55, 565.86 404.65 C 565.76 406.75, 565.80 407.61, 565.90 408.83 C 566.00 410.05, 566.19 410.27, 566.36 410.74 C 566.53 411.21, 566.65 411.10, 566.76 411.18 C 566.86 411.25, 566.88 411.22, 566.89 411.11 C 566.91 411.00, 566.86 411.11, 566.85 410.65 C 566.85 410.19, 566.83 409.99, 566.87 408.81 C 566.91 407.62, 566.89 406.80, 567.05 404.72 C 567.22 402.65, 567.40 401.31, 567.69 398.45 C 567.98 395.59, 568.09 393.86, 568.51 390.42 C 568.93 386.99, 569.30 384.97, 569.79 381.28 C 570.27 377.58, 570.46 375.48, 570.94 371.94 C 571.42 368.41, 571.77 366.59, 572.19 363.59 C 572.62 360.58, 572.80 359.13, 573.09 356.92 C 573.38 354.71, 573.50 353.90, 573.66 352.54 C 573.81 351.18, 573.91 350.63, 573.85 350.12 C 573.78 349.61, 573.60 349.57, 573.33 350.01" style="stroke: black; fill: black;"/><path d="M 582.77,351.94 C 582.58 352.00, 582.45 351.88, 582.14 352.44 C 581.84 353.00, 581.59 353.31, 581.25 354.73 C 580.90 356.14, 580.73 357.13, 580.41 359.54 C 580.08 361.95, 579.95 363.59, 579.61 366.78 C 579.26 369.97, 579.04 371.89, 578.69 375.48 C 578.34 379.07, 578.15 381.14, 577.86 384.74 C 577.57 388.33, 577.39 390.25, 577.23 393.48 C 577.08 396.70, 577.06 398.28, 577.09 400.86 C 577.12 403.44, 577.17 404.62, 577.39 406.39 C 577.61 408.16, 577.76 408.85, 578.20 409.72 C 578.63 410.58, 578.89 410.68, 579.55 410.70 C 580.22 410.73, 580.77 410.45, 581.55 409.82 C 582.32 409.19, 582.87 408.50, 583.42 407.54 C 583.97 406.58, 584.25 405.60, 584.30 405.02 C 584.35 404.45, 584.14 404.34, 583.68 404.66 C 583.21 404.98, 582.60 405.76, 581.98 406.61 C 581.36 407.46, 581.08 408.21, 580.59 408.91 C 580.09 409.62, 579.84 410.02, 579.51 410.13 C 579.17 410.23, 579.11 410.21, 578.91 409.44 C 578.72 408.67, 578.63 408.00, 578.52 406.28 C 578.41 404.56, 578.38 403.40, 578.36 400.85 C 578.35 398.30, 578.30 396.73, 578.43 393.53 C 578.56 390.33, 578.71 388.41, 579.01 384.83 C 579.30 381.25, 579.50 379.19, 579.91 375.61 C 580.32 372.04, 580.62 370.12, 581.06 366.96 C 581.50 363.79, 581.77 362.16, 582.11 359.77 C 582.46 357.39, 582.58 356.42, 582.77 355.01 C 582.96 353.61, 582.99 353.31, 583.05 352.73 C 583.11 352.16, 583.14 352.28, 583.08 352.12 C 583.02 351.96, 582.95 351.88, 582.77 351.94" style="stroke: black; fill: black;"/><path d="M 593.58,391.95 C 593.86 392.02, 594.16 392.03, 594.80 391.82 C 595.45 391.61, 595.89 391.47, 596.81 390.90 C 597.73 390.33, 598.34 389.93, 599.39 388.96 C 600.45 387.99, 601.07 387.30, 602.08 386.04 C 603.09 384.79, 603.55 384.05, 604.43 382.71 C 605.30 381.37, 605.73 380.64, 606.45 379.34 C 607.18 378.03, 607.61 377.42, 608.05 376.19 C 608.48 374.96, 608.62 374.29, 608.64 373.19 C 608.66 372.09, 608.56 371.51, 608.16 370.71 C 607.76 369.91, 607.45 369.51, 606.66 369.19 C 605.87 368.86, 605.31 368.75, 604.21 369.09 C 603.11 369.43, 602.41 369.76, 601.14 370.90 C 599.87 372.04, 599.12 372.88, 597.85 374.79 C 596.58 376.71, 595.86 377.98, 594.79 380.48 C 593.73 382.99, 593.19 384.55, 592.52 387.32 C 591.84 390.09, 591.57 391.69, 591.40 394.32 C 591.23 396.96, 591.32 398.31, 591.66 400.49 C 592.01 402.67, 592.30 403.66, 593.14 405.21 C 593.98 406.75, 594.62 407.35, 595.86 408.23 C 597.10 409.11, 597.83 409.38, 599.33 409.60 C 600.84 409.83, 601.72 409.75, 603.38 409.34 C 605.04 408.93, 606.11 408.40, 607.64 407.55 C 609.16 406.70, 609.92 406.03, 611.00 405.09 C 612.09 404.15, 612.72 403.37, 613.06 402.84 C 613.41 402.32, 613.28 402.19, 612.72 402.44 C 612.16 402.69, 611.42 403.34, 610.25 404.09 C 609.09 404.84, 608.35 405.42, 606.90 406.20 C 605.45 406.98, 604.49 407.53, 603.00 407.97 C 601.52 408.42, 600.78 408.56, 599.48 408.43 C 598.18 408.30, 597.56 408.08, 596.49 407.33 C 595.42 406.58, 594.85 406.08, 594.14 404.68 C 593.43 403.27, 593.18 402.36, 592.92 400.31 C 592.65 398.26, 592.59 396.95, 592.81 394.43 C 593.02 391.90, 593.30 390.36, 593.99 387.69 C 594.68 385.03, 595.21 383.51, 596.25 381.11 C 597.29 378.70, 598.01 377.50, 599.19 375.67 C 600.38 373.85, 601.08 373.08, 602.17 371.99 C 603.26 370.90, 603.81 370.62, 604.64 370.24 C 605.47 369.86, 605.80 369.91, 606.31 370.09 C 606.82 370.27, 606.97 370.52, 607.19 371.13 C 607.42 371.74, 607.50 372.21, 607.43 373.14 C 607.36 374.06, 607.28 374.64, 606.84 375.74 C 606.41 376.85, 605.99 377.42, 605.26 378.65 C 604.54 379.88, 604.09 380.61, 603.21 381.89 C 602.33 383.17, 601.86 383.88, 600.87 385.05 C 599.88 386.22, 599.25 386.83, 598.27 387.75 C 597.28 388.66, 596.73 389.02, 595.93 389.62 C 595.14 390.22, 594.79 390.40, 594.28 390.77 C 593.77 391.14, 593.53 391.22, 593.39 391.46 C 593.25 391.70, 593.30 391.88, 593.58 391.95" style="stroke: black; fill: black;"/><path d="M 614.35,372.61 C 614.49 372.80, 614.62 372.88, 615.14 373.07 C 615.65 373.26, 616.01 373.43, 616.93 373.58 C 617.84 373.73, 618.53 373.76, 619.70 373.83 C 620.87 373.90, 621.56 373.86, 622.76 373.91 C 623.97 373.96, 624.62 373.96, 625.73 374.06 C 626.85 374.16, 627.44 374.24, 628.33 374.43 C 629.22 374.61, 629.62 374.72, 630.19 374.98 C 630.76 375.23, 630.97 375.36, 631.18 375.71 C 631.40 376.05, 631.47 376.20, 631.25 376.71 C 631.03 377.22, 630.80 377.43, 630.08 378.26 C 629.37 379.08, 628.84 379.52, 627.66 380.84 C 626.49 382.16, 625.70 382.99, 624.21 384.86 C 622.71 386.74, 621.74 387.94, 620.18 390.23 C 618.62 392.52, 617.73 393.90, 616.40 396.32 C 615.07 398.74, 614.41 400.10, 613.54 402.33 C 612.67 404.57, 612.29 405.72, 612.04 407.50 C 611.79 409.27, 611.82 410.02, 612.27 411.21 C 612.72 412.40, 613.20 412.81, 614.29 413.44 C 615.39 414.08, 616.19 414.27, 617.75 414.40 C 619.31 414.53, 620.29 414.44, 622.10 414.10 C 623.90 413.76, 625.03 413.34, 626.78 412.72 C 628.54 412.09, 629.55 411.61, 630.88 410.98 C 632.21 410.35, 632.65 410.06, 633.44 409.58 C 634.23 409.10, 634.50 408.94, 634.82 408.59 C 635.15 408.24, 635.04 408.06, 635.05 407.81 C 635.07 407.57, 634.97 407.49, 634.90 407.34 C 634.83 407.20, 634.83 407.09, 634.69 407.09 C 634.56 407.10, 634.29 407.25, 634.22 407.37 C 634.16 407.49, 634.28 407.60, 634.35 407.69 C 634.42 407.77, 634.58 407.73, 634.58 407.80 C 634.59 407.87, 634.70 407.86, 634.37 408.03 C 634.05 408.19, 633.76 408.29, 632.96 408.63 C 632.15 408.96, 631.68 409.19, 630.34 409.71 C 629.00 410.22, 627.97 410.64, 626.26 411.22 C 624.55 411.79, 623.48 412.20, 621.79 412.57 C 620.10 412.93, 619.22 413.04, 617.82 413.03 C 616.41 413.03, 615.71 412.96, 614.77 412.53 C 613.84 412.10, 613.45 411.87, 613.13 410.90 C 612.82 409.94, 612.85 409.31, 613.19 407.70 C 613.53 406.08, 613.91 404.98, 614.82 402.85 C 615.72 400.72, 616.38 399.39, 617.71 397.05 C 619.05 394.71, 619.94 393.37, 621.50 391.14 C 623.05 388.91, 624.02 387.74, 625.49 385.88 C 626.96 384.03, 627.72 383.23, 628.86 381.87 C 629.99 380.52, 630.50 380.08, 631.18 379.11 C 631.86 378.14, 632.10 377.78, 632.26 377.01 C 632.43 376.24, 632.31 375.87, 632.00 375.26 C 631.70 374.66, 631.40 374.41, 630.73 373.99 C 630.06 373.57, 629.60 373.42, 628.64 373.15 C 627.67 372.88, 627.05 372.80, 625.90 372.65 C 624.74 372.49, 624.08 372.48, 622.86 372.37 C 621.64 372.26, 620.97 372.20, 619.82 372.11 C 618.66 372.02, 618.00 371.96, 617.10 371.92 C 616.20 371.89, 615.84 371.89, 615.30 371.93 C 614.77 371.97, 614.61 371.99, 614.42 372.13 C 614.23 372.27, 614.21 372.43, 614.35 372.61" style="stroke: black; fill: black;"/><path d="M 619.02,380.19 C 618.97 380.07, 618.70 380.26, 618.68 380.41 C 618.65 380.56, 618.62 380.82, 618.90 380.94 C 619.18 381.05, 619.36 381.08, 620.05 380.99 C 620.75 380.90, 621.30 380.79, 622.37 380.49 C 623.44 380.18, 624.10 379.91, 625.40 379.46 C 626.71 379.02, 627.46 378.76, 628.91 378.27 C 630.35 377.78, 631.15 377.51, 632.64 377.00 C 634.14 376.49, 634.93 376.20, 636.39 375.71 C 637.84 375.23, 638.62 374.98, 639.91 374.57 C 641.21 374.16, 641.85 373.96, 642.87 373.66 C 643.89 373.37, 644.31 373.26, 645.01 373.09 C 645.72 372.91, 646.05 372.78, 646.40 372.80 C 646.75 372.83, 646.73 372.75, 646.77 373.19 C 646.81 373.63, 646.70 373.94, 646.59 374.99 C 646.48 376.03, 646.41 376.72, 646.20 378.43 C 645.99 380.14, 645.82 381.24, 645.53 383.53 C 645.24 385.83, 645.04 387.28, 644.75 389.91 C 644.46 392.54, 644.34 394.07, 644.09 396.68 C 643.84 399.29, 643.67 400.69, 643.51 402.95 C 643.34 405.21, 643.29 406.33, 643.26 407.97 C 643.23 409.60, 643.27 410.19, 643.37 411.12 C 643.46 412.05, 643.56 412.24, 643.75 412.62 C 643.93 413.00, 644.07 413.01, 644.31 413.04 C 644.55 413.06, 644.75 412.96, 644.97 412.75 C 645.18 412.55, 645.33 412.30, 645.40 411.99 C 645.46 411.68, 645.43 411.48, 645.29 411.20 C 645.16 410.93, 644.95 410.71, 644.70 410.62 C 644.45 410.54, 644.23 410.61, 644.04 410.78 C 643.85 410.95, 643.80 411.22, 643.75 411.47 C 643.70 411.71, 643.72 411.80, 643.80 412.01 C 643.87 412.22, 644.00 412.36, 644.11 412.51 C 644.22 412.66, 644.32 412.76, 644.36 412.75 C 644.41 412.74, 644.34 412.79, 644.33 412.46 C 644.32 412.12, 644.28 411.97, 644.31 411.08 C 644.34 410.19, 644.36 409.62, 644.48 408.02 C 644.59 406.42, 644.67 405.30, 644.89 403.07 C 645.11 400.83, 645.29 399.43, 645.58 396.83 C 645.87 394.24, 646.02 392.71, 646.33 390.09 C 646.65 387.47, 646.86 386.04, 647.16 383.74 C 647.46 381.45, 647.66 380.35, 647.83 378.61 C 648.00 376.87, 648.04 376.17, 648.00 375.03 C 647.96 373.90, 647.91 373.53, 647.63 372.92 C 647.34 372.32, 647.14 372.21, 646.58 372.02 C 646.02 371.83, 645.63 371.89, 644.82 371.98 C 644.02 372.07, 643.61 372.20, 642.55 372.46 C 641.48 372.72, 640.84 372.88, 639.52 373.27 C 638.20 373.65, 637.41 373.90, 635.94 374.37 C 634.48 374.84, 633.68 375.14, 632.18 375.63 C 630.68 376.12, 629.89 376.37, 628.44 376.83 C 626.98 377.28, 626.22 377.51, 624.91 377.90 C 623.60 378.29, 622.92 378.48, 621.88 378.78 C 620.83 379.08, 620.32 379.18, 619.67 379.41 C 619.02 379.65, 618.88 379.71, 618.64 379.96 C 618.41 380.21, 618.44 380.45, 618.50 380.66 C 618.55 380.86, 618.81 381.08, 618.91 380.98 C 619.02 380.89, 619.07 380.30, 619.02 380.19" style="stroke: black; fill: black;"/><path d="M 650.11,356.18 C 650.16 356.00, 650.09 356.00, 650.04 356.00 C 649.98 356.00, 649.96 356.13, 649.83 356.18 C 649.70 356.24, 649.51 356.15, 649.39 356.28 C 649.28 356.40, 649.19 356.69, 649.26 356.81 C 649.33 356.94, 649.60 357.03, 649.76 356.90 C 649.93 356.77, 650.05 356.36, 650.11 356.18" style="stroke: black; fill: black;"/><path d="M 669.39,372.69 C 669.20 372.44, 668.89 372.22, 668.25 371.98 C 667.61 371.74, 667.17 371.52, 666.18 371.48 C 665.19 371.44, 664.54 371.36, 663.32 371.77 C 662.10 372.19, 661.40 372.50, 660.10 373.55 C 658.80 374.61, 658.09 375.30, 656.83 377.05 C 655.56 378.79, 654.81 379.93, 653.77 382.29 C 652.73 384.65, 652.22 386.23, 651.64 388.87 C 651.05 391.51, 650.89 393.03, 650.86 395.50 C 650.84 397.97, 651.00 399.24, 651.51 401.21 C 652.03 403.18, 652.43 404.05, 653.44 405.37 C 654.45 406.69, 655.17 407.20, 656.56 407.80 C 657.94 408.39, 658.79 408.46, 660.36 408.35 C 661.93 408.23, 662.79 408.00, 664.41 407.22 C 666.03 406.44, 666.95 405.89, 668.46 404.47 C 669.96 403.04, 670.70 402.12, 671.94 400.10 C 673.18 398.08, 673.73 396.79, 674.67 394.37 C 675.60 391.94, 676.04 390.47, 676.63 387.97 C 677.22 385.47, 677.43 384.10, 677.59 381.87 C 677.75 379.64, 677.71 378.56, 677.43 376.82 C 677.15 375.08, 676.87 374.36, 676.20 373.19 C 675.53 372.02, 675.04 371.61, 674.08 370.96 C 673.12 370.31, 672.45 370.12, 671.40 369.94 C 670.35 369.77, 669.67 369.84, 668.82 370.07 C 667.98 370.31, 667.47 370.80, 667.18 371.11 C 666.90 371.42, 667.02 371.58, 667.40 371.60 C 667.77 371.62, 668.28 371.29, 669.05 371.21 C 669.81 371.12, 670.31 371.05, 671.20 371.19 C 672.09 371.32, 672.66 371.37, 673.48 371.88 C 674.29 372.38, 674.72 372.69, 675.28 373.71 C 675.83 374.73, 676.05 375.38, 676.25 376.99 C 676.44 378.60, 676.46 379.63, 676.25 381.76 C 676.04 383.89, 675.80 385.21, 675.20 387.62 C 674.61 390.04, 674.17 391.48, 673.27 393.83 C 672.37 396.17, 671.86 397.42, 670.70 399.35 C 669.54 401.27, 668.85 402.11, 667.47 403.44 C 666.10 404.77, 665.25 405.26, 663.81 406.00 C 662.36 406.73, 661.61 406.96, 660.24 407.12 C 658.88 407.27, 658.18 407.25, 656.99 406.77 C 655.81 406.28, 655.18 405.87, 654.33 404.70 C 653.47 403.53, 653.13 402.75, 652.71 400.92 C 652.30 399.08, 652.18 397.87, 652.26 395.53 C 652.35 393.19, 652.54 391.73, 653.13 389.21 C 653.72 386.68, 654.22 385.18, 655.21 382.92 C 656.20 380.67, 656.90 379.58, 658.06 377.93 C 659.22 376.28, 659.87 375.63, 661.02 374.67 C 662.16 373.72, 662.76 373.49, 663.78 373.15 C 664.81 372.80, 665.30 372.94, 666.14 372.95 C 666.98 372.96, 667.35 373.12, 667.97 373.18 C 668.58 373.24, 668.94 373.33, 669.22 373.24 C 669.51 373.14, 669.59 372.94, 669.39 372.69" style="stroke: black; fill: black;"/><path d="M 687.22,371.71 C 686.97 372.00, 686.76 372.32, 686.46 373.27 C 686.17 374.22, 686.03 374.86, 685.74 376.48 C 685.44 378.11, 685.26 379.19, 685.00 381.38 C 684.74 383.58, 684.70 384.94, 684.45 387.45 C 684.19 389.96, 684.01 391.41, 683.73 393.93 C 683.44 396.45, 683.29 397.82, 683.04 400.05 C 682.79 402.29, 682.64 403.48, 682.48 405.09 C 682.33 406.70, 682.21 407.33, 682.27 408.11 C 682.32 408.88, 682.45 409.06, 682.74 408.96 C 683.03 408.87, 683.28 408.66, 683.72 407.61 C 684.16 406.56, 684.38 405.69, 684.95 403.70 C 685.53 401.71, 685.81 400.31, 686.60 397.66 C 687.38 395.01, 687.85 393.27, 688.88 390.45 C 689.90 387.62, 690.58 385.96, 691.72 383.54 C 692.87 381.12, 693.55 379.97, 694.61 378.34 C 695.67 376.70, 696.20 376.10, 697.02 375.36 C 697.83 374.62, 698.16 374.48, 698.68 374.65 C 699.20 374.81, 699.32 375.17, 699.62 376.19 C 699.92 377.22, 700.07 377.93, 700.18 379.77 C 700.29 381.62, 700.25 382.88, 700.16 385.42 C 700.08 387.95, 699.89 389.66, 699.74 392.46 C 699.59 395.26, 699.48 396.89, 699.41 399.42 C 699.34 401.96, 699.27 403.17, 699.39 405.12 C 699.50 407.07, 699.60 407.86, 699.98 409.16 C 700.36 410.46, 700.60 410.89, 701.28 411.61 C 701.96 412.32, 702.43 412.54, 703.37 412.73 C 704.31 412.93, 704.85 412.90, 705.98 412.58 C 707.11 412.25, 707.75 411.96, 709.03 411.12 C 710.31 410.29, 711.03 409.79, 712.37 408.41 C 713.71 407.03, 714.44 406.13, 715.73 404.22 C 717.01 402.31, 717.65 401.17, 718.79 398.84 C 719.93 396.52, 720.48 395.17, 721.41 392.60 C 722.34 390.03, 722.78 388.53, 723.43 385.99 C 724.08 383.46, 724.35 382.11, 724.66 379.92 C 724.96 377.73, 725.00 376.68, 724.95 375.04 C 724.90 373.40, 724.79 372.68, 724.39 371.71 C 723.99 370.75, 723.67 370.44, 722.95 370.22 C 722.23 370.00, 721.72 370.00, 720.78 370.61 C 719.85 371.21, 719.28 371.75, 718.30 373.24 C 717.31 374.73, 716.78 375.78, 715.87 378.04 C 714.96 380.31, 714.40 381.78, 713.73 384.54 C 713.06 387.30, 712.74 389.03, 712.53 391.85 C 712.31 394.68, 712.32 396.22, 712.65 398.67 C 712.97 401.13, 713.32 402.31, 714.17 404.15 C 715.01 405.98, 715.56 406.68, 716.87 407.86 C 718.18 409.04, 719.04 409.45, 720.71 410.03 C 722.38 410.61, 723.51 410.70, 725.22 410.75 C 726.93 410.80, 727.90 410.55, 729.25 410.27 C 730.60 409.98, 731.44 409.62, 731.96 409.33 C 732.48 409.04, 732.43 408.88, 731.85 408.83 C 731.28 408.78, 730.40 408.99, 729.08 409.09 C 727.76 409.18, 726.86 409.38, 725.26 409.32 C 723.67 409.27, 722.63 409.27, 721.10 408.81 C 719.57 408.35, 718.79 408.05, 717.61 407.02 C 716.44 405.99, 715.97 405.37, 715.24 403.67 C 714.51 401.97, 714.22 400.85, 713.98 398.52 C 713.74 396.18, 713.76 394.70, 714.02 391.98 C 714.29 389.27, 714.63 387.60, 715.30 384.93 C 715.98 382.27, 716.55 380.84, 717.41 378.66 C 718.27 376.48, 718.80 375.48, 719.61 374.05 C 720.42 372.61, 720.84 372.10, 721.47 371.47 C 722.10 370.83, 722.35 370.76, 722.76 370.87 C 723.17 370.97, 723.32 371.16, 723.52 372.00 C 723.72 372.84, 723.80 373.50, 723.76 375.05 C 723.72 376.59, 723.68 377.61, 723.33 379.72 C 722.99 381.84, 722.70 383.15, 722.03 385.63 C 721.37 388.10, 720.94 389.59, 720.02 392.10 C 719.10 394.61, 718.56 395.93, 717.45 398.19 C 716.34 400.44, 715.70 401.54, 714.47 403.38 C 713.24 405.21, 712.53 406.06, 711.28 407.36 C 710.03 408.67, 709.36 409.12, 708.22 409.91 C 707.07 410.71, 706.51 410.98, 705.58 411.35 C 704.64 411.71, 704.26 411.80, 703.53 411.73 C 702.80 411.66, 702.45 411.56, 701.94 411.00 C 701.43 410.43, 701.24 410.09, 700.97 408.90 C 700.71 407.72, 700.65 406.96, 700.63 405.08 C 700.61 403.19, 700.72 401.99, 700.86 399.49 C 701.01 396.98, 701.16 395.36, 701.36 392.56 C 701.56 389.76, 701.78 388.05, 701.85 385.47 C 701.92 382.88, 701.96 381.57, 701.71 379.63 C 701.47 377.69, 701.21 376.90, 700.64 375.78 C 700.07 374.65, 699.70 374.24, 698.86 374.01 C 698.02 373.78, 697.50 373.91, 696.45 374.64 C 695.39 375.36, 694.79 375.98, 693.59 377.64 C 692.38 379.29, 691.63 380.44, 690.41 382.90 C 689.19 385.36, 688.57 387.07, 687.47 389.92 C 686.37 392.77, 685.77 394.48, 684.93 397.15 C 684.09 399.82, 683.75 401.23, 683.27 403.26 C 682.79 405.29, 682.68 406.18, 682.54 407.30 C 682.40 408.41, 682.48 408.67, 682.57 408.85 C 682.67 409.03, 682.80 408.92, 683.03 408.20 C 683.26 407.48, 683.46 406.86, 683.74 405.27 C 684.03 403.67, 684.15 402.46, 684.45 400.22 C 684.74 397.99, 684.90 396.63, 685.21 394.11 C 685.53 391.59, 685.74 390.13, 686.03 387.62 C 686.32 385.12, 686.40 383.76, 686.66 381.58 C 686.91 379.40, 687.11 378.33, 687.30 376.72 C 687.49 375.10, 687.52 374.47, 687.60 373.50 C 687.68 372.52, 687.79 372.21, 687.72 371.85 C 687.64 371.49, 687.47 371.43, 687.22 371.71" style="stroke: black; fill: black;"/><path d="M 789.23,375.50 C 789.13 375.20, 788.91 374.88, 788.39 374.50 C 787.88 374.12, 787.50 373.83, 786.67 373.59 C 785.83 373.35, 785.31 373.18, 784.22 373.30 C 783.13 373.43, 782.51 373.51, 781.21 374.20 C 779.91 374.89, 779.18 375.33, 777.73 376.74 C 776.27 378.16, 775.42 379.09, 773.94 381.27 C 772.45 383.45, 771.63 384.86, 770.29 387.66 C 768.96 390.46, 768.27 392.24, 767.27 395.28 C 766.27 398.32, 765.83 400.05, 765.30 402.86 C 764.77 405.67, 764.64 407.14, 764.60 409.33 C 764.56 411.52, 764.66 412.43, 765.09 413.80 C 765.52 415.16, 765.94 415.66, 766.76 416.16 C 767.58 416.67, 768.15 416.70, 769.19 416.30 C 770.24 415.90, 770.83 415.44, 771.99 414.16 C 773.16 412.87, 773.80 412.04, 775.02 409.88 C 776.23 407.72, 776.82 406.29, 778.07 403.34 C 779.32 400.40, 779.98 398.60, 781.26 395.14 C 782.55 391.68, 783.22 389.71, 784.51 386.04 C 785.80 382.38, 786.50 380.34, 787.69 376.80 C 788.89 373.26, 789.49 371.38, 790.49 368.33 C 791.48 365.28, 791.92 363.85, 792.65 361.55 C 793.37 359.26, 793.70 358.31, 794.12 356.85 C 794.55 355.39, 794.67 354.87, 794.77 354.26 C 794.86 353.65, 794.79 353.47, 794.60 353.78 C 794.42 354.10, 794.21 354.50, 793.84 355.85 C 793.47 357.21, 793.21 358.19, 792.76 360.58 C 792.31 362.97, 792.08 364.58, 791.59 367.82 C 791.09 371.06, 790.77 373.11, 790.26 376.78 C 789.75 380.46, 789.44 382.53, 789.06 386.22 C 788.67 389.90, 788.50 391.86, 788.35 395.21 C 788.20 398.57, 788.18 400.26, 788.29 402.97 C 788.40 405.69, 788.53 406.88, 788.90 408.78 C 789.28 410.68, 789.54 411.42, 790.16 412.45 C 790.78 413.48, 791.17 413.81, 792.01 413.93 C 792.85 414.06, 793.44 413.82, 794.37 413.06 C 795.31 412.30, 795.76 411.70, 796.67 410.15 C 797.58 408.59, 798.00 407.54, 798.93 405.30 C 799.86 403.06, 800.39 401.60, 801.32 398.93 C 802.25 396.25, 802.76 394.64, 803.59 391.93 C 804.42 389.22, 804.84 387.71, 805.49 385.37 C 806.15 383.03, 806.51 381.87, 806.87 380.25 C 807.23 378.63, 807.27 377.93, 807.27 377.27 C 807.27 376.62, 807.09 376.51, 806.87 376.98 C 806.66 377.44, 806.44 378.02, 806.19 379.59 C 805.93 381.15, 805.76 382.36, 805.61 384.80 C 805.46 387.24, 805.45 388.91, 805.45 391.78 C 805.45 394.66, 805.47 396.38, 805.60 399.18 C 805.73 401.98, 805.84 403.48, 806.10 405.78 C 806.36 408.09, 806.49 409.12, 806.89 410.68 C 807.29 412.25, 807.58 412.89, 808.09 413.61 C 808.61 414.34, 808.95 414.61, 809.47 414.30 C 809.99 413.99, 810.34 413.28, 810.69 412.08 C 811.04 410.88, 811.21 409.78, 811.23 408.31 C 811.25 406.83, 811.03 405.43, 810.78 404.70 C 810.54 403.97, 810.31 403.98, 810.03 404.68 C 809.74 405.38, 809.54 406.76, 809.38 408.19 C 809.22 409.62, 809.28 410.68, 809.23 411.83 C 809.18 412.98, 809.23 413.67, 809.13 413.96 C 809.04 414.24, 808.99 413.97, 808.77 413.26 C 808.55 412.56, 808.30 411.96, 808.03 410.44 C 807.76 408.92, 807.62 407.92, 807.44 405.66 C 807.26 403.39, 807.20 401.89, 807.13 399.12 C 807.06 396.35, 807.04 394.65, 807.10 391.80 C 807.17 388.96, 807.33 387.32, 807.45 384.90 C 807.56 382.48, 807.68 381.28, 807.67 379.70 C 807.65 378.12, 807.58 377.50, 807.38 376.99 C 807.18 376.47, 807.03 376.52, 806.69 377.11 C 806.35 377.70, 806.18 378.35, 805.68 379.92 C 805.17 381.49, 804.85 382.66, 804.14 384.97 C 803.43 387.28, 803.02 388.79, 802.15 391.48 C 801.28 394.16, 800.76 395.75, 799.81 398.39 C 798.86 401.03, 798.31 402.48, 797.42 404.68 C 796.53 406.89, 796.11 407.91, 795.35 409.43 C 794.58 410.94, 794.25 411.49, 793.60 412.26 C 792.95 413.02, 792.62 413.30, 792.09 413.25 C 791.56 413.21, 791.35 412.98, 790.94 412.04 C 790.52 411.11, 790.30 410.41, 790.02 408.58 C 789.75 406.76, 789.67 405.59, 789.57 402.92 C 789.47 400.26, 789.39 398.58, 789.51 395.26 C 789.63 391.94, 789.78 389.99, 790.17 386.33 C 790.55 382.67, 790.88 380.61, 791.44 376.96 C 792.01 373.30, 792.41 371.28, 793.01 368.06 C 793.61 364.85, 794.02 363.29, 794.46 360.89 C 794.89 358.50, 795.08 357.51, 795.19 356.09 C 795.30 354.66, 795.21 354.19, 795.01 353.78 C 794.81 353.37, 794.58 353.48, 794.20 354.03 C 793.82 354.57, 793.65 355.08, 793.11 356.51 C 792.56 357.94, 792.23 358.88, 791.48 361.18 C 790.73 363.47, 790.33 364.92, 789.36 367.97 C 788.40 371.03, 787.84 372.92, 786.67 376.46 C 785.50 380.00, 784.80 382.03, 783.50 385.69 C 782.20 389.34, 781.51 391.30, 780.17 394.72 C 778.82 398.14, 778.09 399.90, 776.78 402.78 C 775.48 405.66, 774.82 407.02, 773.65 409.11 C 772.47 411.21, 771.89 411.99, 770.92 413.25 C 769.94 414.51, 769.52 414.96, 768.77 415.42 C 768.02 415.88, 767.71 415.92, 767.16 415.54 C 766.62 415.17, 766.31 414.77, 766.05 413.54 C 765.78 412.31, 765.72 411.46, 765.84 409.38 C 765.97 407.30, 766.14 405.87, 766.68 403.13 C 767.22 400.39, 767.57 398.67, 768.55 395.70 C 769.53 392.73, 770.25 391.00, 771.59 388.29 C 772.93 385.58, 773.79 384.25, 775.23 382.15 C 776.67 380.06, 777.46 379.15, 778.78 377.81 C 780.11 376.46, 780.76 376.05, 781.88 375.43 C 782.99 374.80, 783.49 374.77, 784.37 374.68 C 785.25 374.59, 785.60 374.80, 786.28 374.98 C 786.96 375.17, 787.25 375.40, 787.78 375.60 C 788.30 375.80, 788.61 376.00, 788.90 375.98 C 789.19 375.95, 789.33 375.79, 789.23 375.50" style="stroke: black; fill: black;"/><path d="M 812.16,353.08 C 812.24 352.95, 812.03 352.98, 811.94 353.03 C 811.84 353.09, 811.71 353.35, 811.68 353.37 C 811.65 353.39, 811.85 353.12, 811.79 353.13 C 811.74 353.14, 811.46 353.29, 811.41 353.41 C 811.35 353.52, 811.37 353.76, 811.52 353.70 C 811.67 353.63, 812.07 353.22, 812.16 353.08" style="stroke: black; fill: black;"/><path d="M 850.82,360.01 C 850.65 360.39, 850.56 360.72, 850.46 361.92 C 850.36 363.12, 850.40 363.98, 850.32 366.03 C 850.24 368.08, 850.21 369.44, 850.05 372.18 C 849.89 374.92, 849.77 376.61, 849.53 379.72 C 849.28 382.84, 849.12 384.61, 848.82 387.75 C 848.53 390.88, 848.31 392.48, 848.06 395.41 C 847.81 398.34, 847.67 399.86, 847.58 402.40 C 847.49 404.94, 847.55 406.12, 847.62 408.11 C 847.68 410.11, 847.74 410.96, 847.89 412.38 C 848.05 413.79, 848.16 414.46, 848.41 415.20 C 848.65 415.94, 848.88 416.02, 849.10 416.09 C 849.32 416.15, 849.45 415.83, 849.51 415.55 C 849.58 415.26, 849.61 414.81, 849.44 414.65 C 849.26 414.49, 848.78 414.56, 848.66 414.75 C 848.53 414.95, 848.69 415.38, 848.81 415.62 C 848.93 415.87, 849.18 416.09, 849.27 415.97 C 849.37 415.85, 849.34 415.77, 849.30 415.03 C 849.25 414.29, 849.14 413.66, 849.05 412.27 C 848.96 410.89, 848.87 410.05, 848.84 408.08 C 848.81 406.12, 848.79 404.96, 848.89 402.45 C 849.00 399.94, 849.13 398.44, 849.37 395.52 C 849.62 392.60, 849.81 391.00, 850.12 387.87 C 850.43 384.74, 850.61 382.97, 850.93 379.85 C 851.25 376.73, 851.53 375.05, 851.73 372.29 C 851.92 369.53, 851.95 368.13, 851.93 366.05 C 851.91 363.98, 851.74 363.12, 851.61 361.91 C 851.49 360.70, 851.46 360.40, 851.31 360.02 C 851.15 359.64, 850.99 359.63, 850.82 360.01" style="stroke: black; fill: black;"/><path d="M 841.49,392.87 C 841.71 392.95, 841.82 392.98, 842.46 392.87 C 843.09 392.75, 843.55 392.70, 844.66 392.30 C 845.77 391.90, 846.56 391.57, 848.02 390.87 C 849.48 390.16, 850.35 389.66, 851.96 388.78 C 853.58 387.90, 854.52 387.37, 856.10 386.47 C 857.68 385.58, 858.48 385.10, 859.87 384.30 C 861.25 383.50, 861.95 383.12, 863.03 382.46 C 864.11 381.81, 864.66 381.43, 865.27 381.05 C 865.88 380.67, 865.98 380.41, 866.08 380.56 C 866.18 380.72, 866.00 380.85, 865.76 381.80 C 865.53 382.76, 865.29 383.49, 864.91 385.33 C 864.53 387.17, 864.25 388.54, 863.86 391.01 C 863.47 393.47, 863.28 395.08, 862.97 397.67 C 862.67 400.26, 862.46 401.72, 862.32 403.96 C 862.18 406.20, 862.19 407.23, 862.27 408.87 C 862.35 410.52, 862.44 411.16, 862.73 412.18 C 863.03 413.20, 863.21 413.53, 863.76 413.99 C 864.31 414.45, 864.72 414.61, 865.48 414.49 C 866.24 414.36, 866.68 414.12, 867.54 413.35 C 868.40 412.58, 868.85 412.07, 869.80 410.63 C 870.75 409.20, 871.25 408.16, 872.27 406.16 C 873.29 404.16, 873.84 402.94, 874.91 400.64 C 875.98 398.34, 876.58 396.90, 877.62 394.65 C 878.66 392.41, 879.25 391.19, 880.11 389.39 C 880.98 387.59, 881.39 386.79, 881.94 385.65 C 882.49 384.51, 882.69 383.98, 882.86 383.70 C 883.03 383.42, 882.91 383.51, 882.79 384.27 C 882.66 385.02, 882.46 385.73, 882.22 387.47 C 881.98 389.21, 881.79 390.49, 881.58 392.96 C 881.38 395.43, 881.34 397.11, 881.19 399.80 C 881.05 402.50, 880.93 404.03, 880.88 406.42 C 880.82 408.82, 880.83 409.95, 880.90 411.76 C 880.98 413.58, 881.01 414.36, 881.26 415.48 C 881.50 416.60, 881.66 416.98, 882.13 417.36 C 882.59 417.74, 882.91 417.88, 883.60 417.39 C 884.29 416.89, 884.88 416.19, 885.58 414.88 C 886.27 413.56, 886.67 412.40, 887.08 410.83 C 887.48 409.26, 887.63 407.82, 887.60 407.02 C 887.58 406.22, 887.38 406.18, 886.93 406.83 C 886.48 407.47, 885.94 408.80, 885.35 410.26 C 884.76 411.72, 884.45 412.85, 883.97 414.15 C 883.48 415.45, 883.22 416.21, 882.93 416.78 C 882.64 417.35, 882.64 417.30, 882.51 417.01 C 882.38 416.72, 882.33 416.39, 882.26 415.34 C 882.19 414.28, 882.14 413.51, 882.15 411.74 C 882.17 409.97, 882.18 408.85, 882.32 406.48 C 882.46 404.12, 882.63 402.59, 882.85 399.91 C 883.06 397.24, 883.20 395.57, 883.39 393.11 C 883.59 390.64, 883.76 389.38, 883.81 387.60 C 883.86 385.82, 883.87 385.06, 883.63 384.21 C 883.39 383.36, 883.16 383.16, 882.63 383.34 C 882.10 383.52, 881.73 384.00, 880.98 385.09 C 880.24 386.18, 879.84 386.99, 878.90 388.78 C 877.95 390.56, 877.33 391.77, 876.25 394.00 C 875.16 396.24, 874.55 397.67, 873.47 399.96 C 872.38 402.24, 871.82 403.45, 870.82 405.42 C 869.81 407.39, 869.30 408.39, 868.46 409.79 C 867.61 411.19, 867.23 411.65, 866.59 412.42 C 865.95 413.19, 865.71 413.41, 865.25 413.61 C 864.78 413.82, 864.57 413.77, 864.26 413.44 C 863.94 413.11, 863.83 412.88, 863.67 411.96 C 863.51 411.04, 863.46 410.42, 863.47 408.85 C 863.48 407.27, 863.50 406.26, 863.72 404.07 C 863.94 401.88, 864.20 400.44, 864.58 397.89 C 864.95 395.33, 865.20 393.74, 865.61 391.29 C 866.01 388.83, 866.33 387.50, 866.59 385.63 C 866.86 383.75, 866.97 383.00, 866.93 381.92 C 866.90 380.84, 866.82 380.58, 866.41 380.22 C 866.00 379.87, 865.69 379.93, 864.88 380.15 C 864.08 380.37, 863.53 380.74, 862.39 381.33 C 861.26 381.92, 860.60 382.34, 859.19 383.11 C 857.79 383.88, 856.98 384.33, 855.39 385.18 C 853.79 386.03, 852.83 386.53, 851.21 387.36 C 849.59 388.19, 848.72 388.63, 847.28 389.32 C 845.84 390.00, 845.07 390.28, 844.03 390.79 C 842.99 391.29, 842.60 391.50, 842.06 391.83 C 841.52 392.16, 841.45 392.23, 841.33 392.44 C 841.22 392.65, 841.26 392.78, 841.49 392.87" style="stroke: black; fill: black;"/><path d="M 900.14,362.73 C 899.96 362.79, 899.81 362.68, 899.56 363.19 C 899.32 363.70, 899.14 363.95, 898.89 365.28 C 898.64 366.61, 898.58 367.52, 898.32 369.84 C 898.06 372.15, 897.96 373.77, 897.60 376.84 C 897.23 379.92, 896.95 381.85, 896.48 385.20 C 896.01 388.54, 895.72 390.43, 895.23 393.57 C 894.74 396.70, 894.44 398.23, 894.05 400.87 C 893.66 403.51, 893.49 404.71, 893.28 406.77 C 893.07 408.82, 893.04 409.76, 893.01 411.14 C 892.98 412.53, 893.06 412.96, 893.14 413.70 C 893.22 414.44, 893.31 414.61, 893.42 414.84 C 893.53 415.06, 893.62 415.05, 893.71 414.82 C 893.79 414.59, 893.77 414.43, 893.85 413.70 C 893.93 412.98, 893.98 412.56, 894.11 411.20 C 894.23 409.84, 894.24 408.93, 894.49 406.90 C 894.74 404.87, 894.94 403.69, 895.34 401.06 C 895.74 398.43, 896.00 396.90, 896.49 393.76 C 896.98 390.63, 897.26 388.74, 897.79 385.39 C 898.32 382.05, 898.68 380.12, 899.13 377.05 C 899.58 373.97, 899.79 372.34, 900.04 370.03 C 900.30 367.71, 900.32 366.79, 900.41 365.47 C 900.49 364.14, 900.45 363.92, 900.45 363.41 C 900.46 362.90, 900.50 363.05, 900.44 362.91 C 900.38 362.78, 900.31 362.68, 900.14 362.73" style="stroke: black; fill: black;"/><path d="M 892.55,391.19 C 892.69 391.34, 892.78 391.38, 893.23 391.44 C 893.69 391.50, 893.97 391.63, 894.80 391.51 C 895.64 391.38, 896.24 391.26, 897.42 390.83 C 898.60 390.40, 899.32 390.11, 900.69 389.36 C 902.06 388.60, 902.86 388.15, 904.27 387.03 C 905.67 385.91, 906.35 385.24, 907.71 383.76 C 909.06 382.28, 909.76 381.44, 911.03 379.63 C 912.30 377.81, 912.95 376.81, 914.06 374.67 C 915.17 372.54, 915.72 371.24, 916.57 368.94 C 917.43 366.65, 917.78 365.29, 918.32 363.19 C 918.86 361.08, 919.07 360.07, 919.29 358.43 C 919.51 356.79, 919.54 356.07, 919.44 354.99 C 919.35 353.90, 919.19 353.46, 918.82 353.03 C 918.45 352.60, 918.08 352.45, 917.59 352.85 C 917.11 353.24, 916.85 353.64, 916.41 355.00 C 915.97 356.37, 915.79 357.25, 915.40 359.67 C 915.00 362.08, 914.80 363.74, 914.41 367.09 C 914.02 370.44, 913.84 372.59, 913.44 376.40 C 913.04 380.21, 912.82 382.38, 912.41 386.14 C 912.00 389.90, 911.73 391.89, 911.38 395.19 C 911.04 398.48, 910.87 400.03, 910.67 402.60 C 910.47 405.17, 910.45 406.31, 910.37 408.03 C 910.29 409.75, 910.30 410.31, 910.29 411.20 C 910.28 412.09, 910.30 412.15, 910.33 412.47 C 910.36 412.79, 910.38 412.73, 910.43 412.80 C 910.47 412.87, 910.49 412.87, 910.56 412.82 C 910.62 412.76, 910.63 412.84, 910.75 412.53 C 910.86 412.22, 911.00 412.16, 911.14 411.28 C 911.29 410.39, 911.32 409.82, 911.47 408.10 C 911.63 406.39, 911.71 405.26, 911.92 402.70 C 912.13 400.14, 912.22 398.59, 912.54 395.30 C 912.85 392.01, 913.09 390.02, 913.51 386.26 C 913.92 382.51, 914.15 380.33, 914.61 376.53 C 915.07 372.73, 915.33 370.59, 915.82 367.28 C 916.31 363.96, 916.67 362.33, 917.06 359.94 C 917.45 357.55, 917.55 356.67, 917.76 355.33 C 917.97 353.99, 918.01 353.64, 918.12 353.23 C 918.23 352.83, 918.25 352.95, 918.31 353.31 C 918.36 353.66, 918.44 354.02, 918.39 355.01 C 918.34 356.00, 918.35 356.68, 918.06 358.24 C 917.78 359.80, 917.54 360.78, 916.97 362.82 C 916.39 364.86, 916.03 366.19, 915.19 368.43 C 914.35 370.66, 913.83 371.93, 912.77 374.01 C 911.70 376.08, 911.09 377.05, 909.86 378.81 C 908.64 380.56, 907.95 381.37, 906.65 382.78 C 905.35 384.20, 904.69 384.83, 903.35 385.87 C 902.01 386.91, 901.25 387.29, 899.95 387.96 C 898.64 388.64, 897.94 388.85, 896.84 389.26 C 895.75 389.67, 895.21 389.77, 894.47 389.99 C 893.73 390.21, 893.52 390.23, 893.13 390.37 C 892.74 390.52, 892.63 390.55, 892.52 390.71 C 892.40 390.87, 892.40 391.04, 892.55 391.19" style="stroke: black; fill: black;"/><path d="M 903.05,392.63 C 903.25 392.78, 903.40 392.92, 904.05 392.92 C 904.71 392.93, 905.17 392.91, 906.32 392.65 C 907.48 392.40, 908.24 392.20, 909.82 391.66 C 911.41 391.11, 912.43 390.69, 914.24 389.93 C 916.05 389.17, 917.10 388.75, 918.87 387.83 C 920.64 386.92, 921.51 386.29, 923.08 385.37 C 924.65 384.44, 925.41 384.01, 926.72 383.23 C 928.03 382.44, 928.67 382.01, 929.62 381.45 C 930.57 380.90, 930.94 380.60, 931.47 380.45 C 932.00 380.30, 932.10 380.25, 932.27 380.71 C 932.44 381.17, 932.38 381.54, 932.32 382.73 C 932.27 383.93, 932.16 384.76, 931.99 386.70 C 931.81 388.63, 931.70 389.92, 931.45 392.41 C 931.19 394.89, 931.02 396.46, 930.71 399.12 C 930.41 401.78, 930.20 403.27, 929.92 405.69 C 929.64 408.11, 929.52 409.34, 929.32 411.22 C 929.12 413.10, 928.96 413.96, 928.93 415.10 C 928.90 416.23, 928.99 416.70, 929.18 416.88 C 929.36 417.06, 929.63 416.68, 929.87 415.99 C 930.10 415.30, 930.32 414.48, 930.33 413.44 C 930.35 412.41, 930.18 411.34, 929.93 410.81 C 929.67 410.28, 929.33 410.27, 929.05 410.79 C 928.77 411.31, 928.58 412.37, 928.54 413.40 C 928.51 414.43, 928.70 415.24, 928.86 415.94 C 929.03 416.64, 929.15 417.04, 929.36 416.90 C 929.58 416.76, 929.69 416.33, 929.94 415.22 C 930.20 414.12, 930.34 413.26, 930.62 411.39 C 930.90 409.51, 931.02 408.28, 931.35 405.87 C 931.68 403.45, 931.93 401.97, 932.28 399.31 C 932.63 396.66, 932.84 395.08, 933.11 392.58 C 933.38 390.08, 933.52 388.80, 933.64 386.82 C 933.75 384.84, 933.82 383.99, 933.68 382.69 C 933.55 381.39, 933.42 380.92, 932.95 380.30 C 932.49 379.69, 932.14 379.61, 931.36 379.62 C 930.58 379.64, 930.12 379.90, 929.06 380.39 C 928.00 380.88, 927.40 381.34, 926.06 382.09 C 924.73 382.85, 923.96 383.28, 922.39 384.16 C 920.81 385.05, 919.95 385.65, 918.20 386.50 C 916.45 387.35, 915.41 387.72, 913.62 388.43 C 911.84 389.14, 910.81 389.50, 909.27 390.04 C 907.72 390.58, 906.98 390.76, 905.90 391.11 C 904.82 391.47, 904.44 391.62, 903.87 391.83 C 903.30 392.04, 903.20 392.01, 903.04 392.17 C 902.87 392.33, 902.85 392.48, 903.05 392.63" style="stroke: black; fill: black;"/><path d="M 933.69,366.99 C 933.88 366.91, 933.96 366.75, 933.94 366.69 C 933.91 366.64, 933.65 366.72, 933.58 366.72 C 933.51 366.73, 933.54 366.83, 933.58 366.72 C 933.62 366.60, 933.84 366.30, 933.77 366.15 C 933.69 366.00, 933.43 365.88, 933.20 365.96 C 932.97 366.04, 932.66 366.34, 932.61 366.57 C 932.56 366.79, 932.74 366.99, 932.96 367.08 C 933.17 367.16, 933.49 367.07, 933.69 366.99" style="stroke: black; fill: black;"/><path d="M 978.53,377.83 C 978.41 378.10, 978.45 378.31, 978.41 379.15 C 978.37 380.00, 978.40 380.53, 978.33 382.05 C 978.27 383.57, 978.23 384.58, 978.06 386.76 C 977.89 388.93, 977.76 390.34, 977.48 392.93 C 977.20 395.52, 977.00 397.06, 976.66 399.70 C 976.32 402.34, 976.09 403.79, 975.78 406.14 C 975.47 408.50, 975.31 409.63, 975.11 411.47 C 974.90 413.31, 974.84 414.12, 974.76 415.34 C 974.67 416.56, 974.65 416.95, 974.67 417.59 C 974.69 418.23, 974.78 418.32, 974.85 418.56 C 974.92 418.81, 974.95 418.75, 975.01 418.80 C 975.07 418.85, 975.09 418.84, 975.15 418.80 C 975.20 418.75, 975.21 418.80, 975.29 418.57 C 975.37 418.34, 975.41 418.28, 975.52 417.65 C 975.64 417.03, 975.68 416.66, 975.85 415.46 C 976.01 414.25, 976.10 413.46, 976.36 411.64 C 976.63 409.81, 976.81 408.68, 977.17 406.34 C 977.53 403.99, 977.79 402.55, 978.17 399.91 C 978.56 397.26, 978.78 395.72, 979.10 393.12 C 979.41 390.51, 979.58 389.10, 979.74 386.89 C 979.90 384.67, 979.95 383.63, 979.91 382.06 C 979.87 380.50, 979.70 379.92, 979.52 379.06 C 979.34 378.20, 979.21 378.00, 979.01 377.76 C 978.81 377.51, 978.65 377.55, 978.53 377.83" style="stroke: black; fill: black;"/><path d="M 979.60,358.56 C 979.39 358.75, 979.21 359.10, 979.17 359.53 C 979.13 359.95, 979.25 360.28, 979.40 360.67 C 979.55 361.05, 979.68 361.24, 979.93 361.46 C 980.17 361.68, 980.40 361.78, 980.61 361.77 C 980.82 361.77, 980.93 361.61, 980.98 361.44 C 981.04 361.26, 980.92 361.12, 980.88 360.88 C 980.85 360.64, 980.85 360.54, 980.80 360.24 C 980.74 359.94, 980.71 359.72, 980.60 359.39 C 980.49 359.06, 980.45 358.76, 980.25 358.59 C 980.05 358.42, 979.82 358.37, 979.60 358.56" style="stroke: black; fill: black;"/><path d="M 1021.36,361.30 C 1021.23 361.45, 1021.23 361.39, 1021.12 362.00 C 1021.01 362.60, 1020.89 362.98, 1020.81 364.32 C 1020.73 365.67, 1020.79 366.54, 1020.74 368.73 C 1020.70 370.91, 1020.69 372.29, 1020.58 375.24 C 1020.48 378.19, 1020.45 380.06, 1020.22 383.47 C 1019.99 386.88, 1019.82 388.80, 1019.42 392.30 C 1019.02 395.80, 1018.72 397.69, 1018.23 400.98 C 1017.75 404.27, 1017.39 405.92, 1016.99 408.75 C 1016.60 411.58, 1016.47 412.95, 1016.26 415.13 C 1016.04 417.31, 1016.02 418.21, 1015.91 419.66 C 1015.81 421.11, 1015.75 421.60, 1015.75 422.38 C 1015.74 423.17, 1015.84 423.34, 1015.88 423.58 C 1015.92 423.83, 1015.95 423.58, 1015.96 423.60 C 1015.98 423.61, 1015.91 423.64, 1015.97 423.65 C 1016.02 423.66, 1016.13 423.89, 1016.26 423.66 C 1016.39 423.42, 1016.49 423.25, 1016.63 422.47 C 1016.78 421.69, 1016.83 421.20, 1016.99 419.76 C 1017.16 418.32, 1017.22 417.43, 1017.47 415.26 C 1017.73 413.09, 1017.90 411.75, 1018.28 408.93 C 1018.67 406.11, 1018.94 404.45, 1019.40 401.15 C 1019.87 397.85, 1020.17 395.95, 1020.59 392.44 C 1021.01 388.92, 1021.19 387.00, 1021.50 383.57 C 1021.81 380.15, 1021.96 378.28, 1022.14 375.32 C 1022.32 372.35, 1022.37 370.96, 1022.41 368.76 C 1022.46 366.56, 1022.42 365.69, 1022.37 364.34 C 1022.31 362.98, 1022.26 362.60, 1022.13 361.98 C 1022.01 361.37, 1021.90 361.39, 1021.74 361.26 C 1021.59 361.12, 1021.48 361.15, 1021.36 361.30" style="stroke: black; fill: black;"/><path d="M 1010.29,395.68 C 1010.55 395.84, 1010.85 395.92, 1011.60 395.94 C 1012.36 395.97, 1012.89 395.97, 1014.07 395.81 C 1015.24 395.65, 1016.05 395.46, 1017.49 395.13 C 1018.93 394.81, 1019.72 394.59, 1021.26 394.19 C 1022.80 393.79, 1023.62 393.56, 1025.18 393.13 C 1026.74 392.71, 1027.60 392.49, 1029.06 392.06 C 1030.52 391.63, 1031.22 391.41, 1032.49 391.00 C 1033.77 390.59, 1034.41 390.41, 1035.45 390.02 C 1036.48 389.63, 1036.95 389.46, 1037.66 389.04 C 1038.37 388.61, 1038.61 388.37, 1039.00 387.90 C 1039.40 387.42, 1039.54 387.20, 1039.63 386.67 C 1039.73 386.13, 1039.72 385.77, 1039.48 385.21 C 1039.25 384.64, 1038.99 384.23, 1038.46 383.83 C 1037.94 383.43, 1037.55 383.28, 1036.85 383.22 C 1036.14 383.17, 1035.72 383.19, 1034.92 383.56 C 1034.12 383.94, 1033.69 384.18, 1032.86 385.09 C 1032.02 386.01, 1031.55 386.60, 1030.75 388.12 C 1029.95 389.64, 1029.52 390.63, 1028.87 392.71 C 1028.21 394.78, 1027.91 396.09, 1027.49 398.50 C 1027.07 400.90, 1026.91 402.35, 1026.76 404.73 C 1026.61 407.12, 1026.61 408.38, 1026.75 410.42 C 1026.89 412.46, 1027.03 413.41, 1027.46 414.93 C 1027.88 416.45, 1028.20 417.07, 1028.89 418.02 C 1029.58 418.98, 1030.02 419.31, 1030.90 419.71 C 1031.77 420.10, 1032.24 420.19, 1033.25 419.98 C 1034.26 419.78, 1034.84 419.55, 1035.94 418.67 C 1037.03 417.79, 1037.59 417.19, 1038.72 415.60 C 1039.86 414.01, 1040.46 412.94, 1041.63 410.73 C 1042.80 408.53, 1043.43 407.07, 1044.57 404.59 C 1045.71 402.11, 1046.30 400.63, 1047.33 398.34 C 1048.37 396.05, 1048.88 394.88, 1049.74 393.15 C 1050.61 391.42, 1051.05 390.69, 1051.67 389.70 C 1052.29 388.71, 1052.50 388.36, 1052.83 388.19 C 1053.16 388.02, 1053.19 388.14, 1053.31 388.83 C 1053.42 389.52, 1053.40 390.13, 1053.40 391.65 C 1053.41 393.18, 1053.39 394.30, 1053.32 396.46 C 1053.24 398.62, 1053.20 400.07, 1053.03 402.46 C 1052.86 404.85, 1052.71 406.21, 1052.48 408.42 C 1052.25 410.63, 1052.06 411.78, 1051.89 413.52 C 1051.71 415.26, 1051.61 416.00, 1051.60 417.10 C 1051.60 418.20, 1051.65 418.70, 1051.87 419.00 C 1052.08 419.31, 1052.30 419.25, 1052.68 418.61 C 1053.06 417.98, 1053.28 417.40, 1053.76 415.84 C 1054.24 414.28, 1054.48 413.08, 1055.06 410.82 C 1055.65 408.56, 1055.94 407.02, 1056.69 404.54 C 1057.44 402.06, 1057.95 400.61, 1058.81 398.43 C 1059.68 396.25, 1060.16 395.15, 1061.01 393.64 C 1061.86 392.12, 1062.36 391.58, 1063.06 390.85 C 1063.76 390.12, 1064.02 389.94, 1064.51 389.99 C 1065.00 390.03, 1065.21 390.25, 1065.52 391.06 C 1065.84 391.87, 1065.91 392.52, 1066.08 394.01 C 1066.25 395.51, 1066.28 396.52, 1066.37 398.55 C 1066.45 400.57, 1066.49 401.94, 1066.50 404.15 C 1066.51 406.35, 1066.47 407.59, 1066.41 409.55 C 1066.35 411.51, 1066.23 412.54, 1066.21 413.97 C 1066.20 415.40, 1066.20 416.01, 1066.34 416.70 C 1066.47 417.39, 1066.61 417.58, 1066.89 417.43 C 1067.18 417.29, 1067.37 416.98, 1067.77 415.98 C 1068.16 414.97, 1068.35 414.16, 1068.85 412.42 C 1069.36 410.68, 1069.55 409.44, 1070.28 407.27 C 1071.01 405.11, 1071.53 403.71, 1072.51 401.59 C 1073.49 399.46, 1074.15 398.32, 1075.18 396.65 C 1076.22 394.97, 1076.81 394.23, 1077.69 393.21 C 1078.58 392.19, 1078.98 391.84, 1079.61 391.57 C 1080.23 391.30, 1080.43 391.36, 1080.81 391.86 C 1081.19 392.36, 1081.31 392.82, 1081.51 394.07 C 1081.71 395.31, 1081.74 396.17, 1081.82 398.08 C 1081.89 399.98, 1081.87 401.30, 1081.88 403.61 C 1081.88 405.92, 1081.86 407.35, 1081.85 409.61 C 1081.84 411.87, 1081.80 413.06, 1081.81 414.90 C 1081.82 416.74, 1081.81 417.59, 1081.90 418.80 C 1082.00 420.01, 1082.12 420.35, 1082.28 420.96 C 1082.43 421.57, 1082.51 421.65, 1082.69 421.85 C 1082.87 422.04, 1082.98 421.98, 1083.17 421.92 C 1083.36 421.86, 1083.46 421.72, 1083.62 421.56 C 1083.78 421.40, 1084.01 421.30, 1083.99 421.11 C 1083.97 420.91, 1083.78 420.69, 1083.51 420.58 C 1083.25 420.47, 1082.95 420.45, 1082.67 420.55 C 1082.40 420.65, 1082.19 420.88, 1082.16 421.08 C 1082.13 421.29, 1082.37 421.44, 1082.54 421.58 C 1082.71 421.72, 1082.90 421.76, 1083.01 421.77 C 1083.13 421.79, 1083.11 421.85, 1083.13 421.66 C 1083.14 421.47, 1083.11 421.42, 1083.09 420.84 C 1083.07 420.26, 1083.00 419.95, 1083.02 418.76 C 1083.04 417.58, 1083.10 416.75, 1083.17 414.92 C 1083.25 413.10, 1083.31 411.90, 1083.39 409.64 C 1083.46 407.38, 1083.53 405.94, 1083.54 403.61 C 1083.56 401.28, 1083.61 399.95, 1083.46 397.98 C 1083.32 396.01, 1083.23 395.10, 1082.82 393.76 C 1082.41 392.41, 1082.10 391.86, 1081.41 391.27 C 1080.71 390.68, 1080.27 390.58, 1079.36 390.80 C 1078.45 391.03, 1077.93 391.39, 1076.86 392.41 C 1075.79 393.42, 1075.17 394.18, 1074.01 395.88 C 1072.85 397.58, 1072.15 398.74, 1071.08 400.90 C 1070.00 403.07, 1069.42 404.49, 1068.64 406.71 C 1067.85 408.92, 1067.57 410.17, 1067.15 411.97 C 1066.73 413.77, 1066.61 414.61, 1066.52 415.68 C 1066.42 416.75, 1066.55 417.12, 1066.67 417.32 C 1066.79 417.53, 1066.95 417.37, 1067.11 416.72 C 1067.28 416.06, 1067.34 415.46, 1067.49 414.04 C 1067.65 412.62, 1067.75 411.59, 1067.88 409.62 C 1068.00 407.64, 1068.08 406.38, 1068.11 404.15 C 1068.15 401.92, 1068.15 400.54, 1068.04 398.47 C 1067.94 396.39, 1067.90 395.36, 1067.59 393.78 C 1067.27 392.19, 1067.07 391.45, 1066.47 390.55 C 1065.87 389.66, 1065.39 389.38, 1064.58 389.30 C 1063.77 389.21, 1063.35 389.40, 1062.42 390.14 C 1061.49 390.88, 1060.93 391.44, 1059.93 392.98 C 1058.94 394.53, 1058.41 395.65, 1057.45 397.86 C 1056.48 400.07, 1055.93 401.53, 1055.10 404.04 C 1054.27 406.54, 1053.87 408.08, 1053.29 410.37 C 1052.71 412.65, 1052.47 413.86, 1052.19 415.46 C 1051.90 417.07, 1051.88 417.68, 1051.88 418.39 C 1051.88 419.09, 1052.04 419.21, 1052.20 418.97 C 1052.35 418.73, 1052.47 418.26, 1052.67 417.20 C 1052.87 416.14, 1052.93 415.40, 1053.19 413.68 C 1053.44 411.96, 1053.65 410.81, 1053.95 408.59 C 1054.24 406.38, 1054.43 405.01, 1054.66 402.59 C 1054.88 400.18, 1055.02 398.72, 1055.07 396.52 C 1055.13 394.31, 1055.14 393.16, 1054.95 391.56 C 1054.76 389.96, 1054.58 389.29, 1054.13 388.51 C 1053.67 387.74, 1053.34 387.56, 1052.68 387.67 C 1052.02 387.79, 1051.65 388.11, 1050.83 389.09 C 1050.02 390.06, 1049.56 390.81, 1048.59 392.54 C 1047.63 394.26, 1047.09 395.44, 1046.00 397.72 C 1044.90 399.99, 1044.28 401.46, 1043.12 403.92 C 1041.96 406.37, 1041.33 407.82, 1040.20 409.98 C 1039.07 412.14, 1038.49 413.19, 1037.47 414.73 C 1036.44 416.26, 1035.96 416.81, 1035.06 417.65 C 1034.16 418.50, 1033.74 418.70, 1032.98 418.94 C 1032.23 419.17, 1031.94 419.13, 1031.29 418.83 C 1030.65 418.53, 1030.29 418.27, 1029.75 417.43 C 1029.21 416.59, 1028.93 416.05, 1028.60 414.64 C 1028.27 413.22, 1028.17 412.31, 1028.10 410.35 C 1028.02 408.39, 1028.05 407.15, 1028.24 404.84 C 1028.43 402.52, 1028.61 401.11, 1029.03 398.77 C 1029.46 396.44, 1029.77 395.17, 1030.39 393.18 C 1031.01 391.19, 1031.43 390.26, 1032.14 388.83 C 1032.85 387.40, 1033.27 386.86, 1033.94 386.03 C 1034.61 385.20, 1034.93 385.01, 1035.49 384.69 C 1036.05 384.37, 1036.31 384.40, 1036.74 384.45 C 1037.16 384.49, 1037.29 384.65, 1037.61 384.92 C 1037.93 385.18, 1038.12 385.46, 1038.34 385.79 C 1038.56 386.12, 1038.71 386.26, 1038.71 386.55 C 1038.70 386.84, 1038.61 386.94, 1038.29 387.24 C 1037.97 387.54, 1037.77 387.73, 1037.12 388.05 C 1036.47 388.36, 1036.03 388.50, 1035.02 388.84 C 1034.02 389.17, 1033.37 389.35, 1032.10 389.73 C 1030.83 390.11, 1030.14 390.32, 1028.68 390.73 C 1027.22 391.13, 1026.37 391.34, 1024.82 391.74 C 1023.26 392.14, 1022.44 392.37, 1020.90 392.72 C 1019.37 393.08, 1018.57 393.22, 1017.14 393.52 C 1015.72 393.82, 1014.92 393.96, 1013.78 394.21 C 1012.65 394.46, 1012.18 394.57, 1011.47 394.76 C 1010.77 394.95, 1010.49 394.98, 1010.26 395.16 C 1010.02 395.34, 1010.02 395.52, 1010.29 395.68" style="stroke: black; fill: black;"/><path d="M 1095.22,392.13 C 1095.05 392.46, 1094.98 392.72, 1094.84 393.78 C 1094.69 394.85, 1094.59 395.55, 1094.49 397.46 C 1094.39 399.36, 1094.35 400.70, 1094.33 403.32 C 1094.30 405.94, 1094.38 407.53, 1094.37 410.56 C 1094.36 413.59, 1094.37 415.31, 1094.28 418.46 C 1094.20 421.62, 1094.09 423.29, 1093.93 426.34 C 1093.77 429.39, 1093.64 430.92, 1093.50 433.71 C 1093.35 436.50, 1093.29 437.94, 1093.19 440.29 C 1093.09 442.65, 1093.03 443.77, 1092.99 445.51 C 1092.95 447.26, 1092.92 448.02, 1092.99 449.02 C 1093.07 450.02, 1093.19 450.36, 1093.36 450.50 C 1093.52 450.64, 1093.71 450.46, 1093.82 449.70 C 1093.93 448.94, 1093.93 448.31, 1093.90 446.70 C 1093.87 445.10, 1093.77 444.02, 1093.68 441.66 C 1093.59 439.31, 1093.48 437.81, 1093.46 434.91 C 1093.43 432.01, 1093.41 430.33, 1093.56 427.18 C 1093.72 424.02, 1093.84 422.27, 1094.22 419.13 C 1094.60 416.00, 1094.89 414.34, 1095.46 411.51 C 1096.03 408.68, 1096.35 407.39, 1097.08 404.97 C 1097.81 402.56, 1098.22 401.44, 1099.13 399.44 C 1100.04 397.45, 1100.53 396.52, 1101.64 395.01 C 1102.74 393.50, 1103.39 392.87, 1104.65 391.91 C 1105.91 390.95, 1106.61 390.56, 1107.92 390.20 C 1109.23 389.85, 1109.96 389.84, 1111.20 390.14 C 1112.44 390.43, 1113.10 390.77, 1114.10 391.68 C 1115.10 392.58, 1115.54 393.28, 1116.19 394.68 C 1116.85 396.07, 1117.12 396.96, 1117.38 398.64 C 1117.63 400.33, 1117.65 401.28, 1117.46 403.09 C 1117.27 404.90, 1117.05 405.91, 1116.44 407.70 C 1115.83 409.48, 1115.41 410.42, 1114.43 412.02 C 1113.45 413.63, 1112.78 414.44, 1111.54 415.73 C 1110.30 417.01, 1109.50 417.62, 1108.21 418.45 C 1106.93 419.28, 1106.25 419.59, 1105.10 419.86 C 1103.94 420.14, 1103.40 420.12, 1102.44 419.81 C 1101.47 419.51, 1101.05 419.15, 1100.27 418.34 C 1099.49 417.52, 1099.11 416.90, 1098.53 415.72 C 1097.96 414.55, 1097.71 413.77, 1097.38 412.47 C 1097.05 411.16, 1097.03 410.32, 1096.90 409.19 C 1096.77 408.07, 1096.78 407.55, 1096.75 406.83 C 1096.72 406.11, 1096.83 405.87, 1096.76 405.61 C 1096.69 405.34, 1096.60 405.30, 1096.42 405.52 C 1096.23 405.75, 1096.01 405.98, 1095.83 406.73 C 1095.64 407.48, 1095.47 408.06, 1095.49 409.28 C 1095.51 410.50, 1095.56 411.41, 1095.91 412.83 C 1096.26 414.25, 1096.56 415.11, 1097.25 416.39 C 1097.95 417.67, 1098.42 418.34, 1099.39 419.24 C 1100.36 420.14, 1100.93 420.52, 1102.12 420.87 C 1103.31 421.22, 1103.98 421.26, 1105.34 421.00 C 1106.70 420.74, 1107.47 420.42, 1108.90 419.56 C 1110.34 418.70, 1111.18 418.05, 1112.53 416.69 C 1113.87 415.33, 1114.57 414.45, 1115.61 412.75 C 1116.66 411.04, 1117.11 410.05, 1117.76 408.15 C 1118.41 406.25, 1118.66 405.18, 1118.87 403.24 C 1119.07 401.30, 1119.06 400.26, 1118.78 398.43 C 1118.49 396.60, 1118.20 395.62, 1117.43 394.08 C 1116.67 392.53, 1116.14 391.74, 1114.95 390.71 C 1113.76 389.69, 1112.94 389.29, 1111.47 388.96 C 1110.01 388.63, 1109.13 388.66, 1107.62 389.05 C 1106.10 389.45, 1105.31 389.90, 1103.92 390.94 C 1102.52 391.99, 1101.83 392.68, 1100.64 394.28 C 1099.46 395.87, 1098.95 396.86, 1097.99 398.92 C 1097.04 400.98, 1096.62 402.13, 1095.86 404.60 C 1095.10 407.07, 1094.76 408.37, 1094.18 411.25 C 1093.60 414.12, 1093.35 415.81, 1092.96 418.98 C 1092.57 422.15, 1092.44 423.92, 1092.23 427.10 C 1092.02 430.29, 1091.96 431.98, 1091.91 434.90 C 1091.86 437.83, 1091.88 439.34, 1091.96 441.73 C 1092.04 444.11, 1092.12 445.20, 1092.30 446.81 C 1092.49 448.42, 1092.65 449.04, 1092.90 449.78 C 1093.14 450.52, 1093.32 450.67, 1093.53 450.53 C 1093.74 450.38, 1093.82 450.04, 1093.96 449.05 C 1094.09 448.06, 1094.11 447.30, 1094.22 445.56 C 1094.32 443.82, 1094.37 442.71, 1094.50 440.36 C 1094.62 438.00, 1094.71 436.57, 1094.85 433.78 C 1094.99 430.99, 1095.06 429.46, 1095.21 426.40 C 1095.36 423.35, 1095.47 421.67, 1095.59 418.51 C 1095.72 415.34, 1095.75 413.61, 1095.83 410.58 C 1095.91 407.55, 1095.96 405.96, 1096.01 403.34 C 1096.07 400.73, 1096.11 399.40, 1096.10 397.50 C 1096.09 395.59, 1096.04 394.89, 1095.96 393.82 C 1095.89 392.75, 1095.85 392.49, 1095.70 392.15 C 1095.56 391.81, 1095.39 391.81, 1095.22 392.13" style="stroke: black; fill: black;"/><path d="M 1126.81,388.44 C 1126.63 388.60, 1126.61 388.65, 1126.37 389.32 C 1126.13 389.99, 1125.94 390.43, 1125.61 391.79 C 1125.27 393.14, 1125.08 394.03, 1124.69 396.11 C 1124.30 398.19, 1124.08 399.58, 1123.65 402.19 C 1123.22 404.80, 1122.93 406.47, 1122.53 409.16 C 1122.13 411.85, 1121.92 413.31, 1121.66 415.62 C 1121.41 417.94, 1121.30 419.09, 1121.24 420.72 C 1121.18 422.35, 1121.25 423.17, 1121.36 423.79 C 1121.47 424.40, 1121.60 424.40, 1121.78 423.81 C 1121.96 423.22, 1121.99 422.42, 1122.25 420.82 C 1122.51 419.22, 1122.70 418.10, 1123.07 415.81 C 1123.43 413.53, 1123.64 412.07, 1124.08 409.40 C 1124.53 406.74, 1124.85 405.07, 1125.31 402.47 C 1125.76 399.88, 1125.99 398.49, 1126.36 396.42 C 1126.72 394.34, 1126.93 393.48, 1127.15 392.10 C 1127.36 390.72, 1127.42 390.24, 1127.43 389.52 C 1127.45 388.80, 1127.36 388.71, 1127.24 388.49 C 1127.11 388.27, 1126.98 388.27, 1126.81 388.44" style="stroke: black; fill: black;"/><path d="M 1127.33,377.40 C 1127.55 377.35, 1127.74 377.26, 1127.78 377.12 C 1127.81 376.98, 1127.65 376.79, 1127.49 376.71 C 1127.34 376.63, 1127.17 376.65, 1127.02 376.72 C 1126.87 376.79, 1126.86 376.98, 1126.74 377.08 C 1126.63 377.18, 1126.55 377.19, 1126.45 377.22 C 1126.35 377.25, 1126.21 377.20, 1126.26 377.23 C 1126.30 377.25, 1126.46 377.31, 1126.67 377.35 C 1126.89 377.38, 1127.11 377.44, 1127.33 377.40" style="stroke: black; fill: black;"/></svg>