<svg xmlns="http://www.w3.org/2000/svg" id="canvas" viewBox="506.503 303.261 504.427 153.124"><path d="M 515.15,306.43 C 513.64 306.84, 512.93 307.56, 511.83 309.36 C 510.74 311.16, 510.08 312.40, 509.67 315.42 C 509.26 318.43, 509.73 320.45, 509.76 324.44 C 509.80 328.44, 509.82 330.71, 509.86 335.39 C 509.90 340.08, 509.81 342.65, 509.97 347.86 C 510.12 353.06, 510.21 355.88, 510.62 361.42 C 511.02 366.95, 511.25 369.88, 511.99 375.52 C 512.72 381.17, 513.16 384.08, 514.29 389.63 C 515.42 395.18, 516.07 398.01, 517.63 403.28 C 519.19 408.54, 520.06 411.16, 522.08 415.95 C 524.09 420.74, 525.22 423.06, 527.69 427.24 C 530.16 431.42, 531.54 433.39, 534.43 436.84 C 537.33 440.28, 538.90 441.84, 542.18 444.45 C 545.47 447.06, 547.26 448.21, 550.86 449.89 C 554.46 451.57, 556.42 452.19, 560.20 452.83 C 563.98 453.48, 565.97 453.54, 569.75 453.11 C 573.53 452.68, 575.51 452.18, 579.10 450.69 C 582.69 449.20, 584.45 448.08, 587.70 445.64 C 590.94 443.21, 592.49 441.71, 595.33 438.52 C 598.16 435.33, 599.46 433.49, 601.85 429.68 C 604.24 425.86, 605.32 423.72, 607.29 419.46 C 609.27 415.20, 610.18 412.94, 611.72 408.37 C 613.26 403.80, 613.88 401.35, 614.97 396.59 C 616.07 391.84, 616.54 389.39, 617.21 384.60 C 617.87 379.81, 618.08 377.35, 618.30 372.64 C 618.53 367.94, 618.51 365.56, 618.35 361.09 C 618.18 356.62, 617.97 354.43, 617.47 350.29 C 616.97 346.15, 616.60 344.12, 615.85 340.40 C 615.10 336.68, 614.73 334.88, 613.71 331.70 C 612.70 328.51, 612.15 326.96, 610.77 324.47 C 609.39 321.98, 608.78 320.71, 606.83 319.24 C 604.88 317.77, 603.39 317.02, 601.02 317.12 C 598.65 317.22, 596.81 317.94, 594.96 319.74 C 593.12 321.54, 592.16 323.07, 591.80 326.12 C 591.44 329.16, 592.41 330.98, 593.16 334.96 C 593.90 338.95, 594.55 341.36, 595.52 346.05 C 596.49 350.74, 596.95 353.31, 598.01 358.41 C 599.06 363.51, 599.55 366.23, 600.78 371.53 C 602.02 376.82, 602.70 379.59, 604.18 384.90 C 605.66 390.21, 606.44 392.95, 608.20 398.06 C 609.97 403.18, 610.96 405.76, 613.02 410.46 C 615.08 415.17, 616.14 417.44, 618.51 421.57 C 620.87 425.70, 622.15 427.66, 624.83 431.10 C 627.52 434.55, 628.97 436.11, 631.93 438.80 C 634.89 441.48, 636.63 442.94, 639.65 444.53 C 642.67 446.11, 644.53 446.57, 647.03 446.71 C 649.53 446.86, 651.00 446.24, 652.14 445.25 C 653.28 444.26, 653.29 443.04, 652.74 441.75 C 652.19 440.47, 651.15 439.97, 649.39 438.84 C 647.64 437.71, 646.47 437.35, 643.97 436.10 C 641.47 434.86, 639.65 434.50, 636.91 432.60 C 634.16 430.70, 632.82 429.47, 630.25 426.60 C 627.68 423.73, 626.40 421.97, 624.05 418.25 C 621.71 414.52, 620.61 412.39, 618.55 407.97 C 616.48 403.54, 615.47 401.05, 613.72 396.13 C 611.97 391.20, 611.19 388.53, 609.78 383.35 C 608.36 378.17, 607.70 375.46, 606.64 370.24 C 605.57 365.03, 605.16 362.34, 604.44 357.29 C 603.73 352.24, 603.38 349.62, 603.07 345.01 C 602.76 340.39, 602.73 337.92, 602.89 334.22 C 603.05 330.53, 604.05 328.88, 603.87 326.53 C 603.69 324.18, 602.85 323.25, 602.01 322.47 C 601.17 321.68, 600.12 322.03, 599.67 322.60 C 599.22 323.18, 599.28 324.00, 599.75 325.34 C 600.22 326.67, 600.96 327.36, 602.01 329.29 C 603.07 331.22, 603.84 332.37, 605.02 334.99 C 606.20 337.61, 606.91 339.12, 607.93 342.40 C 608.95 345.68, 609.42 347.58, 610.11 351.39 C 610.80 355.20, 611.08 357.26, 611.38 361.46 C 611.68 365.66, 611.74 367.93, 611.61 372.38 C 611.47 376.83, 611.30 379.17, 610.69 383.71 C 610.08 388.25, 609.62 390.60, 608.55 395.09 C 607.48 399.58, 606.86 401.90, 605.34 406.16 C 603.82 410.43, 602.90 412.53, 600.96 416.42 C 599.01 420.30, 597.92 422.26, 595.63 425.61 C 593.34 428.96, 592.09 430.51, 589.52 433.16 C 586.95 435.81, 585.53 436.97, 582.79 438.87 C 580.05 440.77, 578.64 441.54, 575.83 442.66 C 573.02 443.77, 571.60 444.08, 568.73 444.44 C 565.86 444.79, 564.42 444.81, 561.49 444.43 C 558.55 444.05, 557.03 443.72, 554.06 442.53 C 551.10 441.35, 549.56 440.55, 546.66 438.51 C 543.76 436.46, 542.29 435.22, 539.58 432.30 C 536.86 429.38, 535.50 427.65, 533.10 423.91 C 530.69 420.16, 529.54 418.03, 527.54 413.58 C 525.54 409.12, 524.65 406.64, 523.10 401.62 C 521.55 396.61, 520.88 393.87, 519.79 388.51 C 518.69 383.15, 518.27 380.31, 517.62 374.82 C 516.97 369.34, 516.79 366.46, 516.55 361.07 C 516.32 355.68, 516.30 352.92, 516.46 347.86 C 516.61 342.80, 516.82 340.28, 517.33 335.78 C 517.84 331.28, 518.20 329.08, 519.01 325.36 C 519.81 321.64, 520.89 320.01, 521.35 317.17 C 521.82 314.33, 521.72 313.12, 521.33 311.14 C 520.95 309.17, 520.65 308.25, 519.41 307.31 C 518.18 306.37, 516.67 306.02, 515.15 306.43" style="stroke: black; fill: black;"/><path d="M 710.46,383.62 C 711.20 382.03, 710.98 380.52, 710.11 378.52 C 709.24 376.51, 708.28 375.33, 706.11 373.60 C 703.94 371.88, 702.26 370.87, 699.25 369.89 C 696.23 368.91, 694.43 368.69, 691.01 368.68 C 687.60 368.68, 685.79 369.08, 682.19 369.85 C 678.58 370.62, 676.65 371.11, 673.00 372.53 C 669.34 373.95, 667.41 374.88, 663.93 376.96 C 660.44 379.03, 658.66 380.24, 655.56 382.92 C 652.45 385.60, 650.87 387.12, 648.40 390.35 C 645.94 393.58, 644.75 395.41, 643.22 399.08 C 641.69 402.75, 641.09 404.79, 640.77 408.69 C 640.44 412.58, 640.57 414.74, 641.61 418.55 C 642.65 422.37, 643.60 424.39, 645.98 427.77 C 648.36 431.14, 650.02 432.75, 653.50 435.43 C 656.97 438.11, 659.08 439.28, 663.35 441.17 C 667.61 443.07, 670.02 443.86, 674.82 444.90 C 679.62 445.94, 682.28 446.22, 687.35 446.37 C 692.43 446.53, 695.15 446.35, 700.18 445.67 C 705.22 445.00, 707.82 444.44, 712.52 442.98 C 717.22 441.52, 719.62 440.49, 723.69 438.37 C 727.77 436.24, 729.69 435.06, 732.91 432.36 C 736.12 429.67, 737.60 428.15, 739.78 424.89 C 741.97 421.64, 742.87 419.72, 743.82 416.09 C 744.76 412.45, 744.88 410.43, 744.52 406.73 C 744.16 403.03, 743.50 401.06, 742.02 397.60 C 740.53 394.14, 739.38 392.46, 737.09 389.41 C 734.80 386.37, 733.31 384.95, 730.56 382.36 C 727.80 379.78, 726.18 378.57, 723.32 376.48 C 720.46 374.39, 718.96 373.07, 716.27 371.92 C 713.57 370.77, 711.98 370.76, 709.84 370.73 C 707.69 370.71, 706.61 370.94, 705.55 371.79 C 704.48 372.65, 704.23 373.73, 704.52 375.02 C 704.81 376.31, 705.60 376.92, 706.99 378.24 C 708.39 379.55, 709.29 380.33, 711.48 381.60 C 713.67 382.87, 715.38 383.06, 717.96 384.57 C 720.53 386.08, 722.00 387.09, 724.36 389.16 C 726.72 391.24, 727.93 392.52, 729.76 394.94 C 731.60 397.36, 732.41 398.71, 733.53 401.28 C 734.66 403.84, 735.05 405.19, 735.39 407.75 C 735.73 410.31, 735.73 411.51, 735.23 414.07 C 734.72 416.63, 734.31 418.00, 732.85 420.53 C 731.39 423.06, 730.43 424.38, 727.94 426.72 C 725.44 429.07, 723.85 430.25, 720.36 432.25 C 716.87 434.24, 714.71 435.29, 710.50 436.69 C 706.29 438.09, 703.90 438.63, 699.32 439.25 C 694.74 439.87, 692.19 440.00, 687.60 439.79 C 683.02 439.57, 680.60 439.24, 676.38 438.18 C 672.15 437.13, 670.05 436.29, 666.47 434.51 C 662.88 432.73, 661.16 431.57, 658.44 429.28 C 655.73 426.98, 654.59 425.64, 652.89 423.05 C 651.19 420.46, 650.65 419.06, 649.95 416.33 C 649.25 413.60, 649.16 412.20, 649.39 409.40 C 649.62 406.60, 649.96 405.12, 651.10 402.32 C 652.23 399.52, 653.09 398.02, 655.06 395.41 C 657.03 392.80, 658.35 391.47, 660.97 389.27 C 663.59 387.06, 665.16 386.02, 668.17 384.40 C 671.18 382.78, 672.90 382.09, 676.01 381.15 C 679.13 380.20, 680.84 379.94, 683.74 379.67 C 686.65 379.41, 688.20 379.60, 690.53 379.84 C 692.86 380.08, 693.69 380.22, 695.40 380.89 C 697.11 381.56, 697.69 382.30, 699.09 383.18 C 700.48 384.07, 700.89 384.67, 702.35 385.33 C 703.82 385.98, 704.80 386.82, 706.43 386.48 C 708.05 386.13, 709.73 385.21, 710.46 383.62" style="stroke: black; fill: black;"/><path d="M 762.87,376.50 C 761.43 376.99, 760.91 377.66, 760.02 379.22 C 759.13 380.78, 758.66 381.86, 758.43 384.31 C 758.20 386.75, 758.46 388.39, 758.87 391.44 C 759.29 394.48, 759.93 396.18, 760.49 399.53 C 761.06 402.89, 761.28 404.69, 761.71 408.19 C 762.14 411.69, 762.36 413.57, 762.65 417.02 C 762.94 420.47, 762.95 422.33, 763.17 425.43 C 763.39 428.52, 763.26 430.16, 763.73 432.49 C 764.20 434.83, 764.44 435.90, 765.51 437.10 C 766.57 438.30, 767.56 438.59, 769.07 438.48 C 770.59 438.37, 771.89 437.88, 773.08 436.54 C 774.27 435.20, 774.90 434.13, 775.03 431.79 C 775.15 429.46, 774.28 427.88, 773.70 424.87 C 773.12 421.86, 772.47 420.03, 772.13 416.75 C 771.79 413.47, 771.80 411.73, 771.98 408.47 C 772.17 405.20, 772.41 403.50, 773.04 400.43 C 773.67 397.36, 774.06 395.83, 775.13 393.12 C 776.20 390.42, 776.93 389.09, 778.40 386.89 C 779.87 384.70, 780.73 383.70, 782.48 382.14 C 784.23 380.57, 785.22 379.99, 787.15 379.06 C 789.07 378.12, 790.11 377.75, 792.11 377.46 C 794.12 377.18, 795.14 377.22, 797.18 377.62 C 799.22 378.02, 800.27 378.31, 802.33 379.46 C 804.39 380.60, 805.55 381.44, 807.47 383.33 C 809.40 385.22, 810.39 386.40, 811.96 388.92 C 813.52 391.44, 814.18 392.87, 815.28 395.92 C 816.38 398.97, 816.83 400.81, 817.45 404.17 C 818.07 407.53, 818.24 409.44, 818.37 412.72 C 818.51 416.01, 818.11 417.80, 818.14 420.60 C 818.17 423.40, 817.93 424.79, 818.53 426.72 C 819.13 428.65, 819.68 429.49, 821.13 430.26 C 822.59 431.04, 824.03 431.12, 825.80 430.61 C 827.57 430.10, 828.77 429.43, 829.97 427.71 C 831.17 425.99, 831.51 424.71, 831.82 422.02 C 832.12 419.34, 831.23 417.44, 831.48 414.28 C 831.72 411.13, 832.10 409.40, 833.03 406.25 C 833.96 403.09, 834.66 401.46, 836.13 398.51 C 837.60 395.57, 838.50 394.07, 840.40 391.52 C 842.29 388.97, 843.44 387.74, 845.61 385.75 C 847.78 383.76, 849.04 382.87, 851.26 381.56 C 853.48 380.26, 854.64 379.84, 856.69 379.24 C 858.75 378.63, 859.69 378.42, 861.53 378.54 C 863.37 378.66, 864.17 378.95, 865.90 379.85 C 867.63 380.75, 868.44 381.35, 870.20 383.04 C 871.96 384.72, 872.96 385.74, 874.68 388.28 C 876.39 390.81, 877.28 392.44, 878.78 395.72 C 880.27 399.00, 880.91 400.94, 882.15 404.67 C 883.39 408.41, 883.90 410.48, 884.97 414.39 C 886.05 418.30, 886.49 420.41, 887.52 424.23 C 888.54 428.04, 888.89 430.23, 890.09 433.46 C 891.28 436.69, 891.96 438.38, 893.49 440.38 C 895.01 442.39, 896.23 443.18, 897.70 443.49 C 899.17 443.81, 900.15 443.27, 900.84 441.97 C 901.52 440.67, 901.54 439.33, 901.12 436.98 C 900.69 434.63, 899.88 433.24, 898.72 430.21 C 897.56 427.18, 896.55 425.43, 895.32 421.85 C 894.09 418.26, 893.65 416.21, 892.55 412.29 C 891.46 408.38, 891.02 406.24, 889.86 402.27 C 888.69 398.30, 888.17 396.20, 886.74 392.42 C 885.31 388.64, 884.57 386.70, 882.71 383.38 C 880.85 380.06, 879.91 378.36, 877.45 375.82 C 874.99 373.27, 873.46 372.09, 870.42 370.65 C 867.37 369.20, 865.54 368.83, 862.22 368.59 C 858.90 368.36, 857.05 368.52, 853.82 369.47 C 850.59 370.41, 849.00 371.39, 846.08 373.33 C 843.15 375.26, 841.79 376.53, 839.22 379.12 C 836.64 381.71, 835.40 383.21, 833.21 386.27 C 831.01 389.32, 830.04 391.04, 828.23 394.40 C 826.42 397.75, 825.64 399.58, 824.17 403.04 C 822.71 406.50, 822.22 408.39, 820.89 411.70 C 819.56 415.02, 818.15 416.71, 817.51 419.62 C 816.87 422.54, 816.94 424.19, 817.70 426.28 C 818.46 428.36, 819.70 429.27, 821.30 430.04 C 822.91 430.81, 824.30 430.79, 825.72 430.13 C 827.13 429.47, 827.77 428.71, 828.37 426.74 C 828.98 424.77, 828.89 423.25, 828.74 420.27 C 828.59 417.29, 828.14 415.40, 827.61 411.83 C 827.09 408.27, 826.92 406.23, 826.14 402.46 C 825.36 398.69, 824.93 396.64, 823.71 393.00 C 822.48 389.35, 821.83 387.53, 820.01 384.24 C 818.20 380.94, 817.11 379.26, 814.62 376.52 C 812.12 373.78, 810.62 372.37, 807.54 370.52 C 804.46 368.66, 802.61 367.92, 799.22 367.25 C 795.83 366.58, 793.94 366.66, 790.60 367.16 C 787.26 367.66, 785.54 368.23, 782.52 369.74 C 779.51 371.26, 777.99 372.35, 775.53 374.75 C 773.06 377.15, 772.03 378.71, 770.21 381.73 C 768.39 384.75, 767.64 386.47, 766.42 389.85 C 765.21 393.22, 764.87 395.04, 764.14 398.61 C 763.41 402.18, 763.21 404.03, 762.79 407.67 C 762.38 411.32, 762.35 413.22, 762.06 416.83 C 761.77 420.44, 761.48 422.41, 761.34 425.72 C 761.20 429.04, 760.65 430.91, 761.35 433.41 C 762.05 435.91, 763.12 437.07, 764.82 438.22 C 766.51 439.36, 768.11 439.46, 769.82 439.13 C 771.53 438.79, 772.48 438.09, 773.35 436.55 C 774.23 435.00, 774.22 433.85, 774.19 431.41 C 774.17 428.97, 773.67 427.42, 773.22 424.34 C 772.77 421.27, 772.37 419.45, 771.94 416.04 C 771.50 412.63, 771.30 410.76, 771.05 407.29 C 770.81 403.82, 770.72 401.99, 770.74 398.69 C 770.76 395.39, 771.06 393.69, 771.15 390.78 C 771.25 387.87, 771.50 386.39, 771.21 384.13 C 770.91 381.87, 770.48 380.95, 769.67 379.48 C 768.87 378.01, 768.54 377.38, 767.18 376.78 C 765.82 376.19, 764.30 376.02, 762.87 376.50" style="stroke: black; fill: black;"/><path d="M 966.30,392.14 C 967.03 390.58, 966.82 389.19, 965.99 387.33 C 965.16 385.48, 964.25 384.38, 962.15 382.84 C 960.05 381.30, 958.39 380.43, 955.49 379.63 C 952.59 378.84, 950.87 378.71, 947.65 378.86 C 944.43 379.00, 942.74 379.41, 939.39 380.35 C 936.04 381.28, 934.29 381.94, 930.92 383.52 C 927.55 385.11, 925.73 386.06, 922.53 388.25 C 919.34 390.45, 917.69 391.72, 914.94 394.48 C 912.19 397.25, 910.79 398.80, 908.77 402.09 C 906.75 405.38, 905.76 407.25, 904.84 410.94 C 903.93 414.62, 903.70 416.77, 904.19 420.52 C 904.68 424.27, 905.32 426.30, 907.27 429.67 C 909.22 433.05, 910.70 434.70, 913.94 437.39 C 917.18 440.07, 919.25 441.28, 923.46 443.11 C 927.67 444.94, 930.11 445.58, 935.01 446.54 C 939.90 447.49, 942.64 447.75, 947.92 447.90 C 953.19 448.05, 956.06 447.91, 961.38 447.30 C 966.70 446.70, 969.49 446.14, 974.50 444.87 C 979.51 443.60, 982.06 442.77, 986.42 440.95 C 990.78 439.12, 992.84 438.12, 996.28 435.74 C 999.73 433.37, 1001.39 432.09, 1003.64 429.07 C 1005.89 426.04, 1006.86 424.14, 1007.53 420.63 C 1008.21 417.11, 1008.01 414.98, 1007.03 411.49 C 1006.05 408.01, 1004.94 406.26, 1002.65 403.19 C 1000.36 400.13, 998.83 398.39, 995.57 396.17 C 992.32 393.95, 988.86 391.89, 986.36 392.07 C 983.87 392.26, 982.41 394.82, 983.08 397.08 C 983.75 399.35, 987.34 401.03, 989.72 403.38 C 992.11 405.74, 993.42 406.69, 995.02 408.86 C 996.62 411.03, 997.06 412.19, 997.72 414.25 C 998.38 416.31, 998.54 417.15, 998.33 419.15 C 998.13 421.16, 998.00 422.15, 996.69 424.26 C 995.39 426.38, 994.43 427.63, 991.83 429.73 C 989.23 431.84, 987.47 432.99, 983.68 434.79 C 979.89 436.60, 977.48 437.50, 972.89 438.76 C 968.29 440.02, 965.63 440.57, 960.69 441.11 C 955.75 441.65, 953.03 441.73, 948.19 441.46 C 943.35 441.19, 940.79 440.82, 936.49 439.77 C 932.19 438.71, 930.10 437.93, 926.69 436.20 C 923.29 434.46, 921.77 433.26, 919.45 431.08 C 917.13 428.91, 916.32 427.67, 915.10 425.33 C 913.87 422.99, 913.61 421.84, 913.34 419.40 C 913.07 416.96, 913.13 415.66, 913.75 413.14 C 914.37 410.62, 914.94 409.24, 916.44 406.78 C 917.94 404.32, 919.02 403.00, 921.24 400.83 C 923.47 398.66, 924.86 397.58, 927.55 395.92 C 930.24 394.26, 931.86 393.56, 934.71 392.53 C 937.55 391.50, 939.13 391.19, 941.77 390.76 C 944.41 390.32, 945.82 390.34, 947.93 390.35 C 950.03 390.37, 950.77 390.37, 952.30 390.84 C 953.82 391.30, 954.31 391.97, 955.55 392.67 C 956.78 393.37, 957.12 393.85, 958.47 394.34 C 959.83 394.83, 960.77 395.55, 962.33 395.11 C 963.90 394.67, 965.57 393.69, 966.30 392.14" style="stroke: black; fill: black;"/></svg>